<ttFont>
    <TTGlyph name=".notdef" xMin="-20" yMin="0" xMax="553" yMax="700">
      <contour>
        <pt x="-20" y="0" on="1"/>
        <pt x="53" y="700" on="1"/>
        <pt x="553" y="700" on="1"/>
        <pt x="480" y="0" on="1"/>
      </contour>
      <contour>
        <pt x="271" y="395" on="1"/>
        <pt x="467" y="650" on="1"/>
        <pt x="127" y="650" on="1"/>
      </contour>
      <contour>
        <pt x="39" y="95" on="1"/>
        <pt x="236" y="350" on="1"/>
        <pt x="92" y="605" on="1"/>
      </contour>
      <contour>
        <pt x="439" y="95" on="1"/>
        <pt x="492" y="605" on="1"/>
        <pt x="296" y="350" on="1"/>
      </contour>
      <contour>
        <pt x="65" y="50" on="1"/>
        <pt x="405" y="50" on="1"/>
        <pt x="261" y="305" on="1"/>
      </contour>
    </TTGlyph>
    <TTGlyph name="A" xMin="-18" yMin="-2" xMax="470" yMax="702">
      <contour>
        <pt x="-18" y="-2" on="0"/>
        <pt x="-16" y="16" on="1"/>
        <pt x="-16" y="19" on="0"/>
        <pt x="-12" y="31" on="1"/>
        <pt x="230" y="680" on="1"/>
        <pt x="239" y="702" on="0"/>
        <pt x="279" y="702" on="1"/>
        <pt x="315" y="702" on="1"/>
        <pt x="356" y="702" on="0"/>
        <pt x="359" y="680" on="1"/>
        <pt x="468" y="31" on="1"/>
        <pt x="470" y="20" on="0"/>
        <pt x="469" y="16" on="1"/>
        <pt x="467" y="-2" on="0"/>
        <pt x="429" y="-2" on="1"/>
        <pt x="402" y="-2" on="1"/>
        <pt x="367" y="-2" on="0"/>
        <pt x="366" y="15" on="1"/>
        <pt x="343" y="167" on="1"/>
        <pt x="143" y="167" on="1"/>
        <pt x="90" y="15" on="1"/>
        <pt x="83" y="-2" on="0"/>
        <pt x="49" y="-2" on="1"/>
        <pt x="22" y="-2" on="1"/>
      </contour>
      <contour>
        <pt x="332" y="254" on="1"/>
        <pt x="295" y="516" on="1"/>
        <pt x="291" y="546" on="0"/>
        <pt x="289" y="581" on="1"/>
        <pt x="284" y="581" on="1"/>
        <pt x="269" y="531" on="0"/>
        <pt x="264" y="516" on="1"/>
        <pt x="171" y="254" on="1"/>
      </contour>
    </TTGlyph>
    <TTGlyph name="AE" xMin="-26" yMin="-2" xMax="709" yMax="700">
      <contour>
        <pt x="-26" y="-2" on="0"/>
        <pt x="-24" y="16" on="1"/>
        <pt x="-22" y="27" on="0"/>
        <pt x="-18" y="33" on="1"/>
        <pt x="301" y="673" on="1"/>
        <pt x="309" y="687" on="0"/>
        <pt x="326" y="700" on="0"/>
        <pt x="339" y="700" on="1"/>
        <pt x="690" y="700" on="1"/>
        <pt x="709" y="700" on="0"/>
        <pt x="709" y="675" on="1"/>
        <pt x="709" y="668" on="0"/>
        <pt x="708" y="664" on="1"/>
        <pt x="706" y="644" on="1"/>
        <pt x="703" y="608" on="0"/>
        <pt x="680" y="608" on="1"/>
        <pt x="438" y="608" on="1"/>
        <pt x="446" y="404" on="1"/>
        <pt x="657" y="404" on="1"/>
        <pt x="676" y="404" on="0"/>
        <pt x="676" y="379" on="1"/>
        <pt x="676" y="372" on="0"/>
        <pt x="675" y="368" on="1"/>
        <pt x="673" y="348" on="1"/>
        <pt x="669" y="312" on="0"/>
        <pt x="647" y="312" on="1"/>
        <pt x="450" y="312" on="1"/>
        <pt x="459" y="92" on="1"/>
        <pt x="648" y="92" on="1"/>
        <pt x="666" y="92" on="0"/>
        <pt x="666" y="68" on="1"/>
        <pt x="666" y="61" on="0"/>
        <pt x="665" y="56" on="1"/>
        <pt x="664" y="36" on="1"/>
        <pt x="661" y="17" on="0"/>
        <pt x="649" y="0" on="0"/>
        <pt x="638" y="0" on="1"/>
        <pt x="382" y="0" on="1"/>
        <pt x="357" y="0" on="0"/>
        <pt x="357" y="29" on="1"/>
        <pt x="352" y="167" on="1"/>
        <pt x="152" y="167" on="1"/>
        <pt x="78" y="15" on="1"/>
        <pt x="69" y="-2" on="0"/>
        <pt x="41" y="-2" on="1"/>
        <pt x="18" y="-2" on="1"/>
      </contour>
      <contour>
        <pt x="196" y="259" on="1"/>
        <pt x="349" y="259" on="1"/>
        <pt x="341" y="505" on="1"/>
        <pt x="346" y="567" on="1"/>
        <pt x="344" y="567" on="1"/>
        <pt x="317" y="505" on="1"/>
      </contour>
    </TTGlyph>
    <TTGlyph name="AEacute" xMin="-24" yMin="-2" xMax="709" yMax="910">
      <component glyphName="AE" x="0" y="0" flags="0x0"/>
      <component glyphName="acute" x="351" y="177" flags="0x4"/>
    </TTGlyph>
    <TTGlyph name="Aacute" xMin="-16" yMin="-2" xMax="469" yMax="910">
      <component glyphName="A" x="0" y="0" flags="0x0"/>
      <component glyphName="acute" x="209" y="177" flags="0x4"/>
    </TTGlyph>
    <TTGlyph name="Abreve" xMin="-16" yMin="-2" xMax="469" yMax="892">
      <component glyphName="A" x="0" y="0" flags="0x0"/>
      <component glyphName="breve" x="146" y="177" flags="0x4"/>
    </TTGlyph>
    <TTGlyph name="Acircumflex" xMin="-16" yMin="-2" xMax="469" yMax="895">
      <component glyphName="A" x="0" y="0" flags="0x0"/>
      <component glyphName="circumflex" x="145" y="177" flags="0x4"/>
    </TTGlyph>
    <TTGlyph name="Adieresis" xMin="-16" yMin="-2" xMax="469" yMax="879">
      <component glyphName="A" x="0" y="0" flags="0x0"/>
      <component glyphName="dieresis" x="143" y="177" flags="0x4"/>
    </TTGlyph>
    <TTGlyph name="Agrave" xMin="-16" yMin="-2" xMax="469" yMax="910">
      <component glyphName="A" x="0" y="0" flags="0x0"/>
      <component glyphName="grave" x="138" y="177" flags="0x4"/>
    </TTGlyph>
    <TTGlyph name="Amacron" xMin="-16" yMin="-2" xMax="469" yMax="862">
      <component glyphName="A" x="0" y="0" flags="0x0"/>
      <component glyphName="macron" x="145" y="177" flags="0x4"/>
    </TTGlyph>
    <TTGlyph name="Aogonek" xMin="-18" yMin="-172" xMax="499" yMax="702">
      <contour>
        <pt x="499" y="-101" on="0"/>
        <pt x="499" y="-127" on="1"/>
        <pt x="499" y="-146" on="0"/>
        <pt x="485" y="-155" on="1"/>
        <pt x="458" y="-172" on="0"/>
        <pt x="421" y="-172" on="1"/>
        <pt x="366" y="-172" on="0"/>
        <pt x="328" y="-114" on="0"/>
        <pt x="328" y="-82" on="1"/>
        <pt x="328" y="-59" on="0"/>
        <pt x="345" y="-2" on="0"/>
        <pt x="364" y="25" on="1"/>
        <pt x="343" y="167" on="1"/>
        <pt x="143" y="167" on="1"/>
        <pt x="90" y="15" on="1"/>
        <pt x="83" y="-2" on="0"/>
        <pt x="49" y="-2" on="1"/>
        <pt x="22" y="-2" on="1"/>
        <pt x="-18" y="-2" on="0"/>
        <pt x="-16" y="16" on="1"/>
        <pt x="-16" y="19" on="0"/>
        <pt x="-12" y="31" on="1"/>
        <pt x="230" y="680" on="1"/>
        <pt x="239" y="702" on="0"/>
        <pt x="279" y="702" on="1"/>
        <pt x="315" y="702" on="1"/>
        <pt x="356" y="702" on="0"/>
        <pt x="359" y="680" on="1"/>
        <pt x="468" y="31" on="1"/>
        <pt x="470" y="20" on="0"/>
        <pt x="469" y="16" on="1"/>
        <pt x="467" y="-2" on="0"/>
        <pt x="429" y="-2" on="1"/>
        <pt x="406" y="-2" on="1"/>
        <pt x="391" y="-37" on="0"/>
        <pt x="391" y="-64" on="1"/>
        <pt x="391" y="-89" on="0"/>
        <pt x="419" y="-107" on="0"/>
        <pt x="440" y="-107" on="1"/>
        <pt x="448" y="-107" on="0"/>
        <pt x="473" y="-101" on="0"/>
        <pt x="476" y="-101" on="1"/>
      </contour>
      <contour>
        <pt x="332" y="254" on="1"/>
        <pt x="295" y="516" on="1"/>
        <pt x="291" y="546" on="0"/>
        <pt x="289" y="581" on="1"/>
        <pt x="284" y="581" on="1"/>
        <pt x="269" y="531" on="0"/>
        <pt x="264" y="516" on="1"/>
        <pt x="171" y="254" on="1"/>
      </contour>
    </TTGlyph>
    <TTGlyph name="Aring" xMin="-16" yMin="-2" xMax="469" yMax="915">
      <component glyphName="A" x="0" y="0" flags="0x0"/>
      <component glyphName="ring" x="142" y="177" flags="0x4"/>
    </TTGlyph>
    <TTGlyph name="Aringacute" xMin="-18" yMin="-2" xMax="470" yMax="930">
      <contour>
        <pt x="279" y="819" on="0"/>
        <pt x="268" y="824" on="0"/>
        <pt x="268" y="831" on="1"/>
        <pt x="301" y="882" on="1"/>
        <pt x="309" y="896" on="0"/>
        <pt x="314" y="903" on="1"/>
        <pt x="324" y="918" on="0"/>
        <pt x="359" y="930" on="0"/>
        <pt x="386" y="930" on="1"/>
        <pt x="413" y="930" on="0"/>
        <pt x="437" y="924" on="0"/>
        <pt x="436" y="916" on="1"/>
        <pt x="436" y="913" on="0"/>
        <pt x="423" y="900" on="0"/>
        <pt x="409" y="888" on="1"/>
        <pt x="353" y="839" on="1"/>
        <pt x="333" y="819" on="0"/>
        <pt x="293" y="819" on="1"/>
      </contour>
      <contour>
        <pt x="470" y="20" on="0"/>
        <pt x="469" y="16" on="1"/>
        <pt x="467" y="-2" on="0"/>
        <pt x="429" y="-2" on="1"/>
        <pt x="402" y="-2" on="1"/>
        <pt x="367" y="-2" on="0"/>
        <pt x="366" y="15" on="1"/>
        <pt x="343" y="167" on="1"/>
        <pt x="143" y="167" on="1"/>
        <pt x="90" y="15" on="1"/>
        <pt x="83" y="-2" on="0"/>
        <pt x="49" y="-2" on="1"/>
        <pt x="22" y="-2" on="1"/>
        <pt x="-18" y="-2" on="0"/>
        <pt x="-16" y="16" on="1"/>
        <pt x="-16" y="19" on="0"/>
        <pt x="-12" y="31" on="1"/>
        <pt x="220" y="652" on="1"/>
        <pt x="210" y="670" on="0"/>
        <pt x="210" y="692" on="1"/>
        <pt x="210" y="736" on="0"/>
        <pt x="265" y="794" on="0"/>
        <pt x="307" y="794" on="1"/>
        <pt x="344" y="794" on="0"/>
        <pt x="387" y="752" on="0"/>
        <pt x="387" y="717" on="1"/>
        <pt x="387" y="680" on="0"/>
        <pt x="364" y="650" on="1"/>
        <pt x="468" y="31" on="1"/>
      </contour>
      <contour>
        <pt x="254" y="659" on="0"/>
        <pt x="293" y="659" on="1"/>
        <pt x="316" y="659" on="0"/>
        <pt x="342" y="686" on="0"/>
        <pt x="342" y="711" on="1"/>
        <pt x="342" y="750" on="0"/>
        <pt x="303" y="750" on="1"/>
        <pt x="280" y="750" on="0"/>
        <pt x="254" y="722" on="0"/>
        <pt x="254" y="697" on="1"/>
      </contour>
      <contour>
        <pt x="332" y="254" on="1"/>
        <pt x="295" y="516" on="1"/>
        <pt x="291" y="546" on="0"/>
        <pt x="289" y="581" on="1"/>
        <pt x="284" y="581" on="1"/>
        <pt x="269" y="531" on="0"/>
        <pt x="264" y="516" on="1"/>
        <pt x="171" y="254" on="1"/>
      </contour>
    </TTGlyph>
    <TTGlyph name="Atilde" xMin="-16" yMin="-2" xMax="469" yMax="870">
      <component glyphName="A" x="0" y="0" flags="0x0"/>
      <component glyphName="tilde" x="150" y="177" flags="0x4"/>
    </TTGlyph>
    <TTGlyph name="B" xMin="47" yMin="0" xMax="503" yMax="700">
      <contour>
        <pt x="60" y="0" on="0"/>
        <pt x="47" y="15" on="0"/>
        <pt x="49" y="33" on="1"/>
        <pt x="116" y="667" on="1"/>
        <pt x="118" y="685" on="0"/>
        <pt x="134" y="700" on="0"/>
        <pt x="150" y="700" on="1"/>
        <pt x="318" y="700" on="1"/>
        <pt x="411" y="700" on="0"/>
        <pt x="503" y="622" on="0"/>
        <pt x="503" y="552" on="1"/>
        <pt x="503" y="543" on="0"/>
        <pt x="501" y="525" on="1"/>
        <pt x="496" y="473" on="0"/>
        <pt x="434" y="385" on="0"/>
        <pt x="395" y="370" on="1"/>
        <pt x="395" y="366" on="1"/>
        <pt x="430" y="354" on="0"/>
        <pt x="491" y="286" on="0"/>
        <pt x="491" y="224" on="1"/>
        <pt x="491" y="209" on="0"/>
        <pt x="490" y="200" on="1"/>
        <pt x="479" y="100" on="0"/>
        <pt x="362" y="0" on="0"/>
        <pt x="252" y="0" on="1"/>
        <pt x="76" y="0" on="1"/>
      </contour>
      <contour>
        <pt x="289" y="403" on="1"/>
        <pt x="335" y="403" on="0"/>
        <pt x="392" y="476" on="0"/>
        <pt x="392" y="534" on="1"/>
        <pt x="392" y="574" on="0"/>
        <pt x="352" y="611" on="0"/>
        <pt x="310" y="611" on="1"/>
        <pt x="217" y="611" on="1"/>
        <pt x="195" y="403" on="1"/>
      </contour>
      <contour>
        <pt x="276" y="89" on="1"/>
        <pt x="321" y="89" on="0"/>
        <pt x="376" y="151" on="0"/>
        <pt x="382" y="207" on="1"/>
        <pt x="383" y="213" on="0"/>
        <pt x="383" y="225" on="1"/>
        <pt x="383" y="269" on="0"/>
        <pt x="335" y="314" on="0"/>
        <pt x="289" y="314" on="1"/>
        <pt x="186" y="314" on="1"/>
        <pt x="162" y="89" on="1"/>
      </contour>
    </TTGlyph>
    <TTGlyph name="C" xMin="50" yMin="-7" xMax="471" yMax="707">
      <contour>
        <pt x="166" y="-7" on="0"/>
        <pt x="50" y="127" on="0"/>
        <pt x="50" y="266" on="1"/>
        <pt x="50" y="301" on="0"/>
        <pt x="55" y="351" on="1"/>
        <pt x="75" y="535" on="0"/>
        <pt x="216" y="707" on="0"/>
        <pt x="357" y="707" on="1"/>
        <pt x="383" y="707" on="0"/>
        <pt x="434" y="697" on="0"/>
        <pt x="452" y="690" on="1"/>
        <pt x="464" y="686" on="0"/>
        <pt x="471" y="670" on="0"/>
        <pt x="469" y="657" on="1"/>
        <pt x="467" y="635" on="0"/>
        <pt x="442" y="586" on="0"/>
        <pt x="427" y="594" on="1"/>
        <pt x="391" y="612" on="0"/>
        <pt x="349" y="612" on="1"/>
        <pt x="271" y="612" on="0"/>
        <pt x="182" y="485" on="0"/>
        <pt x="167" y="351" on="1"/>
        <pt x="163" y="314" on="0"/>
        <pt x="163" y="275" on="1"/>
        <pt x="163" y="181" on="0"/>
        <pt x="228" y="88" on="0"/>
        <pt x="294" y="88" on="1"/>
        <pt x="337" y="88" on="0"/>
        <pt x="383" y="109" on="1"/>
        <pt x="389" y="111" on="0"/>
        <pt x="392" y="111" on="1"/>
        <pt x="405" y="111" on="0"/>
        <pt x="417" y="80" on="0"/>
        <pt x="417" y="61" on="1"/>
        <pt x="417" y="44" on="0"/>
        <pt x="403" y="21" on="0"/>
        <pt x="386" y="12" on="1"/>
        <pt x="368" y="4" on="0"/>
        <pt x="314" y="-7" on="0"/>
        <pt x="284" y="-7" on="1"/>
      </contour>
    </TTGlyph>
    <TTGlyph name="Cacute" xMin="50" yMin="-7" xMax="470" yMax="910">
      <component glyphName="C" x="0" y="0" flags="0x0"/>
      <component glyphName="acute" x="227" y="177" flags="0x4"/>
    </TTGlyph>
    <TTGlyph name="Cacute.loclPLK" xMin="50" yMin="-7" xMax="470" yMax="910">
      <component glyphName="C" x="0" y="0" flags="0x0"/>
      <component glyphName="acute.loclPLK" x="227" y="177" flags="0x4"/>
    </TTGlyph>
    <TTGlyph name="Ccaron" xMin="50" yMin="-7" xMax="470" yMax="900">
      <component glyphName="C" x="0" y="0" flags="0x0"/>
      <component glyphName="caron" x="165" y="177" flags="0x4"/>
    </TTGlyph>
    <TTGlyph name="Ccedilla" xMin="51" yMin="-211" xMax="471" yMax="707">
      <contour>
        <pt x="464" y="686" on="0"/>
        <pt x="471" y="670" on="0"/>
        <pt x="469" y="657" on="1"/>
        <pt x="467" y="635" on="0"/>
        <pt x="442" y="586" on="0"/>
        <pt x="427" y="594" on="1"/>
        <pt x="391" y="612" on="0"/>
        <pt x="349" y="612" on="1"/>
        <pt x="271" y="612" on="0"/>
        <pt x="182" y="485" on="0"/>
        <pt x="167" y="351" on="1"/>
        <pt x="163" y="314" on="0"/>
        <pt x="163" y="275" on="1"/>
        <pt x="163" y="181" on="0"/>
        <pt x="228" y="88" on="0"/>
        <pt x="294" y="88" on="1"/>
        <pt x="337" y="88" on="0"/>
        <pt x="383" y="109" on="1"/>
        <pt x="389" y="111" on="0"/>
        <pt x="392" y="111" on="1"/>
        <pt x="405" y="111" on="0"/>
        <pt x="417" y="80" on="0"/>
        <pt x="417" y="61" on="1"/>
        <pt x="417" y="44" on="0"/>
        <pt x="403" y="21" on="0"/>
        <pt x="386" y="12" on="1"/>
        <pt x="368" y="4" on="0"/>
        <pt x="314" y="-7" on="0"/>
        <pt x="284" y="-7" on="1"/>
        <pt x="269" y="-7" on="0"/>
        <pt x="261" y="-6" on="1"/>
        <pt x="247" y="-56" on="1"/>
        <pt x="275" y="-58" on="0"/>
        <pt x="318" y="-90" on="0"/>
        <pt x="318" y="-126" on="1"/>
        <pt x="318" y="-171" on="0"/>
        <pt x="264" y="-211" on="0"/>
        <pt x="220" y="-211" on="1"/>
        <pt x="185" y="-211" on="0"/>
        <pt x="122" y="-184" on="0"/>
        <pt x="122" y="-165" on="1"/>
        <pt x="122" y="-154" on="0"/>
        <pt x="138" y="-134" on="0"/>
        <pt x="145" y="-134" on="1"/>
        <pt x="151" y="-134" on="0"/>
        <pt x="169" y="-142" on="1"/>
        <pt x="195" y="-155" on="0"/>
        <pt x="213" y="-155" on="1"/>
        <pt x="225" y="-155" on="0"/>
        <pt x="244" y="-142" on="0"/>
        <pt x="244" y="-129" on="1"/>
        <pt x="244" y="-116" on="0"/>
        <pt x="229" y="-104" on="0"/>
        <pt x="214" y="-99" on="1"/>
        <pt x="202" y="-94" on="0"/>
        <pt x="192" y="-86" on="0"/>
        <pt x="192" y="-79" on="1"/>
        <pt x="192" y="-73" on="0"/>
        <pt x="203" y="-36" on="0"/>
        <pt x="215" y="0" on="1"/>
        <pt x="132" y="17" on="0"/>
        <pt x="51" y="149" on="0"/>
        <pt x="51" y="267" on="1"/>
        <pt x="51" y="311" on="0"/>
        <pt x="55" y="351" on="1"/>
        <pt x="75" y="535" on="0"/>
        <pt x="216" y="707" on="0"/>
        <pt x="357" y="707" on="1"/>
        <pt x="383" y="707" on="0"/>
        <pt x="434" y="697" on="0"/>
        <pt x="452" y="690" on="1"/>
      </contour>
    </TTGlyph>
    <TTGlyph name="Ccircumflex" xMin="50" yMin="-7" xMax="470" yMax="895">
      <component glyphName="C" x="0" y="0" flags="0x0"/>
      <component glyphName="circumflex" x="163" y="177" flags="0x4"/>
    </TTGlyph>
    <TTGlyph name="Cdotaccent" xMin="50" yMin="-7" xMax="470" yMax="879">
      <component glyphName="C" x="0" y="0" flags="0x0"/>
      <component glyphName="dotaccent" x="160" y="177" flags="0x4"/>
    </TTGlyph>
    <TTGlyph name="D" xMin="45" yMin="0" xMax="542" yMax="700">
      <contour>
        <pt x="58" y="0" on="0"/>
        <pt x="45" y="16" on="0"/>
        <pt x="47" y="33" on="1"/>
        <pt x="115" y="667" on="1"/>
        <pt x="117" y="684" on="0"/>
        <pt x="132" y="700" on="0"/>
        <pt x="148" y="700" on="1"/>
        <pt x="322" y="700" on="1"/>
        <pt x="542" y="700" on="0"/>
        <pt x="542" y="434" on="1"/>
        <pt x="542" y="400" on="0"/>
        <pt x="537" y="350" on="1"/>
        <pt x="518" y="167" on="0"/>
        <pt x="371" y="0" on="0"/>
        <pt x="248" y="0" on="1"/>
        <pt x="74" y="0" on="1"/>
      </contour>
      <contour>
        <pt x="255" y="92" on="1"/>
        <pt x="399" y="92" on="0"/>
        <pt x="426" y="350" on="1"/>
        <pt x="430" y="386" on="0"/>
        <pt x="430" y="425" on="1"/>
        <pt x="430" y="608" on="0"/>
        <pt x="310" y="608" on="1"/>
        <pt x="219" y="608" on="1"/>
        <pt x="164" y="92" on="1"/>
      </contour>
    </TTGlyph>
    <TTGlyph name="Dcaron" xMin="47" yMin="0" xMax="542" yMax="900">
      <component glyphName="D" x="0" y="0" flags="0x0"/>
      <component glyphName="caron" x="169" y="177" flags="0x4"/>
    </TTGlyph>
    <TTGlyph name="Dcroat" xMin="19" yMin="0" xMax="542" yMax="700">
      <component glyphName="Eth" x="0" y="0" flags="0x0"/>
    </TTGlyph>
    <TTGlyph name="E" xMin="47" yMin="0" xMax="460" yMax="700">
      <contour>
        <pt x="60" y="0" on="0"/>
        <pt x="47" y="15" on="0"/>
        <pt x="49" y="33" on="1"/>
        <pt x="116" y="667" on="1"/>
        <pt x="118" y="685" on="0"/>
        <pt x="134" y="700" on="0"/>
        <pt x="150" y="700" on="1"/>
        <pt x="440" y="700" on="1"/>
        <pt x="451" y="700" on="0"/>
        <pt x="460" y="683" on="0"/>
        <pt x="458" y="664" on="1"/>
        <pt x="456" y="644" on="1"/>
        <pt x="452" y="608" on="0"/>
        <pt x="430" y="608" on="1"/>
        <pt x="219" y="608" on="1"/>
        <pt x="198" y="404" on="1"/>
        <pt x="386" y="404" on="1"/>
        <pt x="408" y="404" on="0"/>
        <pt x="405" y="368" on="1"/>
        <pt x="402" y="348" on="1"/>
        <pt x="399" y="312" on="0"/>
        <pt x="377" y="312" on="1"/>
        <pt x="188" y="312" on="1"/>
        <pt x="165" y="92" on="1"/>
        <pt x="376" y="92" on="1"/>
        <pt x="387" y="92" on="0"/>
        <pt x="396" y="75" on="0"/>
        <pt x="394" y="56" on="1"/>
        <pt x="391" y="36" on="1"/>
        <pt x="389" y="17" on="0"/>
        <pt x="378" y="0" on="0"/>
        <pt x="366" y="0" on="1"/>
        <pt x="76" y="0" on="1"/>
      </contour>
    </TTGlyph>
    <TTGlyph name="Eacute" xMin="49" yMin="0" xMax="458" yMax="910">
      <component glyphName="E" x="0" y="0" flags="0x0"/>
      <component glyphName="acute" x="204" y="177" flags="0x4"/>
    </TTGlyph>
    <TTGlyph name="Ebreve" xMin="49" yMin="0" xMax="458" yMax="892">
      <component glyphName="E" x="0" y="0" flags="0x0"/>
      <component glyphName="breve" x="141" y="177" flags="0x4"/>
    </TTGlyph>
    <TTGlyph name="Ecaron" xMin="49" yMin="0" xMax="458" yMax="900">
      <component glyphName="E" x="0" y="0" flags="0x0"/>
      <component glyphName="caron" x="142" y="177" flags="0x4"/>
    </TTGlyph>
    <TTGlyph name="Ecircumflex" xMin="49" yMin="0" xMax="458" yMax="895">
      <component glyphName="E" x="0" y="0" flags="0x0"/>
      <component glyphName="circumflex" x="140" y="177" flags="0x4"/>
    </TTGlyph>
    <TTGlyph name="Edieresis" xMin="49" yMin="0" xMax="458" yMax="879">
      <component glyphName="E" x="0" y="0" flags="0x0"/>
      <component glyphName="dieresis" x="138" y="177" flags="0x4"/>
    </TTGlyph>
    <TTGlyph name="Edotaccent" xMin="49" yMin="0" xMax="458" yMax="879">
      <component glyphName="E" x="0" y="0" flags="0x0"/>
      <component glyphName="dotaccent" x="137" y="177" flags="0x4"/>
    </TTGlyph>
    <TTGlyph name="Egrave" xMin="49" yMin="0" xMax="458" yMax="910">
      <component glyphName="E" x="0" y="0" flags="0x0"/>
      <component glyphName="grave" x="133" y="177" flags="0x4"/>
    </TTGlyph>
    <TTGlyph name="Emacron" xMin="49" yMin="0" xMax="458" yMax="862">
      <component glyphName="E" x="0" y="0" flags="0x0"/>
      <component glyphName="macron" x="140" y="177" flags="0x4"/>
    </TTGlyph>
    <TTGlyph name="Eng" xMin="39" yMin="-212" xMax="569" yMax="702">
      <contour>
        <pt x="569" y="702" on="0"/>
        <pt x="567" y="677" on="1"/>
        <pt x="489" y="-71" on="1"/>
        <pt x="481" y="-146" on="0"/>
        <pt x="405" y="-212" on="0"/>
        <pt x="358" y="-212" on="1"/>
        <pt x="279" y="-212" on="0"/>
        <pt x="283" y="-176" on="1"/>
        <pt x="284" y="-163" on="0"/>
        <pt x="301" y="-122" on="0"/>
        <pt x="312" y="-122" on="1"/>
        <pt x="316" y="-122" on="0"/>
        <pt x="334" y="-127" on="0"/>
        <pt x="347" y="-127" on="1"/>
        <pt x="363" y="-127" on="0"/>
        <pt x="384" y="-100" on="0"/>
        <pt x="387" y="-66" on="1"/>
        <pt x="395" y="13" on="1"/>
        <pt x="214" y="453" on="1"/>
        <pt x="204" y="479" on="0"/>
        <pt x="195" y="517" on="1"/>
        <pt x="190" y="514" on="1"/>
        <pt x="192" y="502" on="0"/>
        <pt x="192" y="478" on="1"/>
        <pt x="192" y="458" on="0"/>
        <pt x="191" y="448" on="1"/>
        <pt x="145" y="23" on="1"/>
        <pt x="143" y="-2" on="0"/>
        <pt x="98" y="-2" on="1"/>
        <pt x="83" y="-2" on="1"/>
        <pt x="39" y="-2" on="0"/>
        <pt x="42" y="23" on="1"/>
        <pt x="111" y="677" on="1"/>
        <pt x="113" y="702" on="0"/>
        <pt x="157" y="702" on="1"/>
        <pt x="181" y="702" on="1"/>
        <pt x="197" y="702" on="0"/>
        <pt x="217" y="692" on="0"/>
        <pt x="222" y="680" on="1"/>
        <pt x="393" y="258" on="1"/>
        <pt x="405" y="227" on="0"/>
        <pt x="415" y="191" on="1"/>
        <pt x="420" y="193" on="1"/>
        <pt x="418" y="206" on="0"/>
        <pt x="418" y="231" on="1"/>
        <pt x="418" y="252" on="0"/>
        <pt x="419" y="262" on="1"/>
        <pt x="464" y="677" on="1"/>
        <pt x="466" y="702" on="0"/>
        <pt x="510" y="702" on="1"/>
        <pt x="525" y="702" on="1"/>
      </contour>
    </TTGlyph>
    <TTGlyph name="Eogonek" xMin="47" yMin="-177" xMax="470" yMax="700">
      <contour>
        <pt x="470" y="-106" on="0"/>
        <pt x="470" y="-132" on="1"/>
        <pt x="470" y="-151" on="0"/>
        <pt x="456" y="-160" on="1"/>
        <pt x="429" y="-177" on="0"/>
        <pt x="392" y="-177" on="1"/>
        <pt x="337" y="-177" on="0"/>
        <pt x="299" y="-119" on="0"/>
        <pt x="299" y="-87" on="1"/>
        <pt x="299" y="-44" on="0"/>
        <pt x="323" y="0" on="1"/>
        <pt x="76" y="0" on="1"/>
        <pt x="60" y="0" on="0"/>
        <pt x="47" y="15" on="0"/>
        <pt x="49" y="33" on="1"/>
        <pt x="116" y="667" on="1"/>
        <pt x="118" y="685" on="0"/>
        <pt x="134" y="700" on="0"/>
        <pt x="150" y="700" on="1"/>
        <pt x="440" y="700" on="1"/>
        <pt x="451" y="700" on="0"/>
        <pt x="460" y="683" on="0"/>
        <pt x="458" y="664" on="1"/>
        <pt x="456" y="644" on="1"/>
        <pt x="452" y="608" on="0"/>
        <pt x="430" y="608" on="1"/>
        <pt x="219" y="608" on="1"/>
        <pt x="198" y="404" on="1"/>
        <pt x="386" y="404" on="1"/>
        <pt x="408" y="404" on="0"/>
        <pt x="405" y="368" on="1"/>
        <pt x="402" y="348" on="1"/>
        <pt x="399" y="312" on="0"/>
        <pt x="377" y="312" on="1"/>
        <pt x="188" y="312" on="1"/>
        <pt x="165" y="92" on="1"/>
        <pt x="376" y="92" on="1"/>
        <pt x="387" y="92" on="0"/>
        <pt x="396" y="75" on="0"/>
        <pt x="394" y="56" on="1"/>
        <pt x="391" y="36" on="1"/>
        <pt x="389" y="19" on="0"/>
        <pt x="385" y="10" on="1"/>
        <pt x="374" y="-11" on="0"/>
        <pt x="362" y="-53" on="0"/>
        <pt x="362" y="-69" on="1"/>
        <pt x="362" y="-94" on="0"/>
        <pt x="390" y="-112" on="0"/>
        <pt x="411" y="-112" on="1"/>
        <pt x="419" y="-112" on="0"/>
        <pt x="444" y="-106" on="0"/>
        <pt x="447" y="-106" on="1"/>
      </contour>
    </TTGlyph>
    <TTGlyph name="Eth" xMin="19" yMin="0" xMax="542" yMax="700">
      <contour>
        <pt x="542" y="700" on="0"/>
        <pt x="542" y="434" on="1"/>
        <pt x="542" y="400" on="0"/>
        <pt x="537" y="350" on="1"/>
        <pt x="518" y="167" on="0"/>
        <pt x="371" y="0" on="0"/>
        <pt x="248" y="0" on="1"/>
        <pt x="74" y="0" on="1"/>
        <pt x="58" y="0" on="0"/>
        <pt x="45" y="16" on="0"/>
        <pt x="47" y="33" on="1"/>
        <pt x="77" y="311" on="1"/>
        <pt x="38" y="311" on="1"/>
        <pt x="19" y="311" on="0"/>
        <pt x="19" y="339" on="1"/>
        <pt x="19" y="369" on="0"/>
        <pt x="30" y="403" on="0"/>
        <pt x="48" y="403" on="1"/>
        <pt x="87" y="403" on="1"/>
        <pt x="115" y="667" on="1"/>
        <pt x="117" y="684" on="0"/>
        <pt x="132" y="700" on="0"/>
        <pt x="148" y="700" on="1"/>
        <pt x="322" y="700" on="1"/>
      </contour>
      <contour>
        <pt x="430" y="386" on="0"/>
        <pt x="430" y="425" on="1"/>
        <pt x="430" y="608" on="0"/>
        <pt x="310" y="608" on="1"/>
        <pt x="219" y="608" on="1"/>
        <pt x="197" y="403" on="1"/>
        <pt x="296" y="403" on="1"/>
        <pt x="307" y="403" on="0"/>
        <pt x="316" y="390" on="0"/>
        <pt x="316" y="376" on="1"/>
        <pt x="316" y="347" on="0"/>
        <pt x="305" y="311" on="0"/>
        <pt x="287" y="311" on="1"/>
        <pt x="187" y="311" on="1"/>
        <pt x="164" y="92" on="1"/>
        <pt x="255" y="92" on="1"/>
        <pt x="399" y="92" on="0"/>
        <pt x="426" y="350" on="1"/>
      </contour>
    </TTGlyph>
    <TTGlyph name="Euro" xMin="2" yMin="-7" xMax="509" yMax="707">
      <contour>
        <pt x="176" y="-7" on="0"/>
        <pt x="68" y="112" on="0"/>
        <pt x="64" y="235" on="1"/>
        <pt x="23" y="235" on="1"/>
        <pt x="11" y="235" on="0"/>
        <pt x="2" y="249" on="0"/>
        <pt x="4" y="266" on="1"/>
        <pt x="5" y="273" on="1"/>
        <pt x="6" y="289" on="0"/>
        <pt x="19" y="304" on="0"/>
        <pt x="31" y="304" on="1"/>
        <pt x="65" y="304" on="1"/>
        <pt x="69" y="351" on="1"/>
        <pt x="75" y="393" on="1"/>
        <pt x="40" y="393" on="1"/>
        <pt x="28" y="393" on="0"/>
        <pt x="19" y="408" on="0"/>
        <pt x="20" y="424" on="1"/>
        <pt x="21" y="431" on="1"/>
        <pt x="23" y="448" on="0"/>
        <pt x="35" y="462" on="0"/>
        <pt x="47" y="462" on="1"/>
        <pt x="89" y="462" on="1"/>
        <pt x="148" y="707" on="0"/>
        <pt x="360" y="707" on="1"/>
        <pt x="399" y="707" on="0"/>
        <pt x="468" y="687" on="0"/>
        <pt x="509" y="657" on="0"/>
        <pt x="509" y="644" on="1"/>
        <pt x="509" y="629" on="0"/>
        <pt x="472" y="576" on="0"/>
        <pt x="459" y="576" on="1"/>
        <pt x="455" y="576" on="0"/>
        <pt x="423" y="597" on="0"/>
        <pt x="381" y="613" on="0"/>
        <pt x="351" y="613" on="1"/>
        <pt x="296" y="613" on="0"/>
        <pt x="221" y="539" on="0"/>
        <pt x="200" y="462" on="1"/>
        <pt x="413" y="462" on="1"/>
        <pt x="433" y="462" on="0"/>
        <pt x="433" y="441" on="1"/>
        <pt x="432" y="431" on="1"/>
        <pt x="431" y="424" on="1"/>
        <pt x="430" y="408" on="0"/>
        <pt x="417" y="393" on="0"/>
        <pt x="405" y="393" on="1"/>
        <pt x="186" y="393" on="1"/>
        <pt x="181" y="351" on="1"/>
        <pt x="177" y="304" on="1"/>
        <pt x="396" y="304" on="1"/>
        <pt x="408" y="304" on="0"/>
        <pt x="417" y="289" on="0"/>
        <pt x="416" y="273" on="1"/>
        <pt x="415" y="266" on="1"/>
        <pt x="414" y="250" on="0"/>
        <pt x="401" y="235" on="0"/>
        <pt x="389" y="235" on="1"/>
        <pt x="177" y="235" on="1"/>
        <pt x="186" y="88" on="0"/>
        <pt x="294" y="88" on="1"/>
        <pt x="327" y="88" on="0"/>
        <pt x="377" y="107" on="0"/>
        <pt x="401" y="121" on="1"/>
        <pt x="419" y="130" on="0"/>
        <pt x="422" y="130" on="1"/>
        <pt x="432" y="130" on="0"/>
        <pt x="449" y="107" on="0"/>
        <pt x="458" y="76" on="0"/>
        <pt x="457" y="69" on="1"/>
        <pt x="455" y="53" on="0"/>
        <pt x="405" y="17" on="0"/>
        <pt x="326" y="-7" on="0"/>
        <pt x="283" y="-7" on="1"/>
      </contour>
    </TTGlyph>
    <TTGlyph name="F" xMin="46" yMin="-2" xMax="434" yMax="700">
      <contour>
        <pt x="46" y="-2" on="0"/>
        <pt x="48" y="23" on="1"/>
        <pt x="116" y="667" on="1"/>
        <pt x="118" y="685" on="0"/>
        <pt x="134" y="700" on="0"/>
        <pt x="150" y="700" on="1"/>
        <pt x="414" y="700" on="1"/>
        <pt x="425" y="700" on="0"/>
        <pt x="434" y="683" on="0"/>
        <pt x="432" y="664" on="1"/>
        <pt x="430" y="644" on="1"/>
        <pt x="426" y="608" on="0"/>
        <pt x="404" y="608" on="1"/>
        <pt x="219" y="608" on="1"/>
        <pt x="198" y="404" on="1"/>
        <pt x="368" y="404" on="1"/>
        <pt x="387" y="404" on="0"/>
        <pt x="387" y="379" on="1"/>
        <pt x="387" y="372" on="0"/>
        <pt x="386" y="368" on="1"/>
        <pt x="384" y="348" on="1"/>
        <pt x="381" y="312" on="0"/>
        <pt x="358" y="312" on="1"/>
        <pt x="188" y="312" on="1"/>
        <pt x="157" y="23" on="1"/>
        <pt x="155" y="-2" on="0"/>
        <pt x="111" y="-2" on="1"/>
        <pt x="89" y="-2" on="1"/>
      </contour>
    </TTGlyph>
    <TTGlyph name="G" xMin="51" yMin="-7" xMax="520" yMax="707">
      <contour>
        <pt x="270" y="611" on="0"/>
        <pt x="182" y="481" on="0"/>
        <pt x="168" y="352" on="1"/>
        <pt x="164" y="317" on="0"/>
        <pt x="164" y="277" on="1"/>
        <pt x="164" y="87" on="0"/>
        <pt x="289" y="87" on="1"/>
        <pt x="330" y="87" on="0"/>
        <pt x="365" y="97" on="1"/>
        <pt x="386" y="298" on="1"/>
        <pt x="311" y="298" on="1"/>
        <pt x="292" y="298" on="0"/>
        <pt x="292" y="321" on="1"/>
        <pt x="292" y="329" on="0"/>
        <pt x="293" y="334" on="1"/>
        <pt x="294" y="354" on="1"/>
        <pt x="296" y="373" on="0"/>
        <pt x="309" y="390" on="0"/>
        <pt x="321" y="390" on="1"/>
        <pt x="473" y="390" on="1"/>
        <pt x="489" y="390" on="0"/>
        <pt x="502" y="374" on="0"/>
        <pt x="500" y="357" on="1"/>
        <pt x="470" y="68" on="1"/>
        <pt x="466" y="31" on="0"/>
        <pt x="347" y="-7" on="0"/>
        <pt x="277" y="-7" on="1"/>
        <pt x="169" y="-7" on="0"/>
        <pt x="51" y="131" on="0"/>
        <pt x="51" y="269" on="1"/>
        <pt x="51" y="310" on="0"/>
        <pt x="55" y="346" on="1"/>
        <pt x="76" y="533" on="0"/>
        <pt x="218" y="707" on="0"/>
        <pt x="359" y="707" on="1"/>
        <pt x="398" y="707" on="0"/>
        <pt x="474" y="687" on="0"/>
        <pt x="520" y="656" on="0"/>
        <pt x="518" y="642" on="1"/>
        <pt x="516" y="626" on="0"/>
        <pt x="480" y="575" on="0"/>
        <pt x="468" y="575" on="1"/>
        <pt x="465" y="575" on="0"/>
        <pt x="431" y="595" on="0"/>
        <pt x="385" y="611" on="0"/>
        <pt x="352" y="611" on="1"/>
      </contour>
    </TTGlyph>
    <TTGlyph name="Gbreve" xMin="51" yMin="-7" xMax="518" yMax="892">
      <component glyphName="G" x="0" y="0" flags="0x0"/>
      <component glyphName="breve" x="188" y="177" flags="0x4"/>
    </TTGlyph>
    <TTGlyph name="Gcircumflex" xMin="51" yMin="-7" xMax="518" yMax="895">
      <component glyphName="G" x="0" y="0" flags="0x0"/>
      <component glyphName="circumflex" x="187" y="177" flags="0x4"/>
    </TTGlyph>
    <TTGlyph name="Gcommaaccent" xMin="51" yMin="-236" xMax="518" yMax="707">
      <component glyphName="G" x="0" y="0" flags="0x0"/>
      <component glyphName="uni0326" x="412" y="0" flags="0x0"/>
    </TTGlyph>
    <TTGlyph name="Gdotaccent" xMin="51" yMin="-7" xMax="518" yMax="879">
      <component glyphName="G" x="0" y="0" flags="0x0"/>
      <component glyphName="dotaccent" x="184" y="177" flags="0x4"/>
    </TTGlyph>
    <TTGlyph name="H" xMin="46" yMin="-2" xMax="575" yMax="702">
      <contour>
        <pt x="46" y="-2" on="0"/>
        <pt x="48" y="23" on="1"/>
        <pt x="117" y="677" on="1"/>
        <pt x="120" y="702" on="0"/>
        <pt x="163" y="702" on="1"/>
        <pt x="186" y="702" on="1"/>
        <pt x="229" y="702" on="0"/>
        <pt x="227" y="677" on="1"/>
        <pt x="198" y="405" on="1"/>
        <pt x="434" y="405" on="1"/>
        <pt x="463" y="677" on="1"/>
        <pt x="465" y="702" on="0"/>
        <pt x="509" y="702" on="1"/>
        <pt x="531" y="702" on="1"/>
        <pt x="575" y="702" on="0"/>
        <pt x="573" y="677" on="1"/>
        <pt x="503" y="23" on="1"/>
        <pt x="501" y="-2" on="0"/>
        <pt x="457" y="-2" on="1"/>
        <pt x="435" y="-2" on="1"/>
        <pt x="391" y="-2" on="0"/>
        <pt x="394" y="23" on="1"/>
        <pt x="424" y="312" on="1"/>
        <pt x="188" y="312" on="1"/>
        <pt x="157" y="23" on="1"/>
        <pt x="155" y="-2" on="0"/>
        <pt x="112" y="-2" on="1"/>
        <pt x="89" y="-2" on="1"/>
      </contour>
    </TTGlyph>
    <TTGlyph name="Hbar" xMin="4" yMin="-2" xMax="654" yMax="702">
      <contour>
        <pt x="654" y="565" on="0"/>
        <pt x="654" y="537" on="1"/>
        <pt x="654" y="519" on="0"/>
        <pt x="642" y="487" on="0"/>
        <pt x="625" y="487" on="1"/>
        <pt x="553" y="487" on="1"/>
        <pt x="503" y="23" on="1"/>
        <pt x="501" y="-2" on="0"/>
        <pt x="457" y="-2" on="1"/>
        <pt x="435" y="-2" on="1"/>
        <pt x="391" y="-2" on="0"/>
        <pt x="394" y="23" on="1"/>
        <pt x="424" y="312" on="1"/>
        <pt x="188" y="312" on="1"/>
        <pt x="157" y="23" on="1"/>
        <pt x="155" y="-2" on="0"/>
        <pt x="112" y="-2" on="1"/>
        <pt x="89" y="-2" on="1"/>
        <pt x="46" y="-2" on="0"/>
        <pt x="48" y="23" on="1"/>
        <pt x="97" y="487" on="1"/>
        <pt x="23" y="487" on="1"/>
        <pt x="12" y="487" on="0"/>
        <pt x="4" y="501" on="0"/>
        <pt x="4" y="515" on="1"/>
        <pt x="4" y="565" on="0"/>
        <pt x="32" y="565" on="1"/>
        <pt x="105" y="565" on="1"/>
        <pt x="117" y="677" on="1"/>
        <pt x="120" y="702" on="0"/>
        <pt x="163" y="702" on="1"/>
        <pt x="186" y="702" on="1"/>
        <pt x="229" y="702" on="0"/>
        <pt x="227" y="677" on="1"/>
        <pt x="215" y="565" on="1"/>
        <pt x="451" y="565" on="1"/>
        <pt x="463" y="677" on="1"/>
        <pt x="465" y="702" on="0"/>
        <pt x="509" y="702" on="1"/>
        <pt x="531" y="702" on="1"/>
        <pt x="575" y="702" on="0"/>
        <pt x="573" y="677" on="1"/>
        <pt x="561" y="565" on="1"/>
        <pt x="634" y="565" on="1"/>
      </contour>
      <contour>
        <pt x="434" y="405" on="1"/>
        <pt x="443" y="487" on="1"/>
        <pt x="207" y="487" on="1"/>
        <pt x="198" y="405" on="1"/>
      </contour>
    </TTGlyph>
    <TTGlyph name="Hcircumflex" xMin="48" yMin="-2" xMax="573" yMax="895">
      <component glyphName="H" x="0" y="0" flags="0x0"/>
      <component glyphName="circumflex" x="194" y="177" flags="0x4"/>
    </TTGlyph>
    <TTGlyph name="I" xMin="48" yMin="-2" xMax="232" yMax="702">
      <contour>
        <pt x="48" y="-2" on="0"/>
        <pt x="51" y="23" on="1"/>
        <pt x="120" y="677" on="1"/>
        <pt x="122" y="702" on="0"/>
        <pt x="166" y="702" on="1"/>
        <pt x="189" y="702" on="1"/>
        <pt x="232" y="702" on="0"/>
        <pt x="230" y="677" on="1"/>
        <pt x="160" y="23" on="1"/>
        <pt x="158" y="-2" on="0"/>
        <pt x="115" y="-2" on="1"/>
        <pt x="92" y="-2" on="1"/>
      </contour>
    </TTGlyph>
    <TTGlyph name="IJ" xMin="51" yMin="-7" xMax="580" yMax="702">
      <component glyphName="I" x="0" y="0" flags="0x0"/>
      <component glyphName="J" x="262" y="0" flags="0x0"/>
    </TTGlyph>
    <TTGlyph name="Iacute" xMin="51" yMin="-2" xMax="293" yMax="910">
      <component glyphName="I" x="0" y="0" flags="0x0"/>
      <component glyphName="acute" x="87" y="177" flags="0x4"/>
    </TTGlyph>
    <TTGlyph name="Iacute_J.loclNLD" xMin="51" yMin="-7" xMax="642" yMax="910">
      <component glyphName="I" x="0" y="0" flags="0x0"/>
      <component glyphName="acute" x="87" y="177" flags="0x4"/>
      <component glyphName="J" x="262" y="0" flags="0x0"/>
      <component glyphName="acute" x="436" y="177" flags="0x4"/>
    </TTGlyph>
    <TTGlyph name="Ibreve" xMin="51" yMin="-2" xMax="316" yMax="892">
      <component glyphName="I" x="0" y="0" flags="0x0"/>
      <component glyphName="breve" x="24" y="177" flags="0x4"/>
    </TTGlyph>
    <TTGlyph name="Icircumflex" xMin="51" yMin="-2" xMax="296" yMax="895">
      <component glyphName="I" x="0" y="0" flags="0x0"/>
      <component glyphName="circumflex" x="23" y="177" flags="0x4"/>
    </TTGlyph>
    <TTGlyph name="Idieresis" xMin="51" yMin="-2" xMax="306" yMax="879">
      <component glyphName="I" x="0" y="0" flags="0x0"/>
      <component glyphName="dieresis" x="21" y="177" flags="0x4"/>
    </TTGlyph>
    <TTGlyph name="Idotaccent" xMin="51" yMin="-2" xMax="245" yMax="879">
      <component glyphName="I" x="0" y="0" flags="0x0"/>
      <component glyphName="dotaccent" x="20" y="177" flags="0x4"/>
    </TTGlyph>
    <TTGlyph name="Igrave" xMin="51" yMin="-2" xMax="230" yMax="910">
      <component glyphName="I" x="0" y="0" flags="0x0"/>
      <component glyphName="grave" x="16" y="177" flags="0x4"/>
    </TTGlyph>
    <TTGlyph name="Imacron" xMin="51" yMin="-2" xMax="311" yMax="862">
      <component glyphName="I" x="0" y="0" flags="0x0"/>
      <component glyphName="macron" x="23" y="177" flags="0x4"/>
    </TTGlyph>
    <TTGlyph name="Iogonek" xMin="48" yMin="-175" xMax="242" yMax="702">
      <contour>
        <pt x="242" y="-104" on="0"/>
        <pt x="242" y="-130" on="1"/>
        <pt x="242" y="-149" on="0"/>
        <pt x="228" y="-158" on="1"/>
        <pt x="201" y="-175" on="0"/>
        <pt x="164" y="-175" on="1"/>
        <pt x="109" y="-175" on="0"/>
        <pt x="71" y="-117" on="0"/>
        <pt x="71" y="-85" on="1"/>
        <pt x="71" y="-43" on="0"/>
        <pt x="93" y="-2" on="1"/>
        <pt x="92" y="-2" on="1"/>
        <pt x="48" y="-2" on="0"/>
        <pt x="51" y="23" on="1"/>
        <pt x="120" y="677" on="1"/>
        <pt x="122" y="702" on="0"/>
        <pt x="166" y="702" on="1"/>
        <pt x="189" y="702" on="1"/>
        <pt x="232" y="702" on="0"/>
        <pt x="230" y="677" on="1"/>
        <pt x="160" y="23" on="1"/>
        <pt x="160" y="17" on="0"/>
        <pt x="157" y="12" on="1"/>
        <pt x="146" y="-9" on="0"/>
        <pt x="134" y="-51" on="0"/>
        <pt x="134" y="-67" on="1"/>
        <pt x="134" y="-92" on="0"/>
        <pt x="162" y="-110" on="0"/>
        <pt x="183" y="-110" on="1"/>
        <pt x="191" y="-110" on="0"/>
        <pt x="216" y="-104" on="0"/>
        <pt x="219" y="-104" on="1"/>
      </contour>
    </TTGlyph>
    <TTGlyph name="Itilde" xMin="42" yMin="-2" xMax="315" yMax="870">
      <contour>
        <pt x="55" y="769" on="1"/>
        <pt x="42" y="774" on="0"/>
        <pt x="42" y="785" on="1"/>
        <pt x="42" y="792" on="0"/>
        <pt x="45" y="799" on="1"/>
        <pt x="68" y="868" on="0"/>
        <pt x="121" y="868" on="1"/>
        <pt x="141" y="868" on="0"/>
        <pt x="183" y="848" on="1"/>
        <pt x="186" y="847" on="0"/>
        <pt x="221" y="831" on="0"/>
        <pt x="233" y="831" on="1"/>
        <pt x="250" y="831" on="0"/>
        <pt x="263" y="854" on="1"/>
        <pt x="273" y="870" on="0"/>
        <pt x="283" y="870" on="1"/>
        <pt x="288" y="870" on="0"/>
        <pt x="294" y="867" on="1"/>
        <pt x="300" y="864" on="1"/>
        <pt x="308" y="861" on="0"/>
        <pt x="315" y="854" on="0"/>
        <pt x="315" y="848" on="1"/>
        <pt x="315" y="844" on="0"/>
        <pt x="311" y="834" on="1"/>
        <pt x="287" y="765" on="0"/>
        <pt x="235" y="765" on="1"/>
        <pt x="214" y="765" on="0"/>
        <pt x="172" y="785" on="1"/>
        <pt x="136" y="802" on="0"/>
        <pt x="121" y="802" on="1"/>
        <pt x="113" y="802" on="0"/>
        <pt x="100" y="792" on="0"/>
        <pt x="92" y="778" on="1"/>
        <pt x="84" y="764" on="0"/>
        <pt x="74" y="764" on="1"/>
        <pt x="70" y="764" on="0"/>
        <pt x="64" y="766" on="1"/>
      </contour>
      <contour>
        <pt x="48" y="-2" on="0"/>
        <pt x="51" y="23" on="1"/>
        <pt x="120" y="677" on="1"/>
        <pt x="122" y="702" on="0"/>
        <pt x="166" y="702" on="1"/>
        <pt x="189" y="702" on="1"/>
        <pt x="232" y="702" on="0"/>
        <pt x="230" y="677" on="1"/>
        <pt x="160" y="23" on="1"/>
        <pt x="158" y="-2" on="0"/>
        <pt x="115" y="-2" on="1"/>
        <pt x="92" y="-2" on="1"/>
      </contour>
    </TTGlyph>
    <TTGlyph name="J" xMin="-26" yMin="-7" xMax="320" yMax="702">
      <contour>
        <pt x="34" y="-7" on="0"/>
        <pt x="-26" y="13" on="0"/>
        <pt x="-25" y="29" on="1"/>
        <pt x="-22" y="48" on="0"/>
        <pt x="0" y="95" on="0"/>
        <pt x="11" y="96" on="1"/>
        <pt x="14" y="96" on="0"/>
        <pt x="48" y="87" on="0"/>
        <pt x="64" y="87" on="1"/>
        <pt x="107" y="87" on="0"/>
        <pt x="151" y="143" on="0"/>
        <pt x="158" y="204" on="1"/>
        <pt x="208" y="677" on="1"/>
        <pt x="210" y="702" on="0"/>
        <pt x="253" y="702" on="1"/>
        <pt x="276" y="702" on="1"/>
        <pt x="320" y="702" on="0"/>
        <pt x="318" y="677" on="1"/>
        <pt x="268" y="204" on="1"/>
        <pt x="258" y="104" on="0"/>
        <pt x="160" y="-7" on="0"/>
        <pt x="69" y="-7" on="1"/>
      </contour>
    </TTGlyph>
    <TTGlyph name="Jcircumflex" xMin="-25" yMin="-7" xMax="383" yMax="895">
      <component glyphName="J" x="0" y="0" flags="0x0"/>
      <component glyphName="circumflex" x="110" y="177" flags="0x4"/>
    </TTGlyph>
    <TTGlyph name="K" xMin="46" yMin="-2" xMax="529" yMax="702">
      <contour>
        <pt x="46" y="-2" on="0"/>
        <pt x="48" y="23" on="1"/>
        <pt x="117" y="677" on="1"/>
        <pt x="120" y="702" on="0"/>
        <pt x="163" y="702" on="1"/>
        <pt x="184" y="702" on="1"/>
        <pt x="229" y="702" on="0"/>
        <pt x="227" y="677" on="1"/>
        <pt x="194" y="376" on="1"/>
        <pt x="198" y="376" on="1"/>
        <pt x="412" y="687" on="1"/>
        <pt x="418" y="696" on="0"/>
        <pt x="442" y="702" on="0"/>
        <pt x="461" y="702" on="1"/>
        <pt x="489" y="702" on="1"/>
        <pt x="529" y="702" on="0"/>
        <pt x="529" y="688" on="1"/>
        <pt x="528" y="681" on="0"/>
        <pt x="518" y="668" on="1"/>
        <pt x="296" y="352" on="1"/>
        <pt x="472" y="30" on="1"/>
        <pt x="478" y="19" on="0"/>
        <pt x="477" y="12" on="1"/>
        <pt x="476" y="5" on="0"/>
        <pt x="455" y="-2" on="0"/>
        <pt x="432" y="-2" on="1"/>
        <pt x="408" y="-2" on="1"/>
        <pt x="387" y="-2" on="0"/>
        <pt x="364" y="3" on="0"/>
        <pt x="359" y="13" on="1"/>
        <pt x="193" y="333" on="1"/>
        <pt x="189" y="333" on="1"/>
        <pt x="157" y="23" on="1"/>
        <pt x="155" y="-2" on="0"/>
        <pt x="110" y="-2" on="1"/>
        <pt x="89" y="-2" on="1"/>
      </contour>
    </TTGlyph>
    <TTGlyph name="Kcommaaccent" xMin="48" yMin="-236" xMax="529" yMax="702">
      <component glyphName="K" x="0" y="0" flags="0x0"/>
      <component glyphName="uni0326" x="362" y="0" flags="0x0"/>
    </TTGlyph>
    <TTGlyph name="L" xMin="47" yMin="0" xMax="377" yMax="702">
      <contour>
        <pt x="60" y="0" on="0"/>
        <pt x="47" y="15" on="0"/>
        <pt x="49" y="33" on="1"/>
        <pt x="117" y="677" on="1"/>
        <pt x="120" y="702" on="0"/>
        <pt x="163" y="702" on="1"/>
        <pt x="185" y="702" on="1"/>
        <pt x="229" y="702" on="0"/>
        <pt x="227" y="677" on="1"/>
        <pt x="165" y="92" on="1"/>
        <pt x="355" y="92" on="1"/>
        <pt x="367" y="92" on="0"/>
        <pt x="377" y="75" on="0"/>
        <pt x="375" y="56" on="1"/>
        <pt x="372" y="36" on="1"/>
        <pt x="371" y="17" on="0"/>
        <pt x="358" y="0" on="0"/>
        <pt x="346" y="0" on="1"/>
        <pt x="76" y="0" on="1"/>
      </contour>
    </TTGlyph>
    <TTGlyph name="Lacute" xMin="49" yMin="0" xMax="375" yMax="911">
      <component glyphName="L" x="0" y="0" flags="0x0"/>
      <component glyphName="acute" x="86" y="178" flags="0x4"/>
    </TTGlyph>
    <TTGlyph name="Lcaron" xMin="49" yMin="0" xMax="401" yMax="702">
      <component glyphName="L" x="0" y="0" flags="0x0"/>
      <component glyphName="caron.alt" x="218" y="0" flags="0x0"/>
    </TTGlyph>
    <TTGlyph name="Lcommaaccent" xMin="49" yMin="-236" xMax="375" yMax="702">
      <component glyphName="L" x="0" y="0" flags="0x0"/>
      <component glyphName="uni0326" x="334" y="0" flags="0x0"/>
    </TTGlyph>
    <TTGlyph name="Ldot" xMin="49" yMin="0" xMax="375" yMax="702">
      <component glyphName="L" x="0" y="0" flags="0x0"/>
      <component glyphName="periodcentered" x="188" y="0" flags="0x0"/>
    </TTGlyph>
    <TTGlyph name="Lslash" xMin="45" yMin="0" xMax="375" yMax="702">
      <contour>
        <pt x="365" y="92" on="0"/>
        <pt x="375" y="75" on="0"/>
        <pt x="373" y="56" on="1"/>
        <pt x="370" y="36" on="1"/>
        <pt x="369" y="17" on="0"/>
        <pt x="356" y="0" on="0"/>
        <pt x="344" y="0" on="1"/>
        <pt x="74" y="0" on="1"/>
        <pt x="58" y="0" on="0"/>
        <pt x="45" y="15" on="0"/>
        <pt x="47" y="33" on="1"/>
        <pt x="115" y="677" on="1"/>
        <pt x="118" y="702" on="0"/>
        <pt x="161" y="702" on="1"/>
        <pt x="183" y="702" on="1"/>
        <pt x="227" y="702" on="0"/>
        <pt x="225" y="677" on="1"/>
        <pt x="199" y="432" on="1"/>
        <pt x="202" y="429" on="0"/>
        <pt x="202" y="429" on="1"/>
        <pt x="202" y="425" on="0"/>
        <pt x="198" y="423" on="1"/>
        <pt x="163" y="92" on="1"/>
        <pt x="353" y="92" on="1"/>
      </contour>
      <contour>
        <pt x="202" y="428" on="1"/>
        <pt x="202" y="429" on="1"/>
        <pt x="202" y="430" on="1"/>
      </contour>
      <contour>
        <pt x="98" y="370" on="1"/>
        <pt x="98" y="371" on="1"/>
        <pt x="98" y="371" on="1"/>
      </contour>
    </TTGlyph>
    <TTGlyph name="M" xMin="39" yMin="-2" xMax="670" yMax="702">
      <contour>
        <pt x="318" y="234" on="0"/>
        <pt x="306" y="242" on="0"/>
        <pt x="302" y="251" on="1"/>
        <pt x="219" y="454" on="1"/>
        <pt x="213" y="468" on="0"/>
        <pt x="201" y="507" on="0"/>
        <pt x="198" y="516" on="1"/>
        <pt x="194" y="515" on="1"/>
        <pt x="195" y="487" on="1"/>
        <pt x="195" y="474" on="0"/>
        <pt x="193" y="448" on="1"/>
        <pt x="148" y="23" on="1"/>
        <pt x="145" y="-2" on="0"/>
        <pt x="101" y="-2" on="1"/>
        <pt x="83" y="-2" on="1"/>
        <pt x="39" y="-2" on="0"/>
        <pt x="42" y="23" on="1"/>
        <pt x="111" y="677" on="1"/>
        <pt x="113" y="702" on="0"/>
        <pt x="157" y="702" on="1"/>
        <pt x="181" y="702" on="1"/>
        <pt x="214" y="702" on="0"/>
        <pt x="223" y="681" on="1"/>
        <pt x="343" y="391" on="1"/>
        <pt x="351" y="371" on="0"/>
        <pt x="354" y="343" on="1"/>
        <pt x="362" y="369" on="0"/>
        <pt x="376" y="391" on="1"/>
        <pt x="555" y="681" on="1"/>
        <pt x="563" y="692" on="0"/>
        <pt x="585" y="702" on="0"/>
        <pt x="602" y="702" on="1"/>
        <pt x="626" y="702" on="1"/>
        <pt x="670" y="702" on="0"/>
        <pt x="667" y="677" on="1"/>
        <pt x="599" y="23" on="1"/>
        <pt x="596" y="-2" on="0"/>
        <pt x="552" y="-2" on="1"/>
        <pt x="533" y="-2" on="1"/>
        <pt x="490" y="-2" on="0"/>
        <pt x="493" y="23" on="1"/>
        <pt x="537" y="448" on="1"/>
        <pt x="539" y="474" on="0"/>
        <pt x="550" y="515" on="1"/>
        <pt x="546" y="516" on="1"/>
        <pt x="534" y="490" on="0"/>
        <pt x="512" y="454" on="1"/>
        <pt x="386" y="251" on="1"/>
        <pt x="381" y="242" on="0"/>
        <pt x="367" y="234" on="0"/>
        <pt x="357" y="234" on="1"/>
        <pt x="328" y="234" on="1"/>
      </contour>
    </TTGlyph>
    <TTGlyph name="N" xMin="39" yMin="-2" xMax="569" yMax="702">
      <contour>
        <pt x="39" y="-2" on="0"/>
        <pt x="42" y="23" on="1"/>
        <pt x="111" y="677" on="1"/>
        <pt x="113" y="702" on="0"/>
        <pt x="157" y="702" on="1"/>
        <pt x="181" y="702" on="1"/>
        <pt x="197" y="702" on="0"/>
        <pt x="217" y="692" on="0"/>
        <pt x="222" y="680" on="1"/>
        <pt x="393" y="258" on="1"/>
        <pt x="405" y="227" on="0"/>
        <pt x="415" y="191" on="1"/>
        <pt x="420" y="193" on="1"/>
        <pt x="418" y="206" on="0"/>
        <pt x="418" y="231" on="1"/>
        <pt x="418" y="252" on="0"/>
        <pt x="419" y="262" on="1"/>
        <pt x="464" y="677" on="1"/>
        <pt x="466" y="702" on="0"/>
        <pt x="510" y="702" on="1"/>
        <pt x="525" y="702" on="1"/>
        <pt x="569" y="702" on="0"/>
        <pt x="567" y="677" on="1"/>
        <pt x="498" y="23" on="1"/>
        <pt x="495" y="-2" on="0"/>
        <pt x="451" y="-2" on="1"/>
        <pt x="433" y="-2" on="1"/>
        <pt x="402" y="-2" on="0"/>
        <pt x="394" y="17" on="1"/>
        <pt x="214" y="453" on="1"/>
        <pt x="204" y="479" on="0"/>
        <pt x="195" y="517" on="1"/>
        <pt x="190" y="514" on="1"/>
        <pt x="192" y="502" on="0"/>
        <pt x="192" y="478" on="1"/>
        <pt x="192" y="458" on="0"/>
        <pt x="191" y="448" on="1"/>
        <pt x="145" y="23" on="1"/>
        <pt x="143" y="-2" on="0"/>
        <pt x="98" y="-2" on="1"/>
        <pt x="83" y="-2" on="1"/>
      </contour>
    </TTGlyph>
    <TTGlyph name="Nacute" xMin="42" yMin="-2" xMax="567" yMax="910">
      <component glyphName="N" x="0" y="0" flags="0x0"/>
      <component glyphName="acute" x="249" y="177" flags="0x4"/>
    </TTGlyph>
    <TTGlyph name="Nacute.loclPLK" xMin="42" yMin="-2" xMax="567" yMax="910">
      <component glyphName="N" x="0" y="0" flags="0x0"/>
      <component glyphName="acute.loclPLK" x="249" y="177" flags="0x4"/>
    </TTGlyph>
    <TTGlyph name="Ncaron" xMin="42" yMin="-2" xMax="567" yMax="900">
      <component glyphName="N" x="0" y="0" flags="0x0"/>
      <component glyphName="caron" x="187" y="177" flags="0x4"/>
    </TTGlyph>
    <TTGlyph name="Ncommaaccent" xMin="42" yMin="-236" xMax="567" yMax="702">
      <component glyphName="N" x="0" y="0" flags="0x0"/>
      <component glyphName="uni0326" x="396" y="0" flags="0x0"/>
    </TTGlyph>
    <TTGlyph name="Ntilde" xMin="42" yMin="-2" xMax="567" yMax="870">
      <component glyphName="N" x="0" y="0" flags="0x0"/>
      <component glyphName="tilde" x="190" y="177" flags="0x4"/>
    </TTGlyph>
    <TTGlyph name="O" xMin="52" yMin="-7" xMax="567" yMax="707">
      <contour>
        <pt x="169" y="-7" on="0"/>
        <pt x="52" y="134" on="0"/>
        <pt x="52" y="273" on="1"/>
        <pt x="52" y="314" on="0"/>
        <pt x="56" y="351" on="1"/>
        <pt x="75" y="533" on="0"/>
        <pt x="220" y="707" on="0"/>
        <pt x="346" y="707" on="1"/>
        <pt x="450" y="707" on="0"/>
        <pt x="567" y="568" on="0"/>
        <pt x="567" y="429" on="1"/>
        <pt x="567" y="388" on="0"/>
        <pt x="563" y="351" on="1"/>
        <pt x="526" y="-7" on="0"/>
        <pt x="272" y="-7" on="1"/>
      </contour>
      <contour>
        <pt x="353" y="85" on="0"/>
        <pt x="437" y="212" on="0"/>
        <pt x="452" y="351" on="1"/>
        <pt x="457" y="401" on="0"/>
        <pt x="457" y="433" on="1"/>
        <pt x="457" y="528" on="0"/>
        <pt x="397" y="614" on="0"/>
        <pt x="338" y="614" on="1"/>
        <pt x="266" y="614" on="0"/>
        <pt x="182" y="490" on="0"/>
        <pt x="168" y="351" on="1"/>
        <pt x="163" y="299" on="0"/>
        <pt x="163" y="266" on="1"/>
        <pt x="163" y="172" on="0"/>
        <pt x="222" y="85" on="0"/>
        <pt x="282" y="85" on="1"/>
      </contour>
    </TTGlyph>
    <TTGlyph name="OE" xMin="52" yMin="-7" xMax="830" yMax="707">
      <contour>
        <pt x="830" y="700" on="0"/>
        <pt x="827" y="664" on="1"/>
        <pt x="824" y="644" on="1"/>
        <pt x="823" y="625" on="0"/>
        <pt x="810" y="608" on="0"/>
        <pt x="798" y="608" on="1"/>
        <pt x="583" y="608" on="1"/>
        <pt x="562" y="404" on="1"/>
        <pt x="755" y="404" on="1"/>
        <pt x="774" y="404" on="0"/>
        <pt x="774" y="379" on="1"/>
        <pt x="774" y="372" on="0"/>
        <pt x="773" y="368" on="1"/>
        <pt x="771" y="348" on="1"/>
        <pt x="768" y="312" on="0"/>
        <pt x="745" y="312" on="1"/>
        <pt x="552" y="312" on="1"/>
        <pt x="529" y="92" on="1"/>
        <pt x="744" y="92" on="1"/>
        <pt x="763" y="92" on="0"/>
        <pt x="763" y="68" on="1"/>
        <pt x="763" y="61" on="0"/>
        <pt x="762" y="56" on="1"/>
        <pt x="760" y="36" on="1"/>
        <pt x="757" y="0" on="0"/>
        <pt x="735" y="0" on="1"/>
        <pt x="440" y="0" on="1"/>
        <pt x="424" y="0" on="0"/>
        <pt x="411" y="15" on="0"/>
        <pt x="413" y="33" on="1"/>
        <pt x="415" y="48" on="1"/>
        <pt x="351" y="-7" on="0"/>
        <pt x="265" y="-7" on="1"/>
        <pt x="166" y="-7" on="0"/>
        <pt x="52" y="134" on="0"/>
        <pt x="52" y="272" on="1"/>
        <pt x="52" y="314" on="0"/>
        <pt x="56" y="351" on="1"/>
        <pt x="94" y="707" on="0"/>
        <pt x="338" y="707" on="1"/>
        <pt x="431" y="707" on="0"/>
        <pt x="478" y="644" on="1"/>
        <pt x="480" y="667" on="1"/>
        <pt x="482" y="685" on="0"/>
        <pt x="498" y="700" on="0"/>
        <pt x="514" y="700" on="1"/>
        <pt x="808" y="700" on="1"/>
      </contour>
      <contour>
        <pt x="457" y="401" on="0"/>
        <pt x="457" y="433" on="1"/>
        <pt x="457" y="528" on="0"/>
        <pt x="397" y="614" on="0"/>
        <pt x="338" y="614" on="1"/>
        <pt x="266" y="614" on="0"/>
        <pt x="182" y="490" on="0"/>
        <pt x="168" y="351" on="1"/>
        <pt x="163" y="299" on="0"/>
        <pt x="163" y="266" on="1"/>
        <pt x="163" y="172" on="0"/>
        <pt x="222" y="85" on="0"/>
        <pt x="282" y="85" on="1"/>
        <pt x="353" y="85" on="0"/>
        <pt x="437" y="212" on="0"/>
        <pt x="452" y="351" on="1"/>
      </contour>
    </TTGlyph>
    <TTGlyph name="Oacute" xMin="52" yMin="-7" xMax="567" yMax="910">
      <component glyphName="O" x="0" y="0" flags="0x0"/>
      <component glyphName="acute" x="257" y="177" flags="0x4"/>
    </TTGlyph>
    <TTGlyph name="Oacute.loclPLK" xMin="52" yMin="-7" xMax="567" yMax="910">
      <component glyphName="O" x="0" y="0" flags="0x0"/>
      <component glyphName="acute.loclPLK" x="257" y="177" flags="0x4"/>
    </TTGlyph>
    <TTGlyph name="Obreve" xMin="52" yMin="-7" xMax="567" yMax="892">
      <component glyphName="O" x="0" y="0" flags="0x0"/>
      <component glyphName="breve" x="194" y="177" flags="0x4"/>
    </TTGlyph>
    <TTGlyph name="Ocircumflex" xMin="52" yMin="-7" xMax="567" yMax="895">
      <component glyphName="O" x="0" y="0" flags="0x0"/>
      <component glyphName="circumflex" x="193" y="177" flags="0x4"/>
    </TTGlyph>
    <TTGlyph name="Odieresis" xMin="52" yMin="-7" xMax="567" yMax="879">
      <component glyphName="O" x="0" y="0" flags="0x0"/>
      <component glyphName="dieresis" x="191" y="177" flags="0x4"/>
    </TTGlyph>
    <TTGlyph name="Ograve" xMin="52" yMin="-7" xMax="567" yMax="910">
      <component glyphName="O" x="0" y="0" flags="0x0"/>
      <component glyphName="grave" x="186" y="177" flags="0x4"/>
    </TTGlyph>
    <TTGlyph name="Ohorn" xMin="52" yMin="-7" xMax="620" yMax="787">
      <contour>
        <pt x="620" y="670" on="0"/>
        <pt x="571" y="621" on="0"/>
        <pt x="522" y="619" on="1"/>
        <pt x="567" y="549" on="0"/>
        <pt x="567" y="430" on="1"/>
        <pt x="567" y="388" on="0"/>
        <pt x="563" y="351" on="1"/>
        <pt x="526" y="-7" on="0"/>
        <pt x="272" y="-7" on="1"/>
        <pt x="169" y="-7" on="0"/>
        <pt x="52" y="134" on="0"/>
        <pt x="52" y="273" on="1"/>
        <pt x="52" y="314" on="0"/>
        <pt x="56" y="351" on="1"/>
        <pt x="93" y="707" on="0"/>
        <pt x="345" y="707" on="1"/>
        <pt x="385" y="707" on="0"/>
        <pt x="446" y="687" on="0"/>
        <pt x="474" y="669" on="1"/>
        <pt x="499" y="654" on="0"/>
        <pt x="518" y="654" on="1"/>
        <pt x="534" y="654" on="0"/>
        <pt x="554" y="672" on="0"/>
        <pt x="554" y="688" on="1"/>
        <pt x="554" y="700" on="0"/>
        <pt x="544" y="719" on="0"/>
        <pt x="527" y="743" on="0"/>
        <pt x="527" y="748" on="1"/>
        <pt x="527" y="759" on="0"/>
        <pt x="536" y="765" on="1"/>
        <pt x="563" y="783" on="1"/>
        <pt x="568" y="787" on="0"/>
        <pt x="576" y="787" on="1"/>
        <pt x="593" y="787" on="0"/>
        <pt x="620" y="735" on="0"/>
        <pt x="620" y="711" on="1"/>
      </contour>
      <contour>
        <pt x="457" y="401" on="0"/>
        <pt x="457" y="433" on="1"/>
        <pt x="457" y="528" on="0"/>
        <pt x="397" y="614" on="0"/>
        <pt x="338" y="614" on="1"/>
        <pt x="266" y="614" on="0"/>
        <pt x="182" y="490" on="0"/>
        <pt x="168" y="351" on="1"/>
        <pt x="163" y="299" on="0"/>
        <pt x="163" y="266" on="1"/>
        <pt x="163" y="172" on="0"/>
        <pt x="222" y="85" on="0"/>
        <pt x="282" y="85" on="1"/>
        <pt x="353" y="85" on="0"/>
        <pt x="437" y="212" on="0"/>
        <pt x="452" y="351" on="1"/>
      </contour>
    </TTGlyph>
    <TTGlyph name="Ohungarumlaut" xMin="52" yMin="-7" xMax="567" yMax="910">
      <component glyphName="O" x="0" y="0" flags="0x0"/>
      <component glyphName="hungarumlaut" x="238" y="177" flags="0x4"/>
    </TTGlyph>
    <TTGlyph name="Omacron" xMin="52" yMin="-7" xMax="567" yMax="862">
      <component glyphName="O" x="0" y="0" flags="0x0"/>
      <component glyphName="macron" x="193" y="177" flags="0x4"/>
    </TTGlyph>
    <TTGlyph name="Oslash" xMin="52" yMin="-19" xMax="567" yMax="720">
      <contour>
        <pt x="567" y="561" on="0"/>
        <pt x="567" y="430" on="1"/>
        <pt x="567" y="388" on="0"/>
        <pt x="563" y="351" on="1"/>
        <pt x="526" y="-7" on="0"/>
        <pt x="272" y="-7" on="1"/>
        <pt x="190" y="-7" on="0"/>
        <pt x="137" y="37" on="1"/>
        <pt x="110" y="-6" on="1"/>
        <pt x="104" y="-19" on="0"/>
        <pt x="93" y="-19" on="1"/>
        <pt x="84" y="-19" on="0"/>
        <pt x="62" y="-3" on="0"/>
        <pt x="62" y="6" on="1"/>
        <pt x="62" y="15" on="0"/>
        <pt x="67" y="21" on="1"/>
        <pt x="101" y="75" on="1"/>
        <pt x="52" y="145" on="0"/>
        <pt x="52" y="272" on="1"/>
        <pt x="52" y="314" on="0"/>
        <pt x="56" y="351" on="1"/>
        <pt x="75" y="533" on="0"/>
        <pt x="220" y="707" on="0"/>
        <pt x="346" y="707" on="1"/>
        <pt x="422" y="707" on="0"/>
        <pt x="474" y="670" on="1"/>
        <pt x="498" y="708" on="1"/>
        <pt x="506" y="720" on="0"/>
        <pt x="515" y="720" on="1"/>
        <pt x="525" y="720" on="0"/>
        <pt x="547" y="704" on="0"/>
        <pt x="547" y="695" on="1"/>
        <pt x="547" y="689" on="0"/>
        <pt x="542" y="681" on="1"/>
        <pt x="512" y="633" on="1"/>
      </contour>
      <contour>
        <pt x="163" y="298" on="0"/>
        <pt x="163" y="266" on="1"/>
        <pt x="163" y="226" on="0"/>
        <pt x="170" y="186" on="1"/>
        <pt x="419" y="582" on="1"/>
        <pt x="390" y="614" on="0"/>
        <pt x="338" y="614" on="1"/>
        <pt x="266" y="614" on="0"/>
        <pt x="182" y="490" on="0"/>
        <pt x="168" y="351" on="1"/>
      </contour>
      <contour>
        <pt x="457" y="403" on="0"/>
        <pt x="457" y="434" on="1"/>
        <pt x="457" y="489" on="0"/>
        <pt x="446" y="528" on="1"/>
        <pt x="194" y="127" on="1"/>
        <pt x="223" y="85" on="0"/>
        <pt x="282" y="85" on="1"/>
        <pt x="353" y="85" on="0"/>
        <pt x="437" y="212" on="0"/>
        <pt x="452" y="351" on="1"/>
      </contour>
    </TTGlyph>
    <TTGlyph name="Oslashacute" xMin="52" yMin="-19" xMax="567" yMax="910">
      <component glyphName="Oslash" x="0" y="0" flags="0x0"/>
      <component glyphName="acute" x="253" y="177" flags="0x4"/>
    </TTGlyph>
    <TTGlyph name="Otilde" xMin="52" yMin="-7" xMax="567" yMax="870">
      <component glyphName="O" x="0" y="0" flags="0x0"/>
      <component glyphName="tilde" x="198" y="177" flags="0x4"/>
    </TTGlyph>
    <TTGlyph name="P" xMin="46" yMin="-2" xMax="485" yMax="700">
      <contour>
        <pt x="46" y="-2" on="0"/>
        <pt x="48" y="23" on="1"/>
        <pt x="116" y="667" on="1"/>
        <pt x="118" y="684" on="0"/>
        <pt x="134" y="700" on="0"/>
        <pt x="150" y="700" on="1"/>
        <pt x="318" y="700" on="1"/>
        <pt x="384" y="700" on="0"/>
        <pt x="485" y="629" on="0"/>
        <pt x="485" y="534" on="1"/>
        <pt x="485" y="523" on="0"/>
        <pt x="483" y="497" on="1"/>
        <pt x="474" y="413" on="0"/>
        <pt x="400" y="320" on="0"/>
        <pt x="315" y="288" on="0"/>
        <pt x="283" y="288" on="1"/>
        <pt x="185" y="288" on="1"/>
        <pt x="157" y="23" on="1"/>
        <pt x="154" y="-2" on="0"/>
        <pt x="110" y="-2" on="1"/>
        <pt x="90" y="-2" on="1"/>
      </contour>
      <contour>
        <pt x="284" y="379" on="1"/>
        <pt x="314" y="379" on="0"/>
        <pt x="367" y="431" on="0"/>
        <pt x="374" y="497" on="1"/>
        <pt x="375" y="506" on="0"/>
        <pt x="375" y="521" on="1"/>
        <pt x="375" y="569" on="0"/>
        <pt x="333" y="608" on="0"/>
        <pt x="303" y="608" on="1"/>
        <pt x="218" y="608" on="1"/>
        <pt x="194" y="379" on="1"/>
      </contour>
    </TTGlyph>
    <TTGlyph name="Q" xMin="50" yMin="-166" xMax="566" yMax="707">
      <contour>
        <pt x="479" y="-166" on="0"/>
        <pt x="218" y="-21" on="0"/>
        <pt x="163" y="14" on="1"/>
        <pt x="107" y="49" on="0"/>
        <pt x="50" y="172" on="0"/>
        <pt x="50" y="266" on="1"/>
        <pt x="50" y="300" on="0"/>
        <pt x="55" y="350" on="1"/>
        <pt x="74" y="534" on="0"/>
        <pt x="214" y="707" on="0"/>
        <pt x="345" y="707" on="1"/>
        <pt x="452" y="707" on="0"/>
        <pt x="566" y="569" on="0"/>
        <pt x="566" y="430" on="1"/>
        <pt x="566" y="389" on="0"/>
        <pt x="562" y="350" on="1"/>
        <pt x="530" y="70" on="0"/>
        <pt x="359" y="12" on="1"/>
        <pt x="358" y="9" on="1"/>
        <pt x="541" y="-75" on="1"/>
        <pt x="552" y="-81" on="0"/>
        <pt x="551" y="-91" on="1"/>
        <pt x="549" y="-99" on="0"/>
        <pt x="528" y="-136" on="0"/>
        <pt x="500" y="-166" on="0"/>
        <pt x="489" y="-166" on="1"/>
      </contour>
      <contour>
        <pt x="351" y="84" on="0"/>
        <pt x="436" y="212" on="0"/>
        <pt x="451" y="350" on="1"/>
        <pt x="455" y="390" on="0"/>
        <pt x="455" y="431" on="1"/>
        <pt x="455" y="526" on="0"/>
        <pt x="396" y="614" on="0"/>
        <pt x="337" y="614" on="1"/>
        <pt x="265" y="614" on="0"/>
        <pt x="181" y="488" on="0"/>
        <pt x="167" y="350" on="1"/>
        <pt x="162" y="310" on="0"/>
        <pt x="162" y="263" on="1"/>
        <pt x="162" y="170" on="0"/>
        <pt x="222" y="84" on="0"/>
        <pt x="281" y="84" on="1"/>
      </contour>
    </TTGlyph>
    <TTGlyph name="R" xMin="42" yMin="-2" xMax="480" yMax="700">
      <contour>
        <pt x="42" y="-2" on="0"/>
        <pt x="44" y="23" on="1"/>
        <pt x="113" y="667" on="1"/>
        <pt x="115" y="684" on="0"/>
        <pt x="131" y="700" on="0"/>
        <pt x="147" y="700" on="1"/>
        <pt x="300" y="700" on="1"/>
        <pt x="389" y="700" on="0"/>
        <pt x="480" y="630" on="0"/>
        <pt x="480" y="552" on="1"/>
        <pt x="480" y="541" on="0"/>
        <pt x="478" y="517" on="1"/>
        <pt x="466" y="397" on="0"/>
        <pt x="368" y="348" on="1"/>
        <pt x="367" y="344" on="1"/>
        <pt x="387" y="333" on="0"/>
        <pt x="413" y="274" on="0"/>
        <pt x="423" y="226" on="1"/>
        <pt x="464" y="31" on="1"/>
        <pt x="466" y="25" on="0"/>
        <pt x="466" y="17" on="1"/>
        <pt x="464" y="-2" on="0"/>
        <pt x="419" y="-2" on="1"/>
        <pt x="396" y="-2" on="1"/>
        <pt x="379" y="-2" on="0"/>
        <pt x="356" y="8" on="0"/>
        <pt x="355" y="17" on="1"/>
        <pt x="317" y="212" on="1"/>
        <pt x="306" y="259" on="0"/>
        <pt x="272" y="293" on="0"/>
        <pt x="233" y="293" on="1"/>
        <pt x="182" y="293" on="1"/>
        <pt x="153" y="23" on="1"/>
        <pt x="151" y="-2" on="0"/>
        <pt x="106" y="-2" on="1"/>
        <pt x="86" y="-2" on="1"/>
      </contour>
      <contour>
        <pt x="279" y="389" on="1"/>
        <pt x="302" y="389" on="0"/>
        <pt x="344" y="425" on="0"/>
        <pt x="369" y="487" on="0"/>
        <pt x="369" y="524" on="1"/>
        <pt x="369" y="608" on="0"/>
        <pt x="297" y="608" on="1"/>
        <pt x="214" y="608" on="1"/>
        <pt x="191" y="389" on="1"/>
      </contour>
    </TTGlyph>
    <TTGlyph name="Racute" xMin="44" yMin="-2" xMax="480" yMax="910">
      <component glyphName="R" x="0" y="0" flags="0x0"/>
      <component glyphName="acute" x="209" y="177" flags="0x4"/>
    </TTGlyph>
    <TTGlyph name="Rcaron" xMin="44" yMin="-2" xMax="480" yMax="900">
      <component glyphName="R" x="0" y="0" flags="0x0"/>
      <component glyphName="caron" x="147" y="177" flags="0x4"/>
    </TTGlyph>
    <TTGlyph name="Rcommaaccent" xMin="44" yMin="-236" xMax="480" yMax="700">
      <component glyphName="R" x="0" y="0" flags="0x0"/>
      <component glyphName="uni0326" x="358" y="0" flags="0x0"/>
    </TTGlyph>
    <TTGlyph name="S" xMin="8" yMin="-6" xMax="423" yMax="710">
      <contour>
        <pt x="134" y="-6" on="0"/>
        <pt x="62" y="10" on="0"/>
        <pt x="33" y="30" on="1"/>
        <pt x="21" y="36" on="0"/>
        <pt x="8" y="50" on="0"/>
        <pt x="8" y="62" on="1"/>
        <pt x="8" y="83" on="0"/>
        <pt x="27" y="129" on="0"/>
        <pt x="39" y="129" on="1"/>
        <pt x="45" y="129" on="0"/>
        <pt x="53" y="123" on="1"/>
        <pt x="104" y="88" on="0"/>
        <pt x="176" y="88" on="1"/>
        <pt x="227" y="88" on="0"/>
        <pt x="291" y="139" on="0"/>
        <pt x="291" y="193" on="1"/>
        <pt x="291" y="232" on="0"/>
        <pt x="244" y="285" on="0"/>
        <pt x="200" y="311" on="1"/>
        <pt x="134" y="351" on="0"/>
        <pt x="63" y="436" on="0"/>
        <pt x="63" y="501" on="1"/>
        <pt x="63" y="564" on="0"/>
        <pt x="115" y="658" on="0"/>
        <pt x="209" y="710" on="0"/>
        <pt x="271" y="710" on="1"/>
        <pt x="310" y="710" on="0"/>
        <pt x="389" y="695" on="0"/>
        <pt x="412" y="681" on="1"/>
        <pt x="423" y="674" on="0"/>
        <pt x="423" y="663" on="1"/>
        <pt x="423" y="647" on="0"/>
        <pt x="401" y="592" on="0"/>
        <pt x="389" y="592" on="1"/>
        <pt x="386" y="592" on="0"/>
        <pt x="371" y="597" on="1"/>
        <pt x="325" y="617" on="0"/>
        <pt x="283" y="617" on="1"/>
        <pt x="234" y="617" on="0"/>
        <pt x="170" y="568" on="0"/>
        <pt x="170" y="520" on="1"/>
        <pt x="170" y="481" on="0"/>
        <pt x="219" y="426" on="0"/>
        <pt x="269" y="397" on="1"/>
        <pt x="332" y="360" on="0"/>
        <pt x="400" y="278" on="0"/>
        <pt x="400" y="214" on="1"/>
        <pt x="400" y="111" on="0"/>
        <pt x="283" y="-6" on="0"/>
        <pt x="180" y="-6" on="1"/>
      </contour>
    </TTGlyph>
    <TTGlyph name="Sacute" xMin="8" yMin="-6" xMax="423" yMax="910">
      <component glyphName="S" x="0" y="0" flags="0x0"/>
      <component glyphName="acute" x="184" y="177" flags="0x4"/>
    </TTGlyph>
    <TTGlyph name="Sacute.loclPLK" xMin="8" yMin="-6" xMax="423" yMax="910">
      <component glyphName="S" x="0" y="0" flags="0x0"/>
      <component glyphName="acute.loclPLK" x="184" y="177" flags="0x4"/>
    </TTGlyph>
    <TTGlyph name="Scaron" xMin="8" yMin="-6" xMax="423" yMax="900">
      <component glyphName="S" x="0" y="0" flags="0x0"/>
      <component glyphName="caron" x="122" y="177" flags="0x4"/>
    </TTGlyph>
    <TTGlyph name="Scedilla" xMin="8" yMin="-211" xMax="423" yMax="710">
      <contour>
        <pt x="332" y="360" on="0"/>
        <pt x="400" y="278" on="0"/>
        <pt x="400" y="214" on="1"/>
        <pt x="400" y="117" on="0"/>
        <pt x="297" y="2" on="0"/>
        <pt x="205" y="-5" on="1"/>
        <pt x="190" y="-56" on="1"/>
        <pt x="218" y="-58" on="0"/>
        <pt x="261" y="-90" on="0"/>
        <pt x="261" y="-126" on="1"/>
        <pt x="261" y="-171" on="0"/>
        <pt x="207" y="-211" on="0"/>
        <pt x="163" y="-211" on="1"/>
        <pt x="128" y="-211" on="0"/>
        <pt x="65" y="-184" on="0"/>
        <pt x="65" y="-165" on="1"/>
        <pt x="65" y="-154" on="0"/>
        <pt x="81" y="-134" on="0"/>
        <pt x="88" y="-134" on="1"/>
        <pt x="94" y="-134" on="0"/>
        <pt x="112" y="-142" on="1"/>
        <pt x="138" y="-155" on="0"/>
        <pt x="156" y="-155" on="1"/>
        <pt x="168" y="-155" on="0"/>
        <pt x="187" y="-142" on="0"/>
        <pt x="187" y="-129" on="1"/>
        <pt x="187" y="-116" on="0"/>
        <pt x="172" y="-104" on="0"/>
        <pt x="157" y="-99" on="1"/>
        <pt x="145" y="-94" on="0"/>
        <pt x="135" y="-86" on="0"/>
        <pt x="135" y="-79" on="1"/>
        <pt x="135" y="-73" on="0"/>
        <pt x="145" y="-39" on="0"/>
        <pt x="156" y="-6" on="1"/>
        <pt x="79" y="-3" on="0"/>
        <pt x="33" y="30" on="1"/>
        <pt x="21" y="36" on="0"/>
        <pt x="8" y="50" on="0"/>
        <pt x="8" y="62" on="1"/>
        <pt x="8" y="83" on="0"/>
        <pt x="27" y="129" on="0"/>
        <pt x="39" y="129" on="1"/>
        <pt x="45" y="129" on="0"/>
        <pt x="53" y="123" on="1"/>
        <pt x="104" y="88" on="0"/>
        <pt x="176" y="88" on="1"/>
        <pt x="227" y="88" on="0"/>
        <pt x="291" y="139" on="0"/>
        <pt x="291" y="193" on="1"/>
        <pt x="291" y="232" on="0"/>
        <pt x="244" y="285" on="0"/>
        <pt x="200" y="311" on="1"/>
        <pt x="134" y="351" on="0"/>
        <pt x="63" y="436" on="0"/>
        <pt x="63" y="501" on="1"/>
        <pt x="63" y="564" on="0"/>
        <pt x="115" y="658" on="0"/>
        <pt x="209" y="710" on="0"/>
        <pt x="271" y="710" on="1"/>
        <pt x="310" y="710" on="0"/>
        <pt x="389" y="695" on="0"/>
        <pt x="412" y="681" on="1"/>
        <pt x="423" y="674" on="0"/>
        <pt x="423" y="663" on="1"/>
        <pt x="423" y="647" on="0"/>
        <pt x="401" y="592" on="0"/>
        <pt x="389" y="592" on="1"/>
        <pt x="386" y="592" on="0"/>
        <pt x="371" y="597" on="1"/>
        <pt x="325" y="617" on="0"/>
        <pt x="283" y="617" on="1"/>
        <pt x="234" y="617" on="0"/>
        <pt x="170" y="568" on="0"/>
        <pt x="170" y="520" on="1"/>
        <pt x="170" y="481" on="0"/>
        <pt x="219" y="426" on="0"/>
        <pt x="269" y="397" on="1"/>
      </contour>
    </TTGlyph>
    <TTGlyph name="Scircumflex" xMin="8" yMin="-6" xMax="423" yMax="895">
      <component glyphName="S" x="0" y="0" flags="0x0"/>
      <component glyphName="circumflex" x="120" y="177" flags="0x4"/>
    </TTGlyph>
    <TTGlyph name="Scommaaccent" xMin="8" yMin="-236" xMax="423" yMax="710">
      <component glyphName="S" x="0" y="0" flags="0x0"/>
      <component glyphName="uni0326" x="313" y="0" flags="0x0"/>
    </TTGlyph>
    <TTGlyph name="T" xMin="54" yMin="-2" xMax="481" yMax="700">
      <contour>
        <pt x="144" y="-2" on="0"/>
        <pt x="147" y="23" on="1"/>
        <pt x="209" y="608" on="1"/>
        <pt x="74" y="608" on="1"/>
        <pt x="63" y="608" on="0"/>
        <pt x="54" y="625" on="0"/>
        <pt x="56" y="644" on="1"/>
        <pt x="59" y="664" on="1"/>
        <pt x="62" y="700" on="0"/>
        <pt x="84" y="700" on="1"/>
        <pt x="461" y="700" on="1"/>
        <pt x="481" y="700" on="0"/>
        <pt x="481" y="675" on="1"/>
        <pt x="480" y="664" on="1"/>
        <pt x="478" y="644" on="1"/>
        <pt x="475" y="608" on="0"/>
        <pt x="451" y="608" on="1"/>
        <pt x="318" y="608" on="1"/>
        <pt x="256" y="23" on="1"/>
        <pt x="254" y="-2" on="0"/>
        <pt x="210" y="-2" on="1"/>
        <pt x="188" y="-2" on="1"/>
      </contour>
    </TTGlyph>
    <TTGlyph name="Tbar" xMin="27" yMin="-2" xMax="481" yMax="700">
      <contour>
        <pt x="481" y="700" on="0"/>
        <pt x="481" y="675" on="1"/>
        <pt x="480" y="664" on="1"/>
        <pt x="478" y="644" on="1"/>
        <pt x="475" y="608" on="0"/>
        <pt x="451" y="608" on="1"/>
        <pt x="318" y="608" on="1"/>
        <pt x="295" y="392" on="1"/>
        <pt x="418" y="392" on="1"/>
        <pt x="438" y="392" on="0"/>
        <pt x="438" y="364" on="1"/>
        <pt x="438" y="346" on="0"/>
        <pt x="426" y="314" on="0"/>
        <pt x="409" y="314" on="1"/>
        <pt x="287" y="314" on="1"/>
        <pt x="256" y="23" on="1"/>
        <pt x="254" y="-2" on="0"/>
        <pt x="210" y="-2" on="1"/>
        <pt x="188" y="-2" on="1"/>
        <pt x="144" y="-2" on="0"/>
        <pt x="147" y="23" on="1"/>
        <pt x="178" y="314" on="1"/>
        <pt x="46" y="314" on="1"/>
        <pt x="35" y="314" on="0"/>
        <pt x="27" y="328" on="0"/>
        <pt x="27" y="342" on="1"/>
        <pt x="27" y="392" on="0"/>
        <pt x="55" y="392" on="1"/>
        <pt x="186" y="392" on="1"/>
        <pt x="209" y="608" on="1"/>
        <pt x="74" y="608" on="1"/>
        <pt x="63" y="608" on="0"/>
        <pt x="54" y="625" on="0"/>
        <pt x="56" y="644" on="1"/>
        <pt x="59" y="664" on="1"/>
        <pt x="62" y="700" on="0"/>
        <pt x="84" y="700" on="1"/>
        <pt x="461" y="700" on="1"/>
      </contour>
    </TTGlyph>
    <TTGlyph name="Tcaron" xMin="56" yMin="-2" xMax="481" yMax="900">
      <component glyphName="T" x="0" y="0" flags="0x0"/>
      <component glyphName="caron" x="121" y="177" flags="0x4"/>
    </TTGlyph>
    <TTGlyph name="Thorn" xMin="40" yMin="-2" xMax="468" yMax="702">
      <contour>
        <pt x="40" y="-2" on="0"/>
        <pt x="43" y="23" on="1"/>
        <pt x="111" y="677" on="1"/>
        <pt x="114" y="702" on="0"/>
        <pt x="158" y="702" on="1"/>
        <pt x="179" y="702" on="1"/>
        <pt x="223" y="702" on="0"/>
        <pt x="221" y="677" on="1"/>
        <pt x="211" y="582" on="1"/>
        <pt x="299" y="582" on="1"/>
        <pt x="366" y="582" on="0"/>
        <pt x="468" y="512" on="0"/>
        <pt x="468" y="416" on="1"/>
        <pt x="468" y="406" on="0"/>
        <pt x="466" y="380" on="1"/>
        <pt x="457" y="296" on="0"/>
        <pt x="382" y="202" on="0"/>
        <pt x="297" y="170" on="0"/>
        <pt x="265" y="170" on="1"/>
        <pt x="167" y="170" on="1"/>
        <pt x="152" y="23" on="1"/>
        <pt x="149" y="-2" on="0"/>
        <pt x="105" y="-2" on="1"/>
        <pt x="84" y="-2" on="1"/>
      </contour>
      <contour>
        <pt x="266" y="261" on="1"/>
        <pt x="295" y="261" on="0"/>
        <pt x="349" y="314" on="0"/>
        <pt x="356" y="380" on="1"/>
        <pt x="357" y="388" on="0"/>
        <pt x="357" y="403" on="1"/>
        <pt x="357" y="451" on="0"/>
        <pt x="315" y="490" on="0"/>
        <pt x="284" y="490" on="1"/>
        <pt x="201" y="490" on="1"/>
        <pt x="177" y="261" on="1"/>
      </contour>
    </TTGlyph>
    <TTGlyph name="U" xMin="55" yMin="-7" xMax="566" yMax="702">
      <contour>
        <pt x="163" y="-7" on="0"/>
        <pt x="55" y="86" on="0"/>
        <pt x="55" y="170" on="1"/>
        <pt x="55" y="188" on="0"/>
        <pt x="56" y="198" on="1"/>
        <pt x="107" y="677" on="1"/>
        <pt x="109" y="702" on="0"/>
        <pt x="153" y="702" on="1"/>
        <pt x="174" y="702" on="1"/>
        <pt x="218" y="702" on="0"/>
        <pt x="216" y="677" on="1"/>
        <pt x="166" y="199" on="1"/>
        <pt x="165" y="185" on="1"/>
        <pt x="165" y="141" on="0"/>
        <pt x="224" y="85" on="0"/>
        <pt x="273" y="85" on="1"/>
        <pt x="326" y="85" on="0"/>
        <pt x="399" y="149" on="0"/>
        <pt x="405" y="199" on="1"/>
        <pt x="455" y="677" on="1"/>
        <pt x="457" y="702" on="0"/>
        <pt x="501" y="702" on="1"/>
        <pt x="522" y="702" on="1"/>
        <pt x="566" y="702" on="0"/>
        <pt x="564" y="677" on="1"/>
        <pt x="513" y="198" on="1"/>
        <pt x="503" y="101" on="0"/>
        <pt x="373" y="-7" on="0"/>
        <pt x="264" y="-7" on="1"/>
      </contour>
    </TTGlyph>
    <TTGlyph name="Uacute" xMin="55" yMin="-7" xMax="564" yMax="910">
      <component glyphName="U" x="0" y="0" flags="0x0"/>
      <component glyphName="acute" x="248" y="177" flags="0x4"/>
    </TTGlyph>
    <TTGlyph name="Ubreve" xMin="55" yMin="-7" xMax="564" yMax="892">
      <component glyphName="U" x="0" y="0" flags="0x0"/>
      <component glyphName="breve" x="185" y="177" flags="0x4"/>
    </TTGlyph>
    <TTGlyph name="Ucircumflex" xMin="55" yMin="-7" xMax="564" yMax="895">
      <component glyphName="U" x="0" y="0" flags="0x0"/>
      <component glyphName="circumflex" x="184" y="177" flags="0x4"/>
    </TTGlyph>
    <TTGlyph name="Udieresis" xMin="55" yMin="-7" xMax="564" yMax="879">
      <component glyphName="U" x="0" y="0" flags="0x0"/>
      <component glyphName="dieresis" x="182" y="177" flags="0x4"/>
    </TTGlyph>
    <TTGlyph name="Ugrave" xMin="55" yMin="-7" xMax="564" yMax="910">
      <component glyphName="U" x="0" y="0" flags="0x0"/>
      <component glyphName="grave" x="177" y="177" flags="0x4"/>
    </TTGlyph>
    <TTGlyph name="Uhorn" xMin="55" yMin="-7" xMax="646" yMax="834">
      <contour>
        <pt x="646" y="720" on="0"/>
        <pt x="605" y="673" on="0"/>
        <pt x="563" y="667" on="1"/>
        <pt x="513" y="198" on="1"/>
        <pt x="503" y="101" on="0"/>
        <pt x="373" y="-7" on="0"/>
        <pt x="264" y="-7" on="1"/>
        <pt x="163" y="-7" on="0"/>
        <pt x="55" y="86" on="0"/>
        <pt x="55" y="170" on="1"/>
        <pt x="55" y="188" on="0"/>
        <pt x="56" y="198" on="1"/>
        <pt x="107" y="677" on="1"/>
        <pt x="109" y="702" on="0"/>
        <pt x="153" y="702" on="1"/>
        <pt x="174" y="702" on="1"/>
        <pt x="218" y="702" on="0"/>
        <pt x="216" y="677" on="1"/>
        <pt x="166" y="199" on="1"/>
        <pt x="165" y="185" on="1"/>
        <pt x="165" y="141" on="0"/>
        <pt x="224" y="85" on="0"/>
        <pt x="273" y="85" on="1"/>
        <pt x="326" y="85" on="0"/>
        <pt x="399" y="149" on="0"/>
        <pt x="405" y="199" on="1"/>
        <pt x="455" y="677" on="1"/>
        <pt x="457" y="702" on="0"/>
        <pt x="501" y="702" on="1"/>
        <pt x="537" y="702" on="1"/>
        <pt x="559" y="702" on="0"/>
        <pt x="580" y="721" on="0"/>
        <pt x="580" y="735" on="1"/>
        <pt x="580" y="747" on="0"/>
        <pt x="570" y="766" on="0"/>
        <pt x="553" y="790" on="0"/>
        <pt x="553" y="795" on="1"/>
        <pt x="553" y="806" on="0"/>
        <pt x="562" y="812" on="1"/>
        <pt x="588" y="830" on="1"/>
        <pt x="595" y="834" on="0"/>
        <pt x="602" y="834" on="1"/>
        <pt x="619" y="834" on="0"/>
        <pt x="646" y="782" on="0"/>
        <pt x="646" y="757" on="1"/>
      </contour>
    </TTGlyph>
    <TTGlyph name="Uhungarumlaut" xMin="55" yMin="-7" xMax="564" yMax="910">
      <component glyphName="U" x="0" y="0" flags="0x0"/>
      <component glyphName="hungarumlaut" x="229" y="177" flags="0x4"/>
    </TTGlyph>
    <TTGlyph name="Umacron" xMin="55" yMin="-7" xMax="564" yMax="862">
      <component glyphName="U" x="0" y="0" flags="0x0"/>
      <component glyphName="macron" x="184" y="177" flags="0x4"/>
    </TTGlyph>
    <TTGlyph name="Uogonek" xMin="55" yMin="-164" xMax="566" yMax="702">
      <contour>
        <pt x="566" y="702" on="0"/>
        <pt x="564" y="677" on="1"/>
        <pt x="513" y="198" on="1"/>
        <pt x="507" y="136" on="0"/>
        <pt x="448" y="46" on="0"/>
        <pt x="398" y="21" on="1"/>
        <pt x="376" y="-20" on="0"/>
        <pt x="376" y="-56" on="1"/>
        <pt x="376" y="-81" on="0"/>
        <pt x="404" y="-99" on="0"/>
        <pt x="425" y="-99" on="1"/>
        <pt x="433" y="-99" on="0"/>
        <pt x="458" y="-93" on="0"/>
        <pt x="461" y="-93" on="1"/>
        <pt x="484" y="-93" on="0"/>
        <pt x="484" y="-119" on="1"/>
        <pt x="484" y="-138" on="0"/>
        <pt x="470" y="-147" on="1"/>
        <pt x="443" y="-164" on="0"/>
        <pt x="406" y="-164" on="1"/>
        <pt x="351" y="-164" on="0"/>
        <pt x="313" y="-106" on="0"/>
        <pt x="313" y="-74" on="1"/>
        <pt x="313" y="-38" on="0"/>
        <pt x="330" y="-1" on="1"/>
        <pt x="299" y="-7" on="0"/>
        <pt x="264" y="-7" on="1"/>
        <pt x="163" y="-7" on="0"/>
        <pt x="55" y="86" on="0"/>
        <pt x="55" y="170" on="1"/>
        <pt x="55" y="188" on="0"/>
        <pt x="56" y="198" on="1"/>
        <pt x="107" y="677" on="1"/>
        <pt x="109" y="702" on="0"/>
        <pt x="153" y="702" on="1"/>
        <pt x="174" y="702" on="1"/>
        <pt x="218" y="702" on="0"/>
        <pt x="216" y="677" on="1"/>
        <pt x="166" y="199" on="1"/>
        <pt x="165" y="185" on="1"/>
        <pt x="165" y="141" on="0"/>
        <pt x="224" y="85" on="0"/>
        <pt x="273" y="85" on="1"/>
        <pt x="326" y="85" on="0"/>
        <pt x="399" y="149" on="0"/>
        <pt x="405" y="199" on="1"/>
        <pt x="455" y="677" on="1"/>
        <pt x="457" y="702" on="0"/>
        <pt x="501" y="702" on="1"/>
        <pt x="522" y="702" on="1"/>
      </contour>
    </TTGlyph>
    <TTGlyph name="Uring" xMin="55" yMin="-7" xMax="564" yMax="915">
      <component glyphName="U" x="0" y="0" flags="0x0"/>
      <component glyphName="ring" x="181" y="177" flags="0x4"/>
    </TTGlyph>
    <TTGlyph name="Utilde" xMin="55" yMin="-7" xMax="564" yMax="870">
      <component glyphName="U" x="0" y="0" flags="0x0"/>
      <component glyphName="tilde" x="189" y="177" flags="0x4"/>
    </TTGlyph>
    <TTGlyph name="V" xMin="59" yMin="-2" xMax="538" yMax="702">
      <contour>
        <pt x="168" y="-2" on="0"/>
        <pt x="165" y="15" on="1"/>
        <pt x="61" y="669" on="1"/>
        <pt x="59" y="681" on="0"/>
        <pt x="59" y="684" on="1"/>
        <pt x="61" y="702" on="0"/>
        <pt x="106" y="702" on="1"/>
        <pt x="127" y="702" on="1"/>
        <pt x="164" y="702" on="0"/>
        <pt x="167" y="682" on="1"/>
        <pt x="234" y="173" on="1"/>
        <pt x="236" y="117" on="1"/>
        <pt x="239" y="117" on="1"/>
        <pt x="255" y="174" on="1"/>
        <pt x="429" y="682" on="1"/>
        <pt x="437" y="702" on="0"/>
        <pt x="474" y="702" on="1"/>
        <pt x="493" y="702" on="1"/>
        <pt x="538" y="702" on="0"/>
        <pt x="536" y="684" on="1"/>
        <pt x="536" y="682" on="0"/>
        <pt x="532" y="668" on="1"/>
        <pt x="294" y="15" on="1"/>
        <pt x="289" y="-2" on="0"/>
        <pt x="250" y="-2" on="1"/>
        <pt x="204" y="-2" on="1"/>
      </contour>
    </TTGlyph>
    <TTGlyph name="W" xMin="61" yMin="-2" xMax="780" yMax="702">
      <contour>
        <pt x="140" y="-2" on="0"/>
        <pt x="139" y="15" on="1"/>
        <pt x="62" y="668" on="1"/>
        <pt x="61" y="672" on="0"/>
        <pt x="62" y="680" on="0"/>
        <pt x="62" y="681" on="1"/>
        <pt x="65" y="702" on="0"/>
        <pt x="110" y="702" on="1"/>
        <pt x="127" y="702" on="1"/>
        <pt x="171" y="702" on="0"/>
        <pt x="172" y="682" on="1"/>
        <pt x="203" y="232" on="1"/>
        <pt x="206" y="199" on="0"/>
        <pt x="206" y="142" on="1"/>
        <pt x="207" y="130" on="0"/>
        <pt x="207" y="109" on="1"/>
        <pt x="232" y="203" on="1"/>
        <pt x="241" y="234" on="1"/>
        <pt x="371" y="684" on="1"/>
        <pt x="374" y="694" on="0"/>
        <pt x="395" y="702" on="0"/>
        <pt x="413" y="702" on="1"/>
        <pt x="439" y="702" on="1"/>
        <pt x="477" y="702" on="0"/>
        <pt x="478" y="684" on="1"/>
        <pt x="519" y="233" on="1"/>
        <pt x="521" y="205" on="0"/>
        <pt x="524" y="109" on="1"/>
        <pt x="542" y="177" on="1"/>
        <pt x="550" y="211" on="0"/>
        <pt x="556" y="232" on="1"/>
        <pt x="671" y="682" on="1"/>
        <pt x="677" y="702" on="0"/>
        <pt x="720" y="702" on="1"/>
        <pt x="734" y="702" on="1"/>
        <pt x="780" y="702" on="0"/>
        <pt x="778" y="681" on="1"/>
        <pt x="777" y="679" on="0"/>
        <pt x="777" y="672" on="0"/>
        <pt x="775" y="668" on="1"/>
        <pt x="577" y="15" on="1"/>
        <pt x="571" y="-2" on="0"/>
        <pt x="534" y="-2" on="1"/>
        <pt x="496" y="-2" on="1"/>
        <pt x="459" y="-2" on="0"/>
        <pt x="458" y="15" on="1"/>
        <pt x="417" y="417" on="1"/>
        <pt x="412" y="544" on="1"/>
        <pt x="380" y="417" on="1"/>
        <pt x="257" y="15" on="1"/>
        <pt x="253" y="-2" on="0"/>
        <pt x="215" y="-2" on="1"/>
        <pt x="177" y="-2" on="1"/>
      </contour>
    </TTGlyph>
    <TTGlyph name="Wacute" xMin="62" yMin="-2" xMax="778" yMax="910">
      <component glyphName="W" x="0" y="0" flags="0x0"/>
      <component glyphName="acute" x="334" y="177" flags="0x4"/>
    </TTGlyph>
    <TTGlyph name="Wcircumflex" xMin="62" yMin="-2" xMax="778" yMax="895">
      <component glyphName="W" x="0" y="0" flags="0x0"/>
      <component glyphName="circumflex" x="270" y="177" flags="0x4"/>
    </TTGlyph>
    <TTGlyph name="Wdieresis" xMin="62" yMin="-2" xMax="778" yMax="879">
      <component glyphName="W" x="0" y="0" flags="0x0"/>
      <component glyphName="dieresis" x="268" y="177" flags="0x4"/>
    </TTGlyph>
    <TTGlyph name="Wgrave" xMin="62" yMin="-2" xMax="778" yMax="910">
      <component glyphName="W" x="0" y="0" flags="0x0"/>
      <component glyphName="grave" x="263" y="177" flags="0x4"/>
    </TTGlyph>
    <TTGlyph name="X" xMin="-11" yMin="-2" xMax="524" yMax="702">
      <contour>
        <pt x="-11" y="-2" on="0"/>
        <pt x="-9" y="16" on="1"/>
        <pt x="-8" y="19" on="0"/>
        <pt x="-2" y="31" on="0"/>
        <pt x="1" y="36" on="1"/>
        <pt x="202" y="368" on="1"/>
        <pt x="86" y="664" on="1"/>
        <pt x="80" y="680" on="0"/>
        <pt x="81" y="684" on="1"/>
        <pt x="83" y="702" on="0"/>
        <pt x="129" y="702" on="1"/>
        <pt x="157" y="702" on="1"/>
        <pt x="175" y="702" on="0"/>
        <pt x="195" y="696" on="0"/>
        <pt x="198" y="686" on="1"/>
        <pt x="274" y="446" on="1"/>
        <pt x="407" y="686" on="1"/>
        <pt x="413" y="696" on="0"/>
        <pt x="435" y="702" on="0"/>
        <pt x="453" y="702" on="1"/>
        <pt x="476" y="702" on="1"/>
        <pt x="524" y="702" on="0"/>
        <pt x="522" y="684" on="1"/>
        <pt x="521" y="678" on="0"/>
        <pt x="513" y="664" on="1"/>
        <pt x="329" y="364" on="1"/>
        <pt x="458" y="36" on="1"/>
        <pt x="459" y="33" on="0"/>
        <pt x="464" y="20" on="0"/>
        <pt x="463" y="16" on="1"/>
        <pt x="462" y="-2" on="0"/>
        <pt x="414" y="-2" on="1"/>
        <pt x="387" y="-2" on="1"/>
        <pt x="351" y="-2" on="0"/>
        <pt x="346" y="14" on="1"/>
        <pt x="257" y="284" on="1"/>
        <pt x="106" y="14" on="1"/>
        <pt x="101" y="4" on="0"/>
        <pt x="79" y="-2" on="0"/>
        <pt x="60" y="-2" on="1"/>
        <pt x="36" y="-2" on="1"/>
      </contour>
    </TTGlyph>
    <TTGlyph name="Y" xMin="58" yMin="-2" xMax="515" yMax="702">
      <contour>
        <pt x="159" y="-2" on="0"/>
        <pt x="162" y="23" on="1"/>
        <pt x="193" y="313" on="1"/>
        <pt x="64" y="664" on="1"/>
        <pt x="58" y="676" on="0"/>
        <pt x="58" y="684" on="1"/>
        <pt x="60" y="702" on="0"/>
        <pt x="105" y="702" on="1"/>
        <pt x="130" y="702" on="1"/>
        <pt x="148" y="702" on="0"/>
        <pt x="169" y="695" on="0"/>
        <pt x="172" y="686" on="1"/>
        <pt x="255" y="403" on="1"/>
        <pt x="401" y="687" on="1"/>
        <pt x="406" y="696" on="0"/>
        <pt x="428" y="702" on="0"/>
        <pt x="447" y="702" on="1"/>
        <pt x="470" y="702" on="1"/>
        <pt x="515" y="701" on="0"/>
        <pt x="513" y="684" on="1"/>
        <pt x="513" y="677" on="0"/>
        <pt x="505" y="664" on="1"/>
        <pt x="302" y="310" on="1"/>
        <pt x="271" y="23" on="1"/>
        <pt x="269" y="-2" on="0"/>
        <pt x="225" y="-2" on="1"/>
        <pt x="204" y="-2" on="1"/>
      </contour>
    </TTGlyph>
    <TTGlyph name="Y.loclGUA" xMin="40" yMin="-8" xMax="487" yMax="702">
      <contour>
        <pt x="487" y="702" on="0"/>
        <pt x="485" y="677" on="1"/>
        <pt x="442" y="274" on="1"/>
        <pt x="432" y="170" on="0"/>
        <pt x="378" y="47" on="0"/>
        <pt x="286" y="-8" on="0"/>
        <pt x="216" y="-8" on="1"/>
        <pt x="168" y="-8" on="0"/>
        <pt x="88" y="8" on="0"/>
        <pt x="40" y="34" on="0"/>
        <pt x="40" y="48" on="1"/>
        <pt x="40" y="66" on="0"/>
        <pt x="42" y="80" on="1"/>
        <pt x="43" y="96" on="0"/>
        <pt x="52" y="112" on="0"/>
        <pt x="57" y="112" on="1"/>
        <pt x="60" y="112" on="0"/>
        <pt x="105" y="92" on="0"/>
        <pt x="167" y="77" on="0"/>
        <pt x="205" y="77" on="1"/>
        <pt x="268" y="77" on="0"/>
        <pt x="329" y="160" on="0"/>
        <pt x="339" y="261" on="1"/>
        <pt x="340" y="273" on="1"/>
        <pt x="312" y="242" on="0"/>
        <pt x="240" y="210" on="0"/>
        <pt x="202" y="210" on="1"/>
        <pt x="136" y="210" on="0"/>
        <pt x="67" y="276" on="0"/>
        <pt x="67" y="338" on="1"/>
        <pt x="67" y="354" on="0"/>
        <pt x="68" y="363" on="1"/>
        <pt x="101" y="677" on="1"/>
        <pt x="103" y="702" on="0"/>
        <pt x="149" y="702" on="1"/>
        <pt x="160" y="702" on="1"/>
        <pt x="206" y="702" on="0"/>
        <pt x="204" y="677" on="1"/>
        <pt x="172" y="375" on="1"/>
        <pt x="168" y="338" on="0"/>
        <pt x="206" y="297" on="0"/>
        <pt x="244" y="297" on="1"/>
        <pt x="273" y="297" on="0"/>
        <pt x="327" y="334" on="0"/>
        <pt x="349" y="364" on="1"/>
        <pt x="382" y="677" on="1"/>
        <pt x="385" y="702" on="0"/>
        <pt x="430" y="702" on="1"/>
        <pt x="441" y="702" on="1"/>
      </contour>
    </TTGlyph>
    <TTGlyph name="Yacute" xMin="58" yMin="-2" xMax="513" yMax="910">
      <component glyphName="Y" x="0" y="0" flags="0x0"/>
      <component glyphName="acute" x="198" y="177" flags="0x4"/>
    </TTGlyph>
    <TTGlyph name="Yacute.loclGUA" xMin="40" yMin="-8" xMax="485" yMax="910">
      <component glyphName="Y.loclGUA" x="0" y="0" flags="0x0"/>
      <component glyphName="acute" x="206" y="177" flags="0x4"/>
    </TTGlyph>
    <TTGlyph name="Ycircumflex" xMin="58" yMin="-2" xMax="513" yMax="895">
      <component glyphName="Y" x="0" y="0" flags="0x0"/>
      <component glyphName="circumflex" x="134" y="177" flags="0x4"/>
    </TTGlyph>
    <TTGlyph name="Ycircumflex.loclGUA" xMin="40" yMin="-8" xMax="485" yMax="895">
      <component glyphName="Y.loclGUA" x="0" y="0" flags="0x0"/>
      <component glyphName="circumflex" x="142" y="177" flags="0x4"/>
    </TTGlyph>
    <TTGlyph name="Ydieresis" xMin="58" yMin="-2" xMax="513" yMax="879">
      <component glyphName="Y" x="0" y="0" flags="0x0"/>
      <component glyphName="dieresis" x="132" y="177" flags="0x4"/>
    </TTGlyph>
    <TTGlyph name="Ydieresis.loclGUA" xMin="40" yMin="-8" xMax="485" yMax="879">
      <component glyphName="Y.loclGUA" x="0" y="0" flags="0x0"/>
      <component glyphName="dieresis" x="140" y="177" flags="0x4"/>
    </TTGlyph>
    <TTGlyph name="Ygrave" xMin="58" yMin="-2" xMax="513" yMax="910">
      <component glyphName="Y" x="0" y="0" flags="0x0"/>
      <component glyphName="grave" x="127" y="177" flags="0x4"/>
    </TTGlyph>
    <TTGlyph name="Ygrave.loclGUA" xMin="40" yMin="-8" xMax="485" yMax="910">
      <component glyphName="Y.loclGUA" x="0" y="0" flags="0x0"/>
      <component glyphName="grave" x="135" y="177" flags="0x4"/>
    </TTGlyph>
    <TTGlyph name="Z" xMin="7" yMin="0" xMax="508" yMax="700">
      <contour>
        <pt x="21" y="0" on="0"/>
        <pt x="7" y="45" on="0"/>
        <pt x="9" y="63" on="1"/>
        <pt x="9" y="71" on="0"/>
        <pt x="12" y="75" on="1"/>
        <pt x="369" y="608" on="1"/>
        <pt x="112" y="608" on="1"/>
        <pt x="101" y="608" on="0"/>
        <pt x="92" y="626" on="0"/>
        <pt x="94" y="647" on="1"/>
        <pt x="96" y="661" on="1"/>
        <pt x="98" y="682" on="0"/>
        <pt x="110" y="700" on="0"/>
        <pt x="121" y="700" on="1"/>
        <pt x="487" y="700" on="1"/>
        <pt x="496" y="700" on="0"/>
        <pt x="508" y="653" on="0"/>
        <pt x="506" y="636" on="1"/>
        <pt x="506" y="628" on="0"/>
        <pt x="505" y="625" on="1"/>
        <pt x="149" y="92" on="1"/>
        <pt x="428" y="92" on="1"/>
        <pt x="447" y="92" on="0"/>
        <pt x="447" y="66" on="1"/>
        <pt x="447" y="58" on="0"/>
        <pt x="446" y="53" on="1"/>
        <pt x="444" y="39" on="1"/>
        <pt x="442" y="18" on="0"/>
        <pt x="429" y="0" on="0"/>
        <pt x="418" y="0" on="1"/>
        <pt x="30" y="0" on="1"/>
      </contour>
    </TTGlyph>
    <TTGlyph name="Zacute" xMin="9" yMin="0" xMax="507" yMax="910">
      <component glyphName="Z" x="0" y="0" flags="0x0"/>
      <component glyphName="acute" x="212" y="177" flags="0x4"/>
    </TTGlyph>
    <TTGlyph name="Zacute.loclPLK" xMin="9" yMin="0" xMax="507" yMax="910">
      <component glyphName="Z" x="0" y="0" flags="0x0"/>
      <component glyphName="acute.loclPLK" x="212" y="177" flags="0x4"/>
    </TTGlyph>
    <TTGlyph name="Zcaron" xMin="9" yMin="0" xMax="507" yMax="900">
      <component glyphName="Z" x="0" y="0" flags="0x0"/>
      <component glyphName="caron" x="150" y="177" flags="0x4"/>
    </TTGlyph>
    <TTGlyph name="Zdotaccent" xMin="9" yMin="0" xMax="507" yMax="879">
      <component glyphName="Z" x="0" y="0" flags="0x0"/>
      <component glyphName="dotaccent" x="145" y="177" flags="0x4"/>
    </TTGlyph>
    <TTGlyph name="a" xMin="40" yMin="-8" xMax="451" yMax="530">
      <contour>
        <pt x="101" y="-8" on="0"/>
        <pt x="40" y="110" on="0"/>
        <pt x="40" y="202" on="1"/>
        <pt x="40" y="234" on="0"/>
        <pt x="43" y="265" on="1"/>
        <pt x="56" y="389" on="0"/>
        <pt x="160" y="530" on="0"/>
        <pt x="236" y="530" on="1"/>
        <pt x="300" y="530" on="0"/>
        <pt x="342" y="476" on="1"/>
        <pt x="351" y="504" on="0"/>
        <pt x="369" y="525" on="0"/>
        <pt x="392" y="525" on="1"/>
        <pt x="400" y="525" on="1"/>
        <pt x="435" y="525" on="0"/>
        <pt x="435" y="503" on="1"/>
        <pt x="434" y="490" on="0"/>
        <pt x="430" y="450" on="0"/>
        <pt x="428" y="432" on="1"/>
        <pt x="423" y="391" on="1"/>
        <pt x="394" y="120" on="1"/>
        <pt x="391" y="79" on="0"/>
        <pt x="416" y="79" on="1"/>
        <pt x="422" y="79" on="0"/>
        <pt x="436" y="83" on="0"/>
        <pt x="440" y="83" on="1"/>
        <pt x="451" y="83" on="0"/>
        <pt x="451" y="58" on="1"/>
        <pt x="451" y="27" on="0"/>
        <pt x="412" y="-7" on="0"/>
        <pt x="377" y="-7" on="1"/>
        <pt x="344" y="-7" on="0"/>
        <pt x="295" y="32" on="0"/>
        <pt x="292" y="79" on="1"/>
        <pt x="248" y="-8" on="0"/>
        <pt x="168" y="-8" on="1"/>
      </contour>
      <contour>
        <pt x="232" y="79" on="0"/>
        <pt x="283" y="133" on="0"/>
        <pt x="299" y="189" on="1"/>
        <pt x="316" y="355" on="1"/>
        <pt x="321" y="390" on="0"/>
        <pt x="325" y="410" on="1"/>
        <pt x="312" y="425" on="0"/>
        <pt x="280" y="444" on="0"/>
        <pt x="256" y="444" on="1"/>
        <pt x="208" y="444" on="0"/>
        <pt x="156" y="354" on="0"/>
        <pt x="147" y="267" on="1"/>
        <pt x="143" y="223" on="0"/>
        <pt x="143" y="201" on="1"/>
        <pt x="143" y="79" on="0"/>
        <pt x="204" y="79" on="1"/>
      </contour>
    </TTGlyph>
    <TTGlyph name="aacute" xMin="40" yMin="-8" xMax="451" yMax="733">
      <component glyphName="a" x="0" y="0" flags="0x0"/>
      <component glyphName="acute" x="172" y="0" flags="0x0"/>
    </TTGlyph>
    <TTGlyph name="abreve" xMin="40" yMin="-8" xMax="451" yMax="715">
      <component glyphName="a" x="0" y="0" flags="0x0"/>
      <component glyphName="breve" x="109" y="0" flags="0x0"/>
    </TTGlyph>
    <TTGlyph name="acircumflex" xMin="40" yMin="-8" xMax="451" yMax="718">
      <component glyphName="a" x="0" y="0" flags="0x0"/>
      <component glyphName="circumflex" x="108" y="0" flags="0x0"/>
    </TTGlyph>
    <TTGlyph name="acute" xMin="47" yMin="582" xMax="206" yMax="733">
      <contour>
        <pt x="58" y="582" on="0"/>
        <pt x="47" y="587" on="0"/>
        <pt x="47" y="594" on="1"/>
        <pt x="47" y="600" on="0"/>
        <pt x="63" y="635" on="0"/>
        <pt x="78" y="665" on="1"/>
        <pt x="98" y="706" on="1"/>
        <pt x="112" y="733" on="0"/>
        <pt x="161" y="733" on="1"/>
        <pt x="185" y="733" on="0"/>
        <pt x="206" y="727" on="0"/>
        <pt x="206" y="719" on="1"/>
        <pt x="206" y="713" on="0"/>
        <pt x="189" y="687" on="0"/>
        <pt x="169" y="661" on="1"/>
        <pt x="162" y="652" on="0"/>
        <pt x="141" y="624" on="0"/>
        <pt x="125" y="602" on="1"/>
        <pt x="118" y="592" on="0"/>
        <pt x="93" y="582" on="0"/>
        <pt x="71" y="582" on="1"/>
      </contour>
    </TTGlyph>
    <TTGlyph name="acute.loclPLK" xMin="52" yMin="582" xMax="187" yMax="733">
      <contour>
        <pt x="64" y="582" on="0"/>
        <pt x="52" y="587" on="0"/>
        <pt x="52" y="594" on="1"/>
        <pt x="52" y="603" on="0"/>
        <pt x="79" y="706" on="1"/>
        <pt x="86" y="733" on="0"/>
        <pt x="143" y="733" on="1"/>
        <pt x="166" y="733" on="0"/>
        <pt x="187" y="726" on="0"/>
        <pt x="187" y="719" on="1"/>
        <pt x="187" y="713" on="0"/>
        <pt x="157" y="653" on="0"/>
        <pt x="130" y="602" on="1"/>
        <pt x="120" y="582" on="0"/>
        <pt x="80" y="582" on="1"/>
      </contour>
    </TTGlyph>
    <TTGlyph name="acutecomb" xMin="-6" yMin="582" xMax="153" yMax="733">
      <contour>
        <pt x="5" y="582" on="0"/>
        <pt x="-6" y="587" on="0"/>
        <pt x="-6" y="594" on="1"/>
        <pt x="-6" y="600" on="0"/>
        <pt x="10" y="635" on="0"/>
        <pt x="25" y="665" on="1"/>
        <pt x="45" y="706" on="1"/>
        <pt x="59" y="733" on="0"/>
        <pt x="108" y="733" on="1"/>
        <pt x="132" y="733" on="0"/>
        <pt x="153" y="727" on="0"/>
        <pt x="153" y="719" on="1"/>
        <pt x="153" y="713" on="0"/>
        <pt x="136" y="687" on="0"/>
        <pt x="116" y="661" on="1"/>
        <pt x="109" y="652" on="0"/>
        <pt x="88" y="624" on="0"/>
        <pt x="72" y="602" on="1"/>
        <pt x="65" y="592" on="0"/>
        <pt x="40" y="582" on="0"/>
        <pt x="18" y="582" on="1"/>
      </contour>
    </TTGlyph>
    <TTGlyph name="adieresis" xMin="40" yMin="-8" xMax="451" yMax="702">
      <component glyphName="a" x="0" y="0" flags="0x0"/>
      <component glyphName="dieresis" x="106" y="0" flags="0x0"/>
    </TTGlyph>
    <TTGlyph name="ae" xMin="24" yMin="-7" xMax="651" yMax="530">
      <contour>
        <pt x="101" y="-7" on="0"/>
        <pt x="24" y="66" on="0"/>
        <pt x="24" y="130" on="1"/>
        <pt x="24" y="143" on="0"/>
        <pt x="25" y="150" on="1"/>
        <pt x="35" y="240" on="0"/>
        <pt x="164" y="326" on="0"/>
        <pt x="282" y="328" on="1"/>
        <pt x="290" y="367" on="0"/>
        <pt x="304" y="396" on="1"/>
        <pt x="294" y="444" on="0"/>
        <pt x="235" y="444" on="1"/>
        <pt x="205" y="444" on="0"/>
        <pt x="158" y="430" on="0"/>
        <pt x="134" y="419" on="1"/>
        <pt x="118" y="412" on="0"/>
        <pt x="114" y="412" on="1"/>
        <pt x="103" y="412" on="0"/>
        <pt x="81" y="455" on="0"/>
        <pt x="81" y="468" on="1"/>
        <pt x="81" y="482" on="0"/>
        <pt x="130" y="511" on="0"/>
        <pt x="207" y="530" on="0"/>
        <pt x="248" y="530" on="1"/>
        <pt x="288" y="530" on="0"/>
        <pt x="351" y="509" on="0"/>
        <pt x="371" y="489" on="1"/>
        <pt x="424" y="530" on="0"/>
        <pt x="498" y="530" on="1"/>
        <pt x="576" y="530" on="0"/>
        <pt x="651" y="425" on="0"/>
        <pt x="651" y="322" on="1"/>
        <pt x="651" y="306" on="0"/>
        <pt x="649" y="272" on="1"/>
        <pt x="648" y="261" on="0"/>
        <pt x="615" y="225" on="0"/>
        <pt x="606" y="225" on="1"/>
        <pt x="375" y="225" on="1"/>
        <pt x="374" y="215" on="0"/>
        <pt x="374" y="197" on="1"/>
        <pt x="374" y="135" on="0"/>
        <pt x="419" y="79" on="0"/>
        <pt x="466" y="79" on="1"/>
        <pt x="497" y="79" on="0"/>
        <pt x="543" y="96" on="0"/>
        <pt x="579" y="117" on="0"/>
        <pt x="582" y="117" on="1"/>
        <pt x="592" y="117" on="0"/>
        <pt x="615" y="75" on="0"/>
        <pt x="615" y="61" on="1"/>
        <pt x="615" y="46" on="0"/>
        <pt x="568" y="14" on="0"/>
        <pt x="493" y="-7" on="0"/>
        <pt x="455" y="-7" on="1"/>
        <pt x="353" y="-7" on="0"/>
        <pt x="306" y="52" on="1"/>
        <pt x="279" y="25" on="0"/>
        <pt x="202" y="-7" on="0"/>
        <pt x="159" y="-7" on="1"/>
      </contour>
      <contour>
        <pt x="548" y="305" on="1"/>
        <pt x="551" y="329" on="0"/>
        <pt x="551" y="348" on="1"/>
        <pt x="550" y="397" on="0"/>
        <pt x="519" y="444" on="0"/>
        <pt x="488" y="444" on="1"/>
        <pt x="446" y="444" on="0"/>
        <pt x="394" y="377" on="0"/>
        <pt x="383" y="305" on="1"/>
      </contour>
      <contour>
        <pt x="238" y="83" on="0"/>
        <pt x="274" y="124" on="1"/>
        <pt x="267" y="153" on="0"/>
        <pt x="267" y="197" on="1"/>
        <pt x="267" y="212" on="0"/>
        <pt x="269" y="248" on="1"/>
        <pt x="128" y="244" on="0"/>
        <pt x="128" y="142" on="1"/>
        <pt x="128" y="83" on="0"/>
        <pt x="184" y="83" on="1"/>
      </contour>
    </TTGlyph>
    <TTGlyph name="aeacute" xMin="24" yMin="-7" xMax="651" yMax="733">
      <component glyphName="ae" x="0" y="0" flags="0x0"/>
      <component glyphName="acute" x="282" y="0" flags="0x0"/>
    </TTGlyph>
    <TTGlyph name="agrave" xMin="40" yMin="-8" xMax="451" yMax="733">
      <component glyphName="a" x="0" y="0" flags="0x0"/>
      <component glyphName="grave" x="101" y="0" flags="0x0"/>
    </TTGlyph>
    <TTGlyph name="amacron" xMin="40" yMin="-8" xMax="451" yMax="685">
      <component glyphName="a" x="0" y="0" flags="0x0"/>
      <component glyphName="macron" x="108" y="0" flags="0x0"/>
    </TTGlyph>
    <TTGlyph name="ampersand" xMin="16" yMin="-7" xMax="507" yMax="707">
      <contour>
        <pt x="507" y="413" on="0"/>
        <pt x="504" y="377" on="1"/>
        <pt x="502" y="364" on="1"/>
        <pt x="499" y="328" on="0"/>
        <pt x="477" y="328" on="1"/>
        <pt x="430" y="328" on="1"/>
        <pt x="410" y="143" on="1"/>
        <pt x="409" y="134" on="0"/>
        <pt x="409" y="120" on="1"/>
        <pt x="409" y="97" on="0"/>
        <pt x="422" y="79" on="0"/>
        <pt x="435" y="79" on="1"/>
        <pt x="444" y="79" on="0"/>
        <pt x="458" y="83" on="0"/>
        <pt x="462" y="83" on="1"/>
        <pt x="471" y="83" on="0"/>
        <pt x="479" y="47" on="0"/>
        <pt x="479" y="32" on="1"/>
        <pt x="479" y="-7" on="0"/>
        <pt x="403" y="-7" on="1"/>
        <pt x="375" y="-7" on="0"/>
        <pt x="334" y="13" on="0"/>
        <pt x="321" y="36" on="1"/>
        <pt x="284" y="16" on="0"/>
        <pt x="216" y="-7" on="0"/>
        <pt x="177" y="-7" on="1"/>
        <pt x="105" y="-7" on="0"/>
        <pt x="16" y="79" on="0"/>
        <pt x="16" y="166" on="1"/>
        <pt x="16" y="177" on="0"/>
        <pt x="18" y="203" on="1"/>
        <pt x="26" y="276" on="0"/>
        <pt x="86" y="371" on="0"/>
        <pt x="132" y="386" on="1"/>
        <pt x="133" y="390" on="1"/>
        <pt x="104" y="405" on="0"/>
        <pt x="70" y="468" on="0"/>
        <pt x="70" y="512" on="1"/>
        <pt x="70" y="528" on="0"/>
        <pt x="71" y="537" on="1"/>
        <pt x="80" y="619" on="0"/>
        <pt x="178" y="707" on="0"/>
        <pt x="253" y="707" on="1"/>
        <pt x="284" y="707" on="0"/>
        <pt x="333" y="690" on="0"/>
        <pt x="331" y="672" on="1"/>
        <pt x="330" y="657" on="0"/>
        <pt x="310" y="613" on="0"/>
        <pt x="300" y="613" on="1"/>
        <pt x="297" y="613" on="0"/>
        <pt x="273" y="621" on="0"/>
        <pt x="259" y="621" on="1"/>
        <pt x="216" y="621" on="0"/>
        <pt x="175" y="549" on="0"/>
        <pt x="175" y="510" on="1"/>
        <pt x="175" y="471" on="0"/>
        <pt x="215" y="413" on="0"/>
        <pt x="253" y="413" on="1"/>
        <pt x="333" y="413" on="1"/>
        <pt x="355" y="515" on="1"/>
        <pt x="360" y="540" on="0"/>
        <pt x="397" y="540" on="1"/>
        <pt x="417" y="540" on="1"/>
        <pt x="452" y="540" on="0"/>
        <pt x="449" y="515" on="1"/>
        <pt x="439" y="413" on="1"/>
        <pt x="485" y="413" on="1"/>
      </contour>
      <contour>
        <pt x="123" y="195" on="0"/>
        <pt x="123" y="178" on="1"/>
        <pt x="123" y="79" on="0"/>
        <pt x="200" y="79" on="1"/>
        <pt x="223" y="79" on="0"/>
        <pt x="270" y="94" on="0"/>
        <pt x="303" y="110" on="1"/>
        <pt x="302" y="121" on="1"/>
        <pt x="303" y="131" on="1"/>
        <pt x="324" y="328" on="1"/>
        <pt x="239" y="328" on="1"/>
        <pt x="186" y="328" on="0"/>
        <pt x="131" y="272" on="0"/>
        <pt x="124" y="205" on="1"/>
      </contour>
    </TTGlyph>
    <TTGlyph name="aogonek" xMin="40" yMin="-187" xMax="494" yMax="530">
      <contour>
        <pt x="494" y="-116" on="0"/>
        <pt x="494" y="-142" on="1"/>
        <pt x="494" y="-161" on="0"/>
        <pt x="480" y="-170" on="1"/>
        <pt x="453" y="-187" on="0"/>
        <pt x="416" y="-187" on="1"/>
        <pt x="361" y="-187" on="0"/>
        <pt x="323" y="-129" on="0"/>
        <pt x="323" y="-97" on="1"/>
        <pt x="323" y="-77" on="0"/>
        <pt x="336" y="-28" on="0"/>
        <pt x="350" y="-4" on="1"/>
        <pt x="297" y="11" on="0"/>
        <pt x="292" y="79" on="1"/>
        <pt x="248" y="-8" on="0"/>
        <pt x="168" y="-8" on="1"/>
        <pt x="101" y="-8" on="0"/>
        <pt x="40" y="110" on="0"/>
        <pt x="40" y="202" on="1"/>
        <pt x="40" y="234" on="0"/>
        <pt x="43" y="265" on="1"/>
        <pt x="56" y="389" on="0"/>
        <pt x="160" y="530" on="0"/>
        <pt x="236" y="530" on="1"/>
        <pt x="300" y="530" on="0"/>
        <pt x="342" y="476" on="1"/>
        <pt x="351" y="504" on="0"/>
        <pt x="369" y="525" on="0"/>
        <pt x="392" y="525" on="1"/>
        <pt x="400" y="525" on="1"/>
        <pt x="435" y="525" on="0"/>
        <pt x="435" y="503" on="1"/>
        <pt x="434" y="490" on="0"/>
        <pt x="430" y="450" on="0"/>
        <pt x="428" y="432" on="1"/>
        <pt x="423" y="391" on="1"/>
        <pt x="394" y="120" on="1"/>
        <pt x="391" y="79" on="0"/>
        <pt x="416" y="79" on="1"/>
        <pt x="422" y="79" on="0"/>
        <pt x="436" y="83" on="0"/>
        <pt x="440" y="83" on="1"/>
        <pt x="451" y="83" on="0"/>
        <pt x="451" y="58" on="1"/>
        <pt x="451" y="34" on="0"/>
        <pt x="428" y="3" on="0"/>
        <pt x="407" y="-3" on="1"/>
        <pt x="397" y="-23" on="0"/>
        <pt x="386" y="-64" on="0"/>
        <pt x="386" y="-79" on="1"/>
        <pt x="386" y="-104" on="0"/>
        <pt x="414" y="-122" on="0"/>
        <pt x="435" y="-122" on="1"/>
        <pt x="443" y="-122" on="0"/>
        <pt x="468" y="-116" on="0"/>
        <pt x="471" y="-116" on="1"/>
      </contour>
      <contour>
        <pt x="321" y="390" on="0"/>
        <pt x="325" y="410" on="1"/>
        <pt x="312" y="425" on="0"/>
        <pt x="280" y="444" on="0"/>
        <pt x="256" y="444" on="1"/>
        <pt x="208" y="444" on="0"/>
        <pt x="156" y="354" on="0"/>
        <pt x="147" y="267" on="1"/>
        <pt x="143" y="223" on="0"/>
        <pt x="143" y="201" on="1"/>
        <pt x="143" y="79" on="0"/>
        <pt x="204" y="79" on="1"/>
        <pt x="232" y="79" on="0"/>
        <pt x="283" y="133" on="0"/>
        <pt x="299" y="189" on="1"/>
        <pt x="316" y="355" on="1"/>
      </contour>
    </TTGlyph>
    <TTGlyph name="approxequal" xMin="39" yMin="93" xMax="402" yMax="370">
      <contour>
        <pt x="215" y="287" on="0"/>
        <pt x="164" y="304" on="0"/>
        <pt x="145" y="304" on="1"/>
        <pt x="125" y="304" on="0"/>
        <pt x="106" y="279" on="1"/>
        <pt x="100" y="271" on="0"/>
        <pt x="90" y="263" on="0"/>
        <pt x="84" y="263" on="1"/>
        <pt x="80" y="263" on="0"/>
        <pt x="74" y="266" on="1"/>
        <pt x="66" y="270" on="1"/>
        <pt x="57" y="275" on="0"/>
        <pt x="55" y="284" on="1"/>
        <pt x="55" y="291" on="0"/>
        <pt x="59" y="299" on="1"/>
        <pt x="87" y="368" on="0"/>
        <pt x="151" y="368" on="1"/>
        <pt x="167" y="368" on="0"/>
        <pt x="204" y="358" on="0"/>
        <pt x="237" y="347" on="1"/>
        <pt x="242" y="345" on="0"/>
        <pt x="293" y="328" on="0"/>
        <pt x="312" y="328" on="1"/>
        <pt x="332" y="328" on="0"/>
        <pt x="350" y="354" on="1"/>
        <pt x="355" y="360" on="0"/>
        <pt x="367" y="370" on="0"/>
        <pt x="372" y="370" on="1"/>
        <pt x="378" y="370" on="0"/>
        <pt x="383" y="366" on="1"/>
        <pt x="391" y="362" on="1"/>
        <pt x="401" y="357" on="0"/>
        <pt x="402" y="348" on="1"/>
        <pt x="402" y="342" on="0"/>
        <pt x="398" y="333" on="1"/>
        <pt x="370" y="264" on="0"/>
        <pt x="306" y="264" on="1"/>
        <pt x="290" y="264" on="0"/>
        <pt x="253" y="274" on="0"/>
        <pt x="220" y="285" on="1"/>
      </contour>
      <contour>
        <pt x="199" y="118" on="0"/>
        <pt x="147" y="135" on="0"/>
        <pt x="129" y="135" on="1"/>
        <pt x="110" y="135" on="0"/>
        <pt x="91" y="109" on="1"/>
        <pt x="86" y="103" on="0"/>
        <pt x="74" y="93" on="0"/>
        <pt x="69" y="93" on="1"/>
        <pt x="63" y="93" on="0"/>
        <pt x="58" y="97" on="1"/>
        <pt x="50" y="101" on="1"/>
        <pt x="40" y="106" on="0"/>
        <pt x="39" y="115" on="1"/>
        <pt x="39" y="121" on="0"/>
        <pt x="43" y="130" on="1"/>
        <pt x="72" y="199" on="0"/>
        <pt x="135" y="199" on="1"/>
        <pt x="151" y="199" on="0"/>
        <pt x="188" y="189" on="0"/>
        <pt x="221" y="178" on="1"/>
        <pt x="248" y="168" on="0"/>
        <pt x="282" y="159" on="0"/>
        <pt x="296" y="159" on="1"/>
        <pt x="317" y="159" on="0"/>
        <pt x="335" y="184" on="1"/>
        <pt x="341" y="192" on="0"/>
        <pt x="351" y="200" on="0"/>
        <pt x="357" y="200" on="1"/>
        <pt x="362" y="200" on="0"/>
        <pt x="368" y="197" on="1"/>
        <pt x="375" y="193" on="1"/>
        <pt x="386" y="188" on="0"/>
        <pt x="386" y="179" on="1"/>
        <pt x="386" y="172" on="0"/>
        <pt x="382" y="164" on="1"/>
        <pt x="354" y="95" on="0"/>
        <pt x="291" y="95" on="1"/>
        <pt x="275" y="95" on="0"/>
        <pt x="238" y="105" on="0"/>
        <pt x="205" y="116" on="1"/>
      </contour>
    </TTGlyph>
    <TTGlyph name="aring" xMin="40" yMin="-8" xMax="451" yMax="738">
      <component glyphName="a" x="0" y="0" flags="0x0"/>
      <component glyphName="ring" x="105" y="0" flags="0x0"/>
    </TTGlyph>
    <TTGlyph name="aringacute" xMin="40" yMin="-8" xMax="451" yMax="923">
      <component glyphName="a" x="0" y="0" flags="0x0"/>
      <component glyphName="ring" x="105" y="0" flags="0x0"/>
      <component glyphName="acute" x="212" y="190" flags="0x4"/>
    </TTGlyph>
    <TTGlyph name="arrowdown" xMin="17" yMin="-3" xMax="520" yMax="708">
      <contour>
        <pt x="505" y="334" on="0"/>
        <pt x="510" y="334" on="1"/>
        <pt x="515" y="334" on="0"/>
        <pt x="520" y="326" on="0"/>
        <pt x="519" y="319" on="1"/>
        <pt x="512" y="257" on="1"/>
        <pt x="511" y="244" on="0"/>
        <pt x="504" y="228" on="0"/>
        <pt x="493" y="218" on="1"/>
        <pt x="257" y="4" on="1"/>
        <pt x="249" y="-3" on="0"/>
        <pt x="238" y="-3" on="1"/>
        <pt x="232" y="-3" on="0"/>
        <pt x="225" y="0" on="0"/>
        <pt x="221" y="4" on="1"/>
        <pt x="31" y="218" on="1"/>
        <pt x="22" y="227" on="0"/>
        <pt x="17" y="241" on="0"/>
        <pt x="18" y="256" on="1"/>
        <pt x="25" y="316" on="1"/>
        <pt x="26" y="332" on="0"/>
        <pt x="35" y="332" on="1"/>
        <pt x="41" y="332" on="0"/>
        <pt x="47" y="325" on="1"/>
        <pt x="210" y="138" on="1"/>
        <pt x="267" y="683" on="1"/>
        <pt x="269" y="708" on="0"/>
        <pt x="304" y="708" on="1"/>
        <pt x="316" y="708" on="1"/>
        <pt x="350" y="708" on="0"/>
        <pt x="348" y="683" on="1"/>
        <pt x="289" y="136" on="1"/>
        <pt x="499" y="328" on="1"/>
      </contour>
    </TTGlyph>
    <TTGlyph name="arrowleft" xMin="0" yMin="0" xMax="600" yMax="529">
      <contour>
        <pt x="600" y="301" on="0"/>
        <pt x="597" y="267" on="1"/>
        <pt x="596" y="254" on="1"/>
        <pt x="593" y="220" on="0"/>
        <pt x="568" y="220" on="1"/>
        <pt x="130" y="220" on="1"/>
        <pt x="266" y="26" on="1"/>
        <pt x="272" y="19" on="0"/>
        <pt x="272" y="12" on="1"/>
        <pt x="272" y="0" on="0"/>
        <pt x="253" y="0" on="1"/>
        <pt x="202" y="0" on="1"/>
        <pt x="178" y="0" on="0"/>
        <pt x="167" y="17" on="1"/>
        <pt x="5" y="247" on="1"/>
        <pt x="0" y="254" on="0"/>
        <pt x="1" y="266" on="1"/>
        <pt x="1" y="275" on="0"/>
        <pt x="9" y="283" on="1"/>
        <pt x="219" y="513" on="1"/>
        <pt x="234" y="529" on="0"/>
        <pt x="257" y="529" on="1"/>
        <pt x="314" y="529" on="1"/>
        <pt x="331" y="529" on="0"/>
        <pt x="331" y="520" on="1"/>
        <pt x="331" y="514" on="0"/>
        <pt x="322" y="503" on="1"/>
        <pt x="138" y="301" on="1"/>
        <pt x="576" y="301" on="1"/>
      </contour>
    </TTGlyph>
    <TTGlyph name="arrowright" xMin="-2" yMin="0" xMax="598" yMax="529">
      <contour>
        <pt x="598" y="275" on="0"/>
        <pt x="597" y="263" on="1"/>
        <pt x="597" y="254" on="0"/>
        <pt x="589" y="247" on="1"/>
        <pt x="379" y="17" on="1"/>
        <pt x="363" y="0" on="0"/>
        <pt x="341" y="0" on="1"/>
        <pt x="285" y="0" on="1"/>
        <pt x="267" y="0" on="0"/>
        <pt x="267" y="9" on="1"/>
        <pt x="267" y="14" on="0"/>
        <pt x="277" y="26" on="1"/>
        <pt x="460" y="228" on="1"/>
        <pt x="22" y="228" on="1"/>
        <pt x="-2" y="228" on="0"/>
        <pt x="1" y="263" on="1"/>
        <pt x="2" y="275" on="1"/>
        <pt x="6" y="309" on="0"/>
        <pt x="30" y="309" on="1"/>
        <pt x="469" y="309" on="1"/>
        <pt x="332" y="503" on="1"/>
        <pt x="327" y="509" on="0"/>
        <pt x="327" y="517" on="1"/>
        <pt x="327" y="529" on="0"/>
        <pt x="345" y="529" on="1"/>
        <pt x="396" y="529" on="1"/>
        <pt x="420" y="529" on="0"/>
        <pt x="432" y="513" on="1"/>
        <pt x="593" y="283" on="1"/>
      </contour>
    </TTGlyph>
    <TTGlyph name="arrowup" xMin="17" yMin="-3" xMax="520" yMax="708">
      <contour>
        <pt x="515" y="478" on="0"/>
        <pt x="520" y="463" on="0"/>
        <pt x="519" y="448" on="1"/>
        <pt x="512" y="389" on="1"/>
        <pt x="511" y="373" on="0"/>
        <pt x="502" y="373" on="1"/>
        <pt x="496" y="373" on="0"/>
        <pt x="490" y="380" on="1"/>
        <pt x="327" y="566" on="1"/>
        <pt x="270" y="21" on="1"/>
        <pt x="267" y="-3" on="0"/>
        <pt x="233" y="-3" on="1"/>
        <pt x="221" y="-3" on="1"/>
        <pt x="188" y="-3" on="0"/>
        <pt x="189" y="21" on="1"/>
        <pt x="246" y="568" on="1"/>
        <pt x="38" y="377" on="1"/>
        <pt x="32" y="371" on="0"/>
        <pt x="27" y="371" on="1"/>
        <pt x="22" y="371" on="0"/>
        <pt x="17" y="379" on="0"/>
        <pt x="18" y="386" on="1"/>
        <pt x="25" y="448" on="1"/>
        <pt x="26" y="461" on="0"/>
        <pt x="33" y="477" on="0"/>
        <pt x="44" y="487" on="1"/>
        <pt x="280" y="701" on="1"/>
        <pt x="288" y="708" on="0"/>
        <pt x="299" y="708" on="1"/>
        <pt x="305" y="708" on="0"/>
        <pt x="312" y="705" on="0"/>
        <pt x="316" y="701" on="1"/>
        <pt x="506" y="487" on="1"/>
      </contour>
    </TTGlyph>
    <TTGlyph name="asciicircum" xMin="38" yMin="319" xMax="337" yMax="685">
      <contour>
        <pt x="337" y="339" on="1"/>
        <pt x="335" y="319" on="0"/>
        <pt x="310" y="319" on="1"/>
        <pt x="297" y="319" on="1"/>
        <pt x="267" y="319" on="0"/>
        <pt x="263" y="344" on="1"/>
        <pt x="217" y="596" on="1"/>
        <pt x="115" y="344" on="1"/>
        <pt x="105" y="319" on="0"/>
        <pt x="76" y="319" on="1"/>
        <pt x="62" y="319" on="1"/>
        <pt x="38" y="319" on="0"/>
        <pt x="40" y="339" on="1"/>
        <pt x="40" y="346" on="0"/>
        <pt x="44" y="353" on="1"/>
        <pt x="179" y="662" on="1"/>
        <pt x="190" y="685" on="0"/>
        <pt x="213" y="685" on="1"/>
        <pt x="236" y="685" on="1"/>
        <pt x="248" y="685" on="0"/>
        <pt x="262" y="674" on="0"/>
        <pt x="265" y="662" on="1"/>
        <pt x="336" y="353" on="1"/>
      </contour>
    </TTGlyph>
    <TTGlyph name="asciitilde" xMin="46" yMin="221" xMax="393" yMax="328">
      <contour>
        <pt x="281" y="223" on="0"/>
        <pt x="242" y="234" on="0"/>
        <pt x="212" y="244" on="1"/>
        <pt x="206" y="246" on="0"/>
        <pt x="154" y="263" on="0"/>
        <pt x="136" y="263" on="1"/>
        <pt x="116" y="263" on="0"/>
        <pt x="98" y="237" on="1"/>
        <pt x="93" y="231" on="0"/>
        <pt x="81" y="221" on="0"/>
        <pt x="76" y="221" on="1"/>
        <pt x="70" y="221" on="0"/>
        <pt x="65" y="225" on="1"/>
        <pt x="57" y="229" on="1"/>
        <pt x="47" y="234" on="0"/>
        <pt x="46" y="243" on="1"/>
        <pt x="46" y="249" on="0"/>
        <pt x="50" y="257" on="1"/>
        <pt x="77" y="326" on="0"/>
        <pt x="142" y="326" on="1"/>
        <pt x="171" y="326" on="0"/>
        <pt x="228" y="305" on="1"/>
        <pt x="249" y="298" on="0"/>
        <pt x="289" y="287" on="0"/>
        <pt x="303" y="287" on="1"/>
        <pt x="324" y="287" on="0"/>
        <pt x="342" y="312" on="1"/>
        <pt x="348" y="320" on="0"/>
        <pt x="358" y="328" on="0"/>
        <pt x="364" y="328" on="1"/>
        <pt x="368" y="328" on="0"/>
        <pt x="374" y="325" on="1"/>
        <pt x="382" y="320" on="1"/>
        <pt x="391" y="316" on="0"/>
        <pt x="393" y="307" on="1"/>
        <pt x="393" y="300" on="0"/>
        <pt x="389" y="292" on="1"/>
        <pt x="361" y="223" on="0"/>
        <pt x="297" y="223" on="1"/>
      </contour>
    </TTGlyph>
    <TTGlyph name="asterisk" xMin="55" yMin="429" xMax="311" yMax="709">
      <contour>
        <pt x="87" y="429" on="0"/>
        <pt x="70" y="443" on="0"/>
        <pt x="71" y="450" on="1"/>
        <pt x="73" y="458" on="0"/>
        <pt x="79" y="466" on="1"/>
        <pt x="142" y="553" on="1"/>
        <pt x="70" y="583" on="1"/>
        <pt x="64" y="586" on="0"/>
        <pt x="55" y="593" on="0"/>
        <pt x="55" y="598" on="1"/>
        <pt x="55" y="610" on="0"/>
        <pt x="70" y="628" on="0"/>
        <pt x="79" y="628" on="1"/>
        <pt x="87" y="628" on="0"/>
        <pt x="92" y="625" on="1"/>
        <pt x="160" y="599" on="1"/>
        <pt x="170" y="686" on="1"/>
        <pt x="171" y="709" on="0"/>
        <pt x="195" y="709" on="1"/>
        <pt x="207" y="709" on="0"/>
        <pt x="217" y="698" on="0"/>
        <pt x="215" y="686" on="1"/>
        <pt x="206" y="599" on="1"/>
        <pt x="279" y="625" on="1"/>
        <pt x="285" y="628" on="0"/>
        <pt x="293" y="628" on="1"/>
        <pt x="301" y="628" on="0"/>
        <pt x="311" y="615" on="0"/>
        <pt x="311" y="605" on="1"/>
        <pt x="311" y="596" on="0"/>
        <pt x="303" y="588" on="0"/>
        <pt x="293" y="583" on="1"/>
        <pt x="212" y="553" on="1"/>
        <pt x="259" y="466" on="1"/>
        <pt x="263" y="456" on="0"/>
        <pt x="263" y="453" on="1"/>
        <pt x="263" y="445" on="0"/>
        <pt x="244" y="429" on="0"/>
        <pt x="235" y="429" on="1"/>
        <pt x="225" y="429" on="0"/>
        <pt x="219" y="440" on="1"/>
        <pt x="175" y="522" on="1"/>
        <pt x="114" y="440" on="1"/>
        <pt x="105" y="429" on="0"/>
        <pt x="95" y="429" on="1"/>
      </contour>
    </TTGlyph>
    <TTGlyph name="at" xMin="55" yMin="-125" xMax="727" yMax="706">
      <contour>
        <pt x="527" y="706" on="0"/>
        <pt x="656" y="625" on="0"/>
        <pt x="727" y="476" on="0"/>
        <pt x="727" y="377" on="1"/>
        <pt x="727" y="289" on="0"/>
        <pt x="676" y="141" on="0"/>
        <pt x="586" y="55" on="0"/>
        <pt x="529" y="55" on="1"/>
        <pt x="492" y="55" on="0"/>
        <pt x="445" y="92" on="0"/>
        <pt x="440" y="127" on="1"/>
        <pt x="421" y="91" on="0"/>
        <pt x="365" y="55" on="0"/>
        <pt x="332" y="55" on="1"/>
        <pt x="285" y="55" on="0"/>
        <pt x="215" y="142" on="0"/>
        <pt x="215" y="237" on="1"/>
        <pt x="215" y="315" on="0"/>
        <pt x="258" y="438" on="0"/>
        <pt x="335" y="506" on="0"/>
        <pt x="386" y="506" on="1"/>
        <pt x="415" y="506" on="0"/>
        <pt x="461" y="479" on="0"/>
        <pt x="475" y="462" on="1"/>
        <pt x="483" y="487" on="0"/>
        <pt x="496" y="502" on="0"/>
        <pt x="514" y="502" on="1"/>
        <pt x="522" y="502" on="1"/>
        <pt x="551" y="502" on="0"/>
        <pt x="551" y="480" on="1"/>
        <pt x="542" y="380" on="1"/>
        <pt x="538" y="328" on="0"/>
        <pt x="524" y="165" on="0"/>
        <pt x="524" y="154" on="1"/>
        <pt x="524" y="132" on="0"/>
        <pt x="544" y="117" on="0"/>
        <pt x="556" y="117" on="1"/>
        <pt x="585" y="117" on="0"/>
        <pt x="638" y="191" on="0"/>
        <pt x="670" y="312" on="0"/>
        <pt x="670" y="379" on="1"/>
        <pt x="670" y="463" on="0"/>
        <pt x="612" y="590" on="0"/>
        <pt x="508" y="659" on="0"/>
        <pt x="439" y="659" on="1"/>
        <pt x="349" y="659" on="0"/>
        <pt x="199" y="547" on="0"/>
        <pt x="112" y="353" on="0"/>
        <pt x="112" y="236" on="1"/>
        <pt x="112" y="143" on="0"/>
        <pt x="168" y="1" on="0"/>
        <pt x="270" y="-78" on="0"/>
        <pt x="337" y="-78" on="1"/>
        <pt x="370" y="-78" on="0"/>
        <pt x="415" y="-66" on="0"/>
        <pt x="438" y="-56" on="1"/>
        <pt x="456" y="-49" on="0"/>
        <pt x="461" y="-49" on="1"/>
        <pt x="475" y="-49" on="0"/>
        <pt x="475" y="-75" on="1"/>
        <pt x="475" y="-101" on="0"/>
        <pt x="379" y="-125" on="0"/>
        <pt x="332" y="-125" on="1"/>
        <pt x="250" y="-125" on="0"/>
        <pt x="125" y="-33" on="0"/>
        <pt x="55" y="132" on="0"/>
        <pt x="55" y="238" on="1"/>
        <pt x="55" y="367" on="0"/>
        <pt x="157" y="582" on="0"/>
        <pt x="334" y="706" on="0"/>
        <pt x="442" y="706" on="1"/>
      </contour>
      <contour>
        <pt x="444" y="261" on="0"/>
        <pt x="455" y="383" on="0"/>
        <pt x="460" y="407" on="1"/>
        <pt x="434" y="433" on="0"/>
        <pt x="401" y="433" on="1"/>
        <pt x="349" y="433" on="0"/>
        <pt x="303" y="328" on="0"/>
        <pt x="303" y="243" on="1"/>
        <pt x="303" y="128" on="0"/>
        <pt x="361" y="128" on="1"/>
        <pt x="382" y="128" on="0"/>
        <pt x="425" y="169" on="0"/>
        <pt x="441" y="215" on="1"/>
      </contour>
    </TTGlyph>
    <TTGlyph name="atilde" xMin="40" yMin="-8" xMax="451" yMax="693">
      <component glyphName="a" x="0" y="0" flags="0x0"/>
      <component glyphName="tilde" x="113" y="0" flags="0x0"/>
    </TTGlyph>
    <TTGlyph name="b" xMin="36" yMin="-7" xMax="436" yMax="753">
      <contour>
        <pt x="215" y="-7" on="0"/>
        <pt x="158" y="31" on="0"/>
        <pt x="140" y="67" on="1"/>
        <pt x="125" y="14" on="1"/>
        <pt x="121" y="5" on="0"/>
        <pt x="102" y="-2" on="0"/>
        <pt x="86" y="-2" on="1"/>
        <pt x="78" y="-2" on="1"/>
        <pt x="36" y="-2" on="0"/>
        <pt x="39" y="23" on="1"/>
        <pt x="114" y="728" on="1"/>
        <pt x="116" y="753" on="0"/>
        <pt x="160" y="753" on="1"/>
        <pt x="176" y="753" on="1"/>
        <pt x="220" y="753" on="0"/>
        <pt x="218" y="728" on="1"/>
        <pt x="192" y="485" on="1"/>
        <pt x="214" y="506" on="0"/>
        <pt x="263" y="530" on="0"/>
        <pt x="296" y="530" on="1"/>
        <pt x="362" y="530" on="0"/>
        <pt x="436" y="423" on="0"/>
        <pt x="436" y="325" on="1"/>
        <pt x="436" y="297" on="0"/>
        <pt x="433" y="264" on="1"/>
        <pt x="425" y="182" on="0"/>
        <pt x="373" y="60" on="0"/>
        <pt x="296" y="-7" on="0"/>
        <pt x="249" y="-7" on="1"/>
      </contour>
      <contour>
        <pt x="306" y="80" on="0"/>
        <pt x="326" y="265" on="1"/>
        <pt x="330" y="309" on="0"/>
        <pt x="330" y="326" on="1"/>
        <pt x="330" y="443" on="0"/>
        <pt x="260" y="443" on="1"/>
        <pt x="217" y="443" on="0"/>
        <pt x="184" y="407" on="1"/>
        <pt x="155" y="139" on="1"/>
        <pt x="169" y="111" on="0"/>
        <pt x="207" y="80" on="0"/>
        <pt x="229" y="80" on="1"/>
      </contour>
    </TTGlyph>
    <TTGlyph name="backslash" xMin="56" yMin="-21" xMax="266" yMax="702">
      <contour>
        <pt x="190" y="-21" on="0"/>
        <pt x="187" y="3" on="1"/>
        <pt x="58" y="663" on="1"/>
        <pt x="56" y="676" on="0"/>
        <pt x="56" y="683" on="1"/>
        <pt x="59" y="702" on="0"/>
        <pt x="84" y="702" on="1"/>
        <pt x="103" y="702" on="1"/>
        <pt x="131" y="702" on="0"/>
        <pt x="135" y="678" on="1"/>
        <pt x="265" y="18" on="1"/>
        <pt x="265" y="10" on="0"/>
        <pt x="266" y="1" on="0"/>
        <pt x="266" y="-1" on="1"/>
        <pt x="263" y="-21" on="0"/>
        <pt x="236" y="-21" on="1"/>
        <pt x="217" y="-21" on="1"/>
      </contour>
    </TTGlyph>
    <TTGlyph name="bar" xMin="22" yMin="-139" xMax="191" yMax="769">
      <contour>
        <pt x="191" y="769" on="0"/>
        <pt x="188" y="745" on="1"/>
        <pt x="97" y="-115" on="1"/>
        <pt x="96" y="-139" on="0"/>
        <pt x="64" y="-139" on="1"/>
        <pt x="52" y="-139" on="1"/>
        <pt x="36" y="-139" on="0"/>
        <pt x="22" y="-127" on="0"/>
        <pt x="23" y="-115" on="1"/>
        <pt x="113" y="745" on="1"/>
        <pt x="116" y="769" on="0"/>
        <pt x="147" y="769" on="1"/>
        <pt x="159" y="769" on="1"/>
      </contour>
    </TTGlyph>
    <TTGlyph name="baraccent" xMin="43" yMin="281" xMax="290" yMax="358">
      <contour>
        <pt x="43" y="281" on="0"/>
        <pt x="46" y="314" on="1"/>
        <pt x="47" y="325" on="1"/>
        <pt x="49" y="342" on="0"/>
        <pt x="61" y="358" on="0"/>
        <pt x="72" y="358" on="1"/>
        <pt x="269" y="358" on="1"/>
        <pt x="281" y="358" on="0"/>
        <pt x="290" y="342" on="0"/>
        <pt x="288" y="325" on="1"/>
        <pt x="286" y="314" on="1"/>
        <pt x="284" y="297" on="0"/>
        <pt x="273" y="281" on="0"/>
        <pt x="261" y="281" on="1"/>
        <pt x="65" y="281" on="1"/>
      </contour>
    </TTGlyph>
    <TTGlyph name="baraccentlong" xMin="-64" yMin="281" xMax="586" yMax="359">
      <contour>
        <pt x="586" y="359" on="0"/>
        <pt x="586" y="331" on="1"/>
        <pt x="586" y="313" on="0"/>
        <pt x="574" y="281" on="0"/>
        <pt x="557" y="281" on="1"/>
        <pt x="-45" y="281" on="1"/>
        <pt x="-56" y="281" on="0"/>
        <pt x="-64" y="295" on="0"/>
        <pt x="-64" y="309" on="1"/>
        <pt x="-64" y="359" on="0"/>
        <pt x="-36" y="359" on="1"/>
        <pt x="566" y="359" on="1"/>
      </contour>
    </TTGlyph>
    <TTGlyph name="baraccentmedium" xMin="2" yMin="281" xMax="413" yMax="359">
      <contour>
        <pt x="413" y="359" on="0"/>
        <pt x="413" y="331" on="1"/>
        <pt x="413" y="313" on="0"/>
        <pt x="401" y="281" on="0"/>
        <pt x="384" y="281" on="1"/>
        <pt x="21" y="281" on="1"/>
        <pt x="10" y="281" on="0"/>
        <pt x="2" y="295" on="0"/>
        <pt x="2" y="309" on="1"/>
        <pt x="2" y="359" on="0"/>
        <pt x="30" y="359" on="1"/>
        <pt x="393" y="359" on="1"/>
      </contour>
    </TTGlyph>
    <TTGlyph name="braceleft" xMin="23" yMin="-138" xMax="289" yMax="768">
      <contour>
        <pt x="101" y="-138" on="0"/>
        <pt x="57" y="-92" on="0"/>
        <pt x="57" y="-44" on="1"/>
        <pt x="57" y="-30" on="0"/>
        <pt x="58" y="-22" on="1"/>
        <pt x="77" y="158" on="1"/>
        <pt x="79" y="186" on="0"/>
        <pt x="79" y="197" on="1"/>
        <pt x="79" y="225" on="0"/>
        <pt x="64" y="261" on="0"/>
        <pt x="46" y="270" on="1"/>
        <pt x="33" y="276" on="0"/>
        <pt x="23" y="294" on="0"/>
        <pt x="24" y="308" on="1"/>
        <pt x="25" y="322" on="1"/>
        <pt x="27" y="336" on="0"/>
        <pt x="42" y="354" on="0"/>
        <pt x="56" y="360" on="1"/>
        <pt x="82" y="372" on="0"/>
        <pt x="105" y="424" on="0"/>
        <pt x="110" y="472" on="1"/>
        <pt x="129" y="652" on="1"/>
        <pt x="135" y="711" on="0"/>
        <pt x="193" y="768" on="0"/>
        <pt x="225" y="768" on="1"/>
        <pt x="268" y="768" on="1"/>
        <pt x="280" y="768" on="0"/>
        <pt x="289" y="753" on="0"/>
        <pt x="288" y="736" on="1"/>
        <pt x="288" y="729" on="1"/>
        <pt x="286" y="712" on="0"/>
        <pt x="273" y="697" on="0"/>
        <pt x="262" y="697" on="1"/>
        <pt x="251" y="697" on="1"/>
        <pt x="232" y="697" on="0"/>
        <pt x="215" y="671" on="0"/>
        <pt x="212" y="643" on="1"/>
        <pt x="193" y="456" on="1"/>
        <pt x="187" y="401" on="0"/>
        <pt x="137" y="330" on="0"/>
        <pt x="111" y="314" on="1"/>
        <pt x="129" y="304" on="0"/>
        <pt x="164" y="244" on="0"/>
        <pt x="164" y="197" on="1"/>
        <pt x="164" y="182" on="0"/>
        <pt x="163" y="174" on="1"/>
        <pt x="144" y="-12" on="1"/>
        <pt x="143" y="-19" on="0"/>
        <pt x="143" y="-31" on="1"/>
        <pt x="143" y="-67" on="0"/>
        <pt x="169" y="-67" on="1"/>
        <pt x="182" y="-67" on="1"/>
        <pt x="201" y="-67" on="0"/>
        <pt x="201" y="-89" on="1"/>
        <pt x="201" y="-95" on="0"/>
        <pt x="200" y="-99" on="1"/>
        <pt x="199" y="-106" on="1"/>
        <pt x="198" y="-123" on="0"/>
        <pt x="185" y="-138" on="0"/>
        <pt x="173" y="-138" on="1"/>
        <pt x="130" y="-138" on="1"/>
      </contour>
    </TTGlyph>
    <TTGlyph name="braceright" xMin="-25" yMin="-138" xMax="241" yMax="768">
      <contour>
        <pt x="-16" y="-138" on="0"/>
        <pt x="-25" y="-123" on="0"/>
        <pt x="-24" y="-106" on="1"/>
        <pt x="-23" y="-99" on="1"/>
        <pt x="-21" y="-82" on="0"/>
        <pt x="-8" y="-67" on="0"/>
        <pt x="3" y="-67" on="1"/>
        <pt x="15" y="-67" on="1"/>
        <pt x="33" y="-67" on="0"/>
        <pt x="49" y="-40" on="0"/>
        <pt x="51" y="-12" on="1"/>
        <pt x="71" y="174" on="1"/>
        <pt x="77" y="231" on="0"/>
        <pt x="130" y="303" on="0"/>
        <pt x="154" y="314" on="1"/>
        <pt x="134" y="328" on="0"/>
        <pt x="100" y="388" on="0"/>
        <pt x="100" y="433" on="1"/>
        <pt x="100" y="448" on="0"/>
        <pt x="101" y="456" on="1"/>
        <pt x="120" y="643" on="1"/>
        <pt x="121" y="650" on="0"/>
        <pt x="121" y="663" on="1"/>
        <pt x="121" y="680" on="0"/>
        <pt x="109" y="697" on="0"/>
        <pt x="94" y="697" on="1"/>
        <pt x="83" y="697" on="1"/>
        <pt x="64" y="697" on="0"/>
        <pt x="64" y="719" on="1"/>
        <pt x="64" y="725" on="0"/>
        <pt x="65" y="729" on="1"/>
        <pt x="65" y="736" on="1"/>
        <pt x="66" y="753" on="0"/>
        <pt x="79" y="768" on="0"/>
        <pt x="91" y="768" on="1"/>
        <pt x="134" y="768" on="1"/>
        <pt x="163" y="768" on="0"/>
        <pt x="207" y="722" on="0"/>
        <pt x="207" y="673" on="1"/>
        <pt x="207" y="660" on="0"/>
        <pt x="206" y="652" on="1"/>
        <pt x="187" y="472" on="1"/>
        <pt x="185" y="442" on="0"/>
        <pt x="185" y="432" on="1"/>
        <pt x="185" y="404" on="0"/>
        <pt x="200" y="369" on="0"/>
        <pt x="218" y="360" on="1"/>
        <pt x="231" y="354" on="0"/>
        <pt x="241" y="336" on="0"/>
        <pt x="240" y="322" on="1"/>
        <pt x="239" y="308" on="1"/>
        <pt x="238" y="294" on="0"/>
        <pt x="222" y="276" on="0"/>
        <pt x="208" y="270" on="1"/>
        <pt x="182" y="258" on="0"/>
        <pt x="159" y="206" on="0"/>
        <pt x="154" y="158" on="1"/>
        <pt x="135" y="-22" on="1"/>
        <pt x="129" y="-82" on="0"/>
        <pt x="71" y="-138" on="0"/>
        <pt x="39" y="-138" on="1"/>
        <pt x="-4" y="-138" on="1"/>
      </contour>
    </TTGlyph>
    <TTGlyph name="bracketleft" xMin="1" yMin="-138" xMax="248" yMax="768">
      <contour>
        <pt x="13" y="-138" on="0"/>
        <pt x="1" y="-122" on="0"/>
        <pt x="3" y="-105" on="1"/>
        <pt x="91" y="735" on="1"/>
        <pt x="93" y="752" on="0"/>
        <pt x="108" y="768" on="0"/>
        <pt x="124" y="768" on="1"/>
        <pt x="228" y="768" on="1"/>
        <pt x="240" y="768" on="0"/>
        <pt x="248" y="754" on="0"/>
        <pt x="246" y="736" on="1"/>
        <pt x="246" y="728" on="1"/>
        <pt x="244" y="711" on="0"/>
        <pt x="232" y="696" on="0"/>
        <pt x="220" y="696" on="1"/>
        <pt x="171" y="696" on="1"/>
        <pt x="91" y="-66" on="1"/>
        <pt x="140" y="-66" on="1"/>
        <pt x="159" y="-66" on="0"/>
        <pt x="159" y="-88" on="1"/>
        <pt x="159" y="-95" on="0"/>
        <pt x="158" y="-99" on="1"/>
        <pt x="158" y="-106" on="1"/>
        <pt x="156" y="-124" on="0"/>
        <pt x="145" y="-138" on="0"/>
        <pt x="133" y="-138" on="1"/>
        <pt x="29" y="-138" on="1"/>
      </contour>
    </TTGlyph>
    <TTGlyph name="bracketright" xMin="1" yMin="-138" xMax="248" yMax="768">
      <contour>
        <pt x="10" y="-138" on="0"/>
        <pt x="1" y="-123" on="0"/>
        <pt x="3" y="-106" on="1"/>
        <pt x="3" y="-99" on="1"/>
        <pt x="7" y="-66" on="0"/>
        <pt x="29" y="-66" on="1"/>
        <pt x="79" y="-66" on="1"/>
        <pt x="159" y="696" on="1"/>
        <pt x="109" y="696" on="1"/>
        <pt x="90" y="696" on="0"/>
        <pt x="90" y="718" on="1"/>
        <pt x="90" y="724" on="0"/>
        <pt x="91" y="728" on="1"/>
        <pt x="91" y="736" on="1"/>
        <pt x="93" y="753" on="0"/>
        <pt x="105" y="768" on="0"/>
        <pt x="116" y="768" on="1"/>
        <pt x="220" y="768" on="1"/>
        <pt x="236" y="768" on="0"/>
        <pt x="248" y="752" on="0"/>
        <pt x="246" y="735" on="1"/>
        <pt x="158" y="-105" on="1"/>
        <pt x="156" y="-122" on="0"/>
        <pt x="141" y="-138" on="0"/>
        <pt x="125" y="-138" on="1"/>
        <pt x="21" y="-138" on="1"/>
      </contour>
    </TTGlyph>
    <TTGlyph name="breve" xMin="50" yMin="582" xMax="295" yMax="715">
      <contour>
        <pt x="111" y="582" on="0"/>
        <pt x="50" y="636" on="0"/>
        <pt x="50" y="681" on="1"/>
        <pt x="51" y="694" on="1"/>
        <pt x="54" y="715" on="0"/>
        <pt x="78" y="715" on="1"/>
        <pt x="88" y="715" on="0"/>
        <pt x="96" y="705" on="0"/>
        <pt x="99" y="692" on="1"/>
        <pt x="105" y="674" on="0"/>
        <pt x="138" y="655" on="0"/>
        <pt x="169" y="655" on="1"/>
        <pt x="226" y="655" on="0"/>
        <pt x="246" y="693" on="1"/>
        <pt x="252" y="706" on="0"/>
        <pt x="261" y="715" on="0"/>
        <pt x="271" y="715" on="1"/>
        <pt x="295" y="715" on="0"/>
        <pt x="292" y="694" on="1"/>
        <pt x="287" y="643" on="0"/>
        <pt x="214" y="582" on="0"/>
        <pt x="160" y="582" on="1"/>
      </contour>
    </TTGlyph>
    <TTGlyph name="brokenbar" xMin="23" yMin="-140" xMax="188" yMax="770">
      <contour>
        <pt x="175" y="770" on="0"/>
        <pt x="188" y="758" on="0"/>
        <pt x="188" y="745" on="1"/>
        <pt x="188" y="741" on="0"/>
        <pt x="173" y="602" on="1"/>
        <pt x="154" y="421" on="1"/>
        <pt x="151" y="396" on="0"/>
        <pt x="120" y="396" on="1"/>
        <pt x="109" y="396" on="1"/>
        <pt x="93" y="396" on="0"/>
        <pt x="79" y="408" on="0"/>
        <pt x="79" y="420" on="1"/>
        <pt x="79" y="427" on="0"/>
        <pt x="105" y="661" on="0"/>
        <pt x="111" y="720" on="1"/>
        <pt x="114" y="745" on="1"/>
        <pt x="116" y="770" on="0"/>
        <pt x="147" y="770" on="1"/>
        <pt x="159" y="770" on="1"/>
      </contour>
      <contour>
        <pt x="119" y="233" on="0"/>
        <pt x="132" y="221" on="0"/>
        <pt x="132" y="208" on="1"/>
        <pt x="132" y="199" on="0"/>
        <pt x="115" y="46" on="1"/>
        <pt x="98" y="-115" on="1"/>
        <pt x="95" y="-140" on="0"/>
        <pt x="64" y="-140" on="1"/>
        <pt x="52" y="-140" on="1"/>
        <pt x="36" y="-140" on="0"/>
        <pt x="23" y="-128" on="0"/>
        <pt x="23" y="-115" on="1"/>
        <pt x="25" y="-94" on="0"/>
        <pt x="34" y="-6" on="0"/>
        <pt x="39" y="43" on="1"/>
        <pt x="46" y="100" on="0"/>
        <pt x="54" y="183" on="0"/>
        <pt x="57" y="208" on="1"/>
        <pt x="59" y="233" on="0"/>
        <pt x="91" y="233" on="1"/>
        <pt x="103" y="233" on="1"/>
      </contour>
    </TTGlyph>
    <TTGlyph name="bullet" xMin="38" yMin="200" xMax="274" yMax="453">
      <contour>
        <pt x="96" y="200" on="0"/>
        <pt x="38" y="254" on="0"/>
        <pt x="38" y="306" on="1"/>
        <pt x="38" y="377" on="0"/>
        <pt x="113" y="453" on="0"/>
        <pt x="169" y="453" on="1"/>
        <pt x="215" y="453" on="0"/>
        <pt x="274" y="398" on="0"/>
        <pt x="274" y="346" on="1"/>
        <pt x="274" y="333" on="0"/>
        <pt x="273" y="326" on="1"/>
        <pt x="266" y="264" on="0"/>
        <pt x="194" y="200" on="0"/>
        <pt x="143" y="200" on="1"/>
      </contour>
    </TTGlyph>
    <TTGlyph name="c" xMin="39" yMin="-7" xMax="407" yMax="530">
      <contour>
        <pt x="131" y="-7" on="0"/>
        <pt x="39" y="92" on="0"/>
        <pt x="39" y="198" on="1"/>
        <pt x="39" y="217" on="0"/>
        <pt x="43" y="263" on="1"/>
        <pt x="57" y="406" on="0"/>
        <pt x="179" y="530" on="0"/>
        <pt x="280" y="530" on="1"/>
        <pt x="312" y="530" on="0"/>
        <pt x="371" y="515" on="0"/>
        <pt x="407" y="491" on="0"/>
        <pt x="405" y="477" on="1"/>
        <pt x="404" y="463" on="0"/>
        <pt x="374" y="416" on="0"/>
        <pt x="364" y="416" on="1"/>
        <pt x="362" y="416" on="0"/>
        <pt x="354" y="421" on="0"/>
        <pt x="351" y="422" on="1"/>
        <pt x="315" y="444" on="0"/>
        <pt x="278" y="444" on="1"/>
        <pt x="224" y="444" on="0"/>
        <pt x="161" y="361" on="0"/>
        <pt x="151" y="265" on="1"/>
        <pt x="148" y="232" on="0"/>
        <pt x="148" y="206" on="1"/>
        <pt x="148" y="139" on="0"/>
        <pt x="192" y="79" on="0"/>
        <pt x="240" y="79" on="1"/>
        <pt x="282" y="79" on="0"/>
        <pt x="322" y="100" on="1"/>
        <pt x="336" y="108" on="0"/>
        <pt x="338" y="108" on="1"/>
        <pt x="349" y="108" on="0"/>
        <pt x="369" y="64" on="0"/>
        <pt x="367" y="50" on="1"/>
        <pt x="366" y="29" on="0"/>
        <pt x="268" y="-7" on="0"/>
        <pt x="225" y="-7" on="1"/>
      </contour>
    </TTGlyph>
    <TTGlyph name="cacute" xMin="39" yMin="-7" xMax="405" yMax="733">
      <component glyphName="c" x="0" y="0" flags="0x0"/>
      <component glyphName="acute" x="172" y="0" flags="0x0"/>
    </TTGlyph>
    <TTGlyph name="cacute.loclPLK" xMin="39" yMin="-7" xMax="405" yMax="733">
      <component glyphName="c" x="0" y="0" flags="0x0"/>
      <component glyphName="acute.loclPLK" x="172" y="0" flags="0x0"/>
    </TTGlyph>
    <TTGlyph name="caron" xMin="59" yMin="580" xMax="288" yMax="723">
      <contour>
        <pt x="120" y="580" on="0"/>
        <pt x="109" y="601" on="1"/>
        <pt x="64" y="692" on="1"/>
        <pt x="59" y="707" on="0"/>
        <pt x="59" y="710" on="1"/>
        <pt x="61" y="723" on="0"/>
        <pt x="81" y="723" on="1"/>
        <pt x="102" y="723" on="1"/>
        <pt x="123" y="723" on="0"/>
        <pt x="133" y="707" on="1"/>
        <pt x="165" y="643" on="1"/>
        <pt x="211" y="707" on="1"/>
        <pt x="221" y="723" on="0"/>
        <pt x="246" y="723" on="1"/>
        <pt x="268" y="723" on="1"/>
        <pt x="288" y="723" on="0"/>
        <pt x="286" y="709" on="1"/>
        <pt x="286" y="705" on="0"/>
        <pt x="277" y="692" on="1"/>
        <pt x="212" y="601" on="1"/>
        <pt x="204" y="589" on="0"/>
        <pt x="182" y="580" on="0"/>
        <pt x="165" y="580" on="1"/>
        <pt x="153" y="580" on="1"/>
      </contour>
    </TTGlyph>
    <TTGlyph name="caron.alt" xMin="75" yMin="522" xMax="183" yMax="700">
      <contour>
        <pt x="96" y="522" on="0"/>
        <pt x="75" y="530" on="0"/>
        <pt x="75" y="539" on="1"/>
        <pt x="75" y="549" on="0"/>
        <pt x="79" y="579" on="1"/>
        <pt x="80" y="588" on="0"/>
        <pt x="85" y="638" on="0"/>
        <pt x="85" y="665" on="1"/>
        <pt x="85" y="681" on="0"/>
        <pt x="108" y="700" on="0"/>
        <pt x="131" y="700" on="1"/>
        <pt x="143" y="700" on="1"/>
        <pt x="162" y="700" on="0"/>
        <pt x="183" y="682" on="0"/>
        <pt x="183" y="667" on="1"/>
        <pt x="183" y="628" on="0"/>
        <pt x="157" y="562" on="0"/>
        <pt x="121" y="522" on="0"/>
        <pt x="108" y="522" on="1"/>
      </contour>
    </TTGlyph>
    <TTGlyph name="ccaron" xMin="39" yMin="-7" xMax="405" yMax="723">
      <component glyphName="c" x="0" y="0" flags="0x0"/>
      <component glyphName="caron" x="110" y="0" flags="0x0"/>
    </TTGlyph>
    <TTGlyph name="ccedilla" xMin="39" yMin="-211" xMax="407" yMax="530">
      <contour>
        <pt x="312" y="530" on="0"/>
        <pt x="371" y="515" on="0"/>
        <pt x="407" y="491" on="0"/>
        <pt x="405" y="477" on="1"/>
        <pt x="404" y="463" on="0"/>
        <pt x="374" y="416" on="0"/>
        <pt x="364" y="416" on="1"/>
        <pt x="362" y="416" on="0"/>
        <pt x="354" y="421" on="0"/>
        <pt x="351" y="422" on="1"/>
        <pt x="315" y="444" on="0"/>
        <pt x="278" y="444" on="1"/>
        <pt x="224" y="444" on="0"/>
        <pt x="161" y="361" on="0"/>
        <pt x="151" y="265" on="1"/>
        <pt x="148" y="232" on="0"/>
        <pt x="148" y="206" on="1"/>
        <pt x="148" y="139" on="0"/>
        <pt x="192" y="79" on="0"/>
        <pt x="240" y="79" on="1"/>
        <pt x="282" y="79" on="0"/>
        <pt x="322" y="100" on="1"/>
        <pt x="336" y="108" on="0"/>
        <pt x="338" y="108" on="1"/>
        <pt x="349" y="108" on="0"/>
        <pt x="369" y="64" on="0"/>
        <pt x="367" y="50" on="1"/>
        <pt x="366" y="31" on="0"/>
        <pt x="283" y="-3" on="0"/>
        <pt x="240" y="-6" on="1"/>
        <pt x="226" y="-56" on="1"/>
        <pt x="254" y="-58" on="0"/>
        <pt x="297" y="-90" on="0"/>
        <pt x="297" y="-126" on="1"/>
        <pt x="297" y="-171" on="0"/>
        <pt x="243" y="-211" on="0"/>
        <pt x="199" y="-211" on="1"/>
        <pt x="164" y="-211" on="0"/>
        <pt x="101" y="-184" on="0"/>
        <pt x="101" y="-165" on="1"/>
        <pt x="101" y="-154" on="0"/>
        <pt x="117" y="-134" on="0"/>
        <pt x="124" y="-134" on="1"/>
        <pt x="130" y="-134" on="0"/>
        <pt x="148" y="-142" on="1"/>
        <pt x="174" y="-155" on="0"/>
        <pt x="192" y="-155" on="1"/>
        <pt x="204" y="-155" on="0"/>
        <pt x="223" y="-142" on="0"/>
        <pt x="223" y="-129" on="1"/>
        <pt x="223" y="-116" on="0"/>
        <pt x="208" y="-104" on="0"/>
        <pt x="193" y="-99" on="1"/>
        <pt x="181" y="-94" on="0"/>
        <pt x="171" y="-86" on="0"/>
        <pt x="171" y="-79" on="1"/>
        <pt x="171" y="-73" on="0"/>
        <pt x="181" y="-39" on="0"/>
        <pt x="192" y="-5" on="1"/>
        <pt x="115" y="3" on="0"/>
        <pt x="39" y="102" on="0"/>
        <pt x="39" y="199" on="1"/>
        <pt x="39" y="217" on="0"/>
        <pt x="43" y="263" on="1"/>
        <pt x="57" y="406" on="0"/>
        <pt x="179" y="530" on="0"/>
        <pt x="280" y="530" on="1"/>
      </contour>
    </TTGlyph>
    <TTGlyph name="ccircumflex" xMin="39" yMin="-7" xMax="405" yMax="718">
      <component glyphName="c" x="0" y="0" flags="0x0"/>
      <component glyphName="circumflex" x="108" y="0" flags="0x0"/>
    </TTGlyph>
    <TTGlyph name="cdotaccent" xMin="39" yMin="-7" xMax="405" yMax="702">
      <component glyphName="c" x="0" y="0" flags="0x0"/>
      <component glyphName="dotaccent" x="105" y="0" flags="0x0"/>
    </TTGlyph>
    <TTGlyph name="cedilla" xMin="26" yMin="-211" xMax="222" yMax="3">
      <contour>
        <pt x="179" y="-58" on="0"/>
        <pt x="222" y="-90" on="0"/>
        <pt x="222" y="-126" on="1"/>
        <pt x="222" y="-171" on="0"/>
        <pt x="168" y="-211" on="0"/>
        <pt x="124" y="-211" on="1"/>
        <pt x="89" y="-211" on="0"/>
        <pt x="26" y="-184" on="0"/>
        <pt x="26" y="-165" on="1"/>
        <pt x="26" y="-154" on="0"/>
        <pt x="42" y="-134" on="0"/>
        <pt x="49" y="-134" on="1"/>
        <pt x="55" y="-134" on="0"/>
        <pt x="73" y="-142" on="1"/>
        <pt x="99" y="-155" on="0"/>
        <pt x="117" y="-155" on="1"/>
        <pt x="129" y="-155" on="0"/>
        <pt x="148" y="-142" on="0"/>
        <pt x="148" y="-129" on="1"/>
        <pt x="148" y="-116" on="0"/>
        <pt x="133" y="-104" on="0"/>
        <pt x="118" y="-99" on="1"/>
        <pt x="106" y="-94" on="0"/>
        <pt x="96" y="-86" on="0"/>
        <pt x="96" y="-79" on="1"/>
        <pt x="96" y="-73" on="0"/>
        <pt x="107" y="-35" on="0"/>
        <pt x="120" y="3" on="1"/>
        <pt x="168" y="3" on="1"/>
        <pt x="151" y="-56" on="1"/>
      </contour>
    </TTGlyph>
    <TTGlyph name="cent" xMin="39" yMin="-72" xMax="408" yMax="582">
      <contour>
        <pt x="334" y="528" on="0"/>
        <pt x="408" y="497" on="0"/>
        <pt x="405" y="477" on="1"/>
        <pt x="404" y="463" on="0"/>
        <pt x="374" y="416" on="0"/>
        <pt x="364" y="416" on="1"/>
        <pt x="362" y="416" on="0"/>
        <pt x="354" y="421" on="0"/>
        <pt x="351" y="422" on="1"/>
        <pt x="315" y="444" on="0"/>
        <pt x="278" y="444" on="1"/>
        <pt x="239" y="79" on="1"/>
        <pt x="240" y="79" on="1"/>
        <pt x="282" y="79" on="0"/>
        <pt x="322" y="100" on="1"/>
        <pt x="336" y="108" on="0"/>
        <pt x="338" y="108" on="1"/>
        <pt x="349" y="108" on="0"/>
        <pt x="369" y="64" on="0"/>
        <pt x="367" y="50" on="1"/>
        <pt x="366" y="30" on="0"/>
        <pt x="274" y="-5" on="0"/>
        <pt x="230" y="-7" on="1"/>
        <pt x="225" y="-52" on="1"/>
        <pt x="222" y="-72" on="0"/>
        <pt x="204" y="-72" on="1"/>
        <pt x="198" y="-72" on="1"/>
        <pt x="187" y="-72" on="0"/>
        <pt x="180" y="-63" on="0"/>
        <pt x="180" y="-52" on="1"/>
        <pt x="185" y="-5" on="1"/>
        <pt x="111" y="5" on="0"/>
        <pt x="39" y="104" on="0"/>
        <pt x="39" y="198" on="1"/>
        <pt x="39" y="217" on="0"/>
        <pt x="43" y="263" on="1"/>
        <pt x="56" y="392" on="0"/>
        <pt x="157" y="518" on="0"/>
        <pt x="241" y="528" on="1"/>
        <pt x="245" y="562" on="1"/>
        <pt x="247" y="573" on="0"/>
        <pt x="256" y="582" on="0"/>
        <pt x="266" y="582" on="1"/>
        <pt x="272" y="582" on="1"/>
        <pt x="282" y="582" on="0"/>
        <pt x="290" y="573" on="0"/>
        <pt x="290" y="562" on="1"/>
        <pt x="287" y="530" on="1"/>
      </contour>
      <contour>
        <pt x="232" y="435" on="1"/>
        <pt x="199" y="421" on="0"/>
        <pt x="159" y="338" on="0"/>
        <pt x="151" y="265" on="1"/>
        <pt x="148" y="232" on="0"/>
        <pt x="148" y="205" on="1"/>
        <pt x="148" y="157" on="0"/>
        <pt x="170" y="100" on="0"/>
        <pt x="195" y="88" on="1"/>
      </contour>
    </TTGlyph>
    <TTGlyph name="circumflex" xMin="46" yMin="575" xMax="273" yMax="718">
      <contour>
        <pt x="46" y="575" on="0"/>
        <pt x="46" y="587" on="1"/>
        <pt x="48" y="592" on="0"/>
        <pt x="53" y="602" on="0"/>
        <pt x="55" y="605" on="1"/>
        <pt x="119" y="697" on="1"/>
        <pt x="134" y="718" on="0"/>
        <pt x="168" y="718" on="1"/>
        <pt x="179" y="718" on="1"/>
        <pt x="196" y="718" on="0"/>
        <pt x="216" y="708" on="0"/>
        <pt x="223" y="697" on="1"/>
        <pt x="268" y="605" on="1"/>
        <pt x="273" y="595" on="0"/>
        <pt x="273" y="588" on="1"/>
        <pt x="271" y="575" on="0"/>
        <pt x="252" y="575" on="1"/>
        <pt x="230" y="575" on="1"/>
        <pt x="207" y="575" on="0"/>
        <pt x="199" y="590" on="1"/>
        <pt x="166" y="655" on="1"/>
        <pt x="121" y="590" on="1"/>
        <pt x="108" y="575" on="0"/>
        <pt x="86" y="575" on="1"/>
        <pt x="65" y="575" on="1"/>
      </contour>
    </TTGlyph>
    <TTGlyph name="colon" xMin="11" yMin="-2" xMax="177" yMax="525">
      <contour>
        <pt x="74" y="402" on="0"/>
        <pt x="54" y="414" on="0"/>
        <pt x="56" y="427" on="1"/>
        <pt x="64" y="500" on="1"/>
        <pt x="67" y="525" on="0"/>
        <pt x="111" y="525" on="1"/>
        <pt x="133" y="525" on="1"/>
        <pt x="177" y="525" on="0"/>
        <pt x="174" y="500" on="1"/>
        <pt x="166" y="427" on="1"/>
        <pt x="164" y="414" on="0"/>
        <pt x="143" y="402" on="0"/>
        <pt x="120" y="402" on="1"/>
        <pt x="97" y="402" on="1"/>
      </contour>
      <contour>
        <pt x="11" y="-2" on="0"/>
        <pt x="14" y="23" on="1"/>
        <pt x="22" y="96" on="1"/>
        <pt x="23" y="121" on="0"/>
        <pt x="68" y="121" on="1"/>
        <pt x="90" y="121" on="1"/>
        <pt x="114" y="121" on="0"/>
        <pt x="133" y="109" on="0"/>
        <pt x="132" y="96" on="1"/>
        <pt x="124" y="23" on="1"/>
        <pt x="121" y="-2" on="0"/>
        <pt x="77" y="-2" on="1"/>
        <pt x="55" y="-2" on="1"/>
      </contour>
    </TTGlyph>
    <TTGlyph name="comma" xMin="-32" yMin="-119" xMax="125" yMax="121">
      <contour>
        <pt x="-13" y="-119" on="0"/>
        <pt x="-32" y="-111" on="0"/>
        <pt x="-32" y="-104" on="1"/>
        <pt x="-32" y="-99" on="0"/>
        <pt x="-24" y="-79" on="0"/>
        <pt x="-23" y="-75" on="1"/>
        <pt x="-4" y="-28" on="0"/>
        <pt x="18" y="38" on="0"/>
        <pt x="23" y="86" on="1"/>
        <pt x="25" y="102" on="0"/>
        <pt x="48" y="121" on="0"/>
        <pt x="70" y="121" on="1"/>
        <pt x="83" y="121" on="1"/>
        <pt x="105" y="121" on="0"/>
        <pt x="125" y="104" on="0"/>
        <pt x="123" y="89" on="1"/>
        <pt x="117" y="34" on="0"/>
        <pt x="71" y="-62" on="0"/>
        <pt x="16" y="-119" on="0"/>
        <pt x="-2" y="-119" on="1"/>
      </contour>
    </TTGlyph>
    <TTGlyph name="commaaccentinvert" xMin="109" yMin="582" xMax="227" yMax="767">
      <contour>
        <pt x="207" y="767" on="0"/>
        <pt x="227" y="759" on="0"/>
        <pt x="227" y="750" on="1"/>
        <pt x="227" y="745" on="0"/>
        <pt x="221" y="723" on="1"/>
        <pt x="203" y="674" on="0"/>
        <pt x="203" y="617" on="1"/>
        <pt x="203" y="582" on="0"/>
        <pt x="160" y="582" on="1"/>
        <pt x="147" y="582" on="1"/>
        <pt x="128" y="582" on="0"/>
        <pt x="109" y="600" on="0"/>
        <pt x="109" y="615" on="1"/>
        <pt x="109" y="655" on="0"/>
        <pt x="139" y="725" on="0"/>
        <pt x="180" y="767" on="0"/>
        <pt x="194" y="767" on="1"/>
      </contour>
    </TTGlyph>
    <TTGlyph name="copyright" xMin="19" yMin="-6" xMax="592" yMax="709">
      <contour>
        <pt x="225" y="-6" on="0"/>
        <pt x="95" y="78" on="0"/>
        <pt x="19" y="240" on="0"/>
        <pt x="19" y="353" on="1"/>
        <pt x="19" y="465" on="0"/>
        <pt x="95" y="626" on="0"/>
        <pt x="225" y="709" on="0"/>
        <pt x="306" y="709" on="1"/>
        <pt x="387" y="709" on="0"/>
        <pt x="517" y="626" on="0"/>
        <pt x="592" y="465" on="0"/>
        <pt x="592" y="353" on="1"/>
        <pt x="592" y="240" on="0"/>
        <pt x="517" y="78" on="0"/>
        <pt x="387" y="-6" on="0"/>
        <pt x="306" y="-6" on="1"/>
      </contour>
      <contour>
        <pt x="371" y="47" on="0"/>
        <pt x="476" y="118" on="0"/>
        <pt x="538" y="256" on="0"/>
        <pt x="538" y="353" on="1"/>
        <pt x="538" y="451" on="0"/>
        <pt x="476" y="588" on="0"/>
        <pt x="371" y="657" on="0"/>
        <pt x="306" y="657" on="1"/>
        <pt x="241" y="657" on="0"/>
        <pt x="136" y="588" on="0"/>
        <pt x="74" y="451" on="0"/>
        <pt x="74" y="353" on="1"/>
        <pt x="74" y="256" on="0"/>
        <pt x="136" y="118" on="0"/>
        <pt x="241" y="47" on="0"/>
        <pt x="306" y="47" on="1"/>
      </contour>
      <contour>
        <pt x="241" y="141" on="0"/>
        <pt x="168" y="243" on="0"/>
        <pt x="168" y="350" on="1"/>
        <pt x="168" y="559" on="0"/>
        <pt x="319" y="559" on="1"/>
        <pt x="351" y="559" on="0"/>
        <pt x="412" y="535" on="0"/>
        <pt x="412" y="522" on="1"/>
        <pt x="412" y="512" on="0"/>
        <pt x="393" y="481" on="0"/>
        <pt x="386" y="481" on="1"/>
        <pt x="385" y="481" on="0"/>
        <pt x="351" y="506" on="0"/>
        <pt x="318" y="506" on="1"/>
        <pt x="274" y="506" on="0"/>
        <pt x="231" y="430" on="0"/>
        <pt x="231" y="350" on="1"/>
        <pt x="231" y="271" on="0"/>
        <pt x="273" y="195" on="0"/>
        <pt x="317" y="195" on="1"/>
        <pt x="350" y="195" on="0"/>
        <pt x="390" y="222" on="0"/>
        <pt x="392" y="222" on="1"/>
        <pt x="401" y="222" on="0"/>
        <pt x="417" y="193" on="0"/>
        <pt x="417" y="186" on="1"/>
        <pt x="417" y="170" on="0"/>
        <pt x="349" y="141" on="0"/>
        <pt x="317" y="141" on="1"/>
      </contour>
    </TTGlyph>
    <TTGlyph name="currency" xMin="41" yMin="122" xMax="429" yMax="505">
      <contour>
        <pt x="69" y="122" on="0"/>
        <pt x="57" y="132" on="1"/>
        <pt x="49" y="142" on="1"/>
        <pt x="41" y="150" on="0"/>
        <pt x="41" y="162" on="1"/>
        <pt x="43" y="173" on="0"/>
        <pt x="55" y="185" on="1"/>
        <pt x="87" y="214" on="1"/>
        <pt x="72" y="251" on="0"/>
        <pt x="72" y="290" on="1"/>
        <pt x="72" y="359" on="0"/>
        <pt x="109" y="413" on="1"/>
        <pt x="81" y="442" on="1"/>
        <pt x="72" y="453" on="0"/>
        <pt x="73" y="465" on="1"/>
        <pt x="75" y="475" on="0"/>
        <pt x="83" y="483" on="1"/>
        <pt x="95" y="496" on="1"/>
        <pt x="106" y="505" on="0"/>
        <pt x="115" y="505" on="1"/>
        <pt x="126" y="505" on="0"/>
        <pt x="137" y="493" on="1"/>
        <pt x="159" y="467" on="1"/>
        <pt x="205" y="500" on="0"/>
        <pt x="253" y="500" on="1"/>
        <pt x="302" y="500" on="0"/>
        <pt x="341" y="468" on="1"/>
        <pt x="370" y="493" on="1"/>
        <pt x="381" y="504" on="0"/>
        <pt x="392" y="504" on="1"/>
        <pt x="403" y="504" on="0"/>
        <pt x="412" y="494" on="1"/>
        <pt x="421" y="484" on="1"/>
        <pt x="429" y="474" on="0"/>
        <pt x="429" y="468" on="1"/>
        <pt x="429" y="455" on="0"/>
        <pt x="415" y="442" on="1"/>
        <pt x="382" y="411" on="1"/>
        <pt x="397" y="373" on="0"/>
        <pt x="397" y="334" on="1"/>
        <pt x="397" y="271" on="0"/>
        <pt x="361" y="214" on="1"/>
        <pt x="387" y="185" on="1"/>
        <pt x="397" y="173" on="0"/>
        <pt x="396" y="162" on="1"/>
        <pt x="394" y="152" on="0"/>
        <pt x="384" y="142" on="1"/>
        <pt x="373" y="132" on="1"/>
        <pt x="363" y="122" on="0"/>
        <pt x="352" y="122" on="1"/>
        <pt x="341" y="122" on="0"/>
        <pt x="331" y="134" on="1"/>
        <pt x="310" y="157" on="1"/>
        <pt x="267" y="126" on="0"/>
        <pt x="214" y="126" on="1"/>
        <pt x="163" y="126" on="0"/>
        <pt x="126" y="157" on="1"/>
        <pt x="100" y="133" on="1"/>
        <pt x="87" y="122" on="0"/>
        <pt x="77" y="122" on="1"/>
      </contour>
      <contour>
        <pt x="263" y="202" on="0"/>
        <pt x="319" y="271" on="0"/>
        <pt x="319" y="333" on="1"/>
        <pt x="319" y="376" on="0"/>
        <pt x="278" y="424" on="0"/>
        <pt x="246" y="424" on="1"/>
        <pt x="209" y="424" on="0"/>
        <pt x="155" y="364" on="0"/>
        <pt x="149" y="312" on="1"/>
        <pt x="148" y="306" on="0"/>
        <pt x="148" y="294" on="1"/>
        <pt x="148" y="250" on="0"/>
        <pt x="189" y="202" on="0"/>
        <pt x="222" y="202" on="1"/>
      </contour>
    </TTGlyph>
    <TTGlyph name="d" xMin="39" yMin="-7" xMax="462" yMax="753">
      <contour>
        <pt x="107" y="-7" on="0"/>
        <pt x="39" y="105" on="0"/>
        <pt x="39" y="203" on="1"/>
        <pt x="39" y="233" on="0"/>
        <pt x="42" y="264" on="1"/>
        <pt x="55" y="390" on="0"/>
        <pt x="159" y="530" on="0"/>
        <pt x="235" y="530" on="1"/>
        <pt x="267" y="530" on="0"/>
        <pt x="311" y="506" on="0"/>
        <pt x="330" y="485" on="1"/>
        <pt x="356" y="728" on="1"/>
        <pt x="358" y="753" on="0"/>
        <pt x="402" y="753" on="1"/>
        <pt x="417" y="753" on="1"/>
        <pt x="462" y="753" on="0"/>
        <pt x="460" y="728" on="1"/>
        <pt x="430" y="451" on="1"/>
        <pt x="396" y="126" on="1"/>
        <pt x="395" y="100" on="0"/>
        <pt x="405" y="79" on="0"/>
        <pt x="417" y="79" on="1"/>
        <pt x="423" y="79" on="0"/>
        <pt x="437" y="83" on="0"/>
        <pt x="442" y="83" on="1"/>
        <pt x="452" y="83" on="0"/>
        <pt x="452" y="61" on="1"/>
        <pt x="452" y="51" on="0"/>
        <pt x="448" y="39" on="1"/>
        <pt x="444" y="18" on="0"/>
        <pt x="405" y="-7" on="0"/>
        <pt x="378" y="-7" on="1"/>
        <pt x="346" y="-7" on="0"/>
        <pt x="299" y="29" on="0"/>
        <pt x="294" y="72" on="1"/>
        <pt x="270" y="34" on="0"/>
        <pt x="204" y="-7" on="0"/>
        <pt x="168" y="-7" on="1"/>
      </contour>
      <contour>
        <pt x="229" y="80" on="0"/>
        <pt x="274" y="112" on="0"/>
        <pt x="293" y="141" on="1"/>
        <pt x="322" y="407" on="1"/>
        <pt x="295" y="443" on="0"/>
        <pt x="254" y="443" on="1"/>
        <pt x="167" y="443" on="0"/>
        <pt x="149" y="264" on="1"/>
        <pt x="145" y="232" on="0"/>
        <pt x="145" y="198" on="1"/>
        <pt x="145" y="140" on="0"/>
        <pt x="176" y="80" on="0"/>
        <pt x="207" y="80" on="1"/>
      </contour>
    </TTGlyph>
    <TTGlyph name="dagger" xMin="56" yMin="-140" xMax="414" yMax="702">
      <contour>
        <pt x="130" y="-140" on="0"/>
        <pt x="132" y="-115" on="1"/>
        <pt x="189" y="419" on="1"/>
        <pt x="76" y="419" on="1"/>
        <pt x="65" y="419" on="0"/>
        <pt x="56" y="435" on="0"/>
        <pt x="57" y="454" on="1"/>
        <pt x="59" y="471" on="1"/>
        <pt x="62" y="506" on="0"/>
        <pt x="85" y="506" on="1"/>
        <pt x="198" y="506" on="1"/>
        <pt x="216" y="677" on="1"/>
        <pt x="218" y="702" on="0"/>
        <pt x="255" y="702" on="1"/>
        <pt x="265" y="702" on="1"/>
        <pt x="303" y="702" on="0"/>
        <pt x="300" y="677" on="1"/>
        <pt x="282" y="506" on="1"/>
        <pt x="394" y="506" on="1"/>
        <pt x="406" y="506" on="0"/>
        <pt x="414" y="490" on="0"/>
        <pt x="412" y="471" on="1"/>
        <pt x="410" y="454" on="1"/>
        <pt x="408" y="435" on="0"/>
        <pt x="397" y="419" on="0"/>
        <pt x="385" y="419" on="1"/>
        <pt x="273" y="419" on="1"/>
        <pt x="217" y="-115" on="1"/>
        <pt x="215" y="-140" on="0"/>
        <pt x="177" y="-140" on="1"/>
        <pt x="167" y="-140" on="1"/>
      </contour>
    </TTGlyph>
    <TTGlyph name="daggerdbl" xMin="17" yMin="-140" xMax="414" yMax="702">
      <contour>
        <pt x="130" y="-140" on="0"/>
        <pt x="132" y="-115" on="1"/>
        <pt x="150" y="55" on="1"/>
        <pt x="37" y="55" on="1"/>
        <pt x="26" y="55" on="0"/>
        <pt x="17" y="72" on="0"/>
        <pt x="19" y="91" on="1"/>
        <pt x="21" y="107" on="1"/>
        <pt x="24" y="143" on="0"/>
        <pt x="46" y="143" on="1"/>
        <pt x="159" y="143" on="1"/>
        <pt x="189" y="419" on="1"/>
        <pt x="76" y="419" on="1"/>
        <pt x="65" y="419" on="0"/>
        <pt x="56" y="435" on="0"/>
        <pt x="57" y="454" on="1"/>
        <pt x="59" y="471" on="1"/>
        <pt x="62" y="506" on="0"/>
        <pt x="85" y="506" on="1"/>
        <pt x="198" y="506" on="1"/>
        <pt x="216" y="677" on="1"/>
        <pt x="218" y="702" on="0"/>
        <pt x="255" y="702" on="1"/>
        <pt x="265" y="702" on="1"/>
        <pt x="303" y="702" on="0"/>
        <pt x="300" y="677" on="1"/>
        <pt x="282" y="506" on="1"/>
        <pt x="394" y="506" on="1"/>
        <pt x="406" y="506" on="0"/>
        <pt x="414" y="490" on="0"/>
        <pt x="412" y="471" on="1"/>
        <pt x="410" y="454" on="1"/>
        <pt x="408" y="435" on="0"/>
        <pt x="397" y="419" on="0"/>
        <pt x="385" y="419" on="1"/>
        <pt x="273" y="419" on="1"/>
        <pt x="244" y="143" on="1"/>
        <pt x="355" y="143" on="1"/>
        <pt x="367" y="143" on="0"/>
        <pt x="376" y="126" on="0"/>
        <pt x="374" y="107" on="1"/>
        <pt x="372" y="91" on="1"/>
        <pt x="371" y="72" on="0"/>
        <pt x="358" y="55" on="0"/>
        <pt x="346" y="55" on="1"/>
        <pt x="235" y="55" on="1"/>
        <pt x="217" y="-115" on="1"/>
        <pt x="215" y="-140" on="0"/>
        <pt x="177" y="-140" on="1"/>
        <pt x="167" y="-140" on="1"/>
      </contour>
    </TTGlyph>
    <TTGlyph name="dcaron" xMin="39" yMin="-7" xMax="598" yMax="753">
      <component glyphName="d" x="0" y="0" flags="0x0"/>
      <component glyphName="caron.alt" x="415" y="0" flags="0x0"/>
    </TTGlyph>
    <TTGlyph name="dcroat" xMin="39" yMin="-7" xMax="521" yMax="753">
      <contour>
        <pt x="512" y="671" on="0"/>
        <pt x="521" y="655" on="0"/>
        <pt x="519" y="638" on="1"/>
        <pt x="517" y="627" on="1"/>
        <pt x="515" y="610" on="0"/>
        <pt x="504" y="594" on="0"/>
        <pt x="492" y="594" on="1"/>
        <pt x="446" y="594" on="1"/>
        <pt x="433" y="475" on="0"/>
        <pt x="426" y="405" on="1"/>
        <pt x="430" y="437" on="0"/>
        <pt x="396" y="126" on="1"/>
        <pt x="395" y="100" on="0"/>
        <pt x="405" y="79" on="0"/>
        <pt x="417" y="79" on="1"/>
        <pt x="423" y="79" on="0"/>
        <pt x="437" y="83" on="0"/>
        <pt x="442" y="83" on="1"/>
        <pt x="452" y="83" on="0"/>
        <pt x="452" y="61" on="1"/>
        <pt x="452" y="51" on="0"/>
        <pt x="448" y="39" on="1"/>
        <pt x="444" y="18" on="0"/>
        <pt x="405" y="-7" on="0"/>
        <pt x="378" y="-7" on="1"/>
        <pt x="346" y="-7" on="0"/>
        <pt x="299" y="29" on="0"/>
        <pt x="294" y="72" on="1"/>
        <pt x="270" y="34" on="0"/>
        <pt x="204" y="-7" on="0"/>
        <pt x="168" y="-7" on="1"/>
        <pt x="107" y="-7" on="0"/>
        <pt x="39" y="105" on="0"/>
        <pt x="39" y="203" on="1"/>
        <pt x="39" y="233" on="0"/>
        <pt x="42" y="264" on="1"/>
        <pt x="55" y="390" on="0"/>
        <pt x="159" y="530" on="0"/>
        <pt x="235" y="530" on="1"/>
        <pt x="267" y="530" on="0"/>
        <pt x="311" y="506" on="0"/>
        <pt x="330" y="485" on="1"/>
        <pt x="342" y="594" on="1"/>
        <pt x="296" y="594" on="1"/>
        <pt x="274" y="594" on="0"/>
        <pt x="277" y="627" on="1"/>
        <pt x="278" y="638" on="1"/>
        <pt x="280" y="655" on="0"/>
        <pt x="292" y="671" on="0"/>
        <pt x="303" y="671" on="1"/>
        <pt x="350" y="671" on="1"/>
        <pt x="356" y="728" on="1"/>
        <pt x="358" y="753" on="0"/>
        <pt x="402" y="753" on="1"/>
        <pt x="417" y="753" on="1"/>
        <pt x="462" y="753" on="0"/>
        <pt x="460" y="728" on="1"/>
        <pt x="454" y="671" on="1"/>
        <pt x="500" y="671" on="1"/>
      </contour>
      <contour>
        <pt x="322" y="407" on="1"/>
        <pt x="295" y="443" on="0"/>
        <pt x="254" y="443" on="1"/>
        <pt x="167" y="443" on="0"/>
        <pt x="149" y="264" on="1"/>
        <pt x="145" y="232" on="0"/>
        <pt x="145" y="198" on="1"/>
        <pt x="145" y="140" on="0"/>
        <pt x="176" y="80" on="0"/>
        <pt x="207" y="80" on="1"/>
        <pt x="229" y="80" on="0"/>
        <pt x="274" y="112" on="0"/>
        <pt x="293" y="141" on="1"/>
      </contour>
    </TTGlyph>
    <TTGlyph name="degree" xMin="64" yMin="442" xMax="278" yMax="707">
      <contour>
        <pt x="115" y="442" on="0"/>
        <pt x="64" y="499" on="0"/>
        <pt x="64" y="551" on="1"/>
        <pt x="64" y="623" on="0"/>
        <pt x="134" y="707" on="0"/>
        <pt x="185" y="707" on="1"/>
        <pt x="227" y="707" on="0"/>
        <pt x="278" y="649" on="0"/>
        <pt x="278" y="597" on="1"/>
        <pt x="278" y="525" on="0"/>
        <pt x="209" y="442" on="0"/>
        <pt x="157" y="442" on="1"/>
      </contour>
      <contour>
        <pt x="186" y="492" on="0"/>
        <pt x="219" y="534" on="0"/>
        <pt x="223" y="574" on="1"/>
        <pt x="224" y="581" on="0"/>
        <pt x="224" y="593" on="1"/>
        <pt x="224" y="623" on="0"/>
        <pt x="199" y="657" on="0"/>
        <pt x="178" y="657" on="1"/>
        <pt x="154" y="657" on="0"/>
        <pt x="121" y="613" on="0"/>
        <pt x="117" y="574" on="1"/>
        <pt x="116" y="567" on="0"/>
        <pt x="116" y="555" on="1"/>
        <pt x="116" y="525" on="0"/>
        <pt x="141" y="492" on="0"/>
        <pt x="162" y="492" on="1"/>
      </contour>
    </TTGlyph>
    <TTGlyph name="dieresis" xMin="53" yMin="599" xMax="287" yMax="702">
      <contour>
        <pt x="72" y="599" on="0"/>
        <pt x="53" y="611" on="0"/>
        <pt x="55" y="623" on="1"/>
        <pt x="60" y="677" on="1"/>
        <pt x="63" y="702" on="0"/>
        <pt x="107" y="702" on="1"/>
        <pt x="151" y="702" on="0"/>
        <pt x="149" y="677" on="1"/>
        <pt x="143" y="623" on="1"/>
        <pt x="140" y="599" on="0"/>
        <pt x="95" y="599" on="1"/>
      </contour>
      <contour>
        <pt x="188" y="599" on="0"/>
        <pt x="191" y="623" on="1"/>
        <pt x="197" y="677" on="1"/>
        <pt x="199" y="702" on="0"/>
        <pt x="244" y="702" on="1"/>
        <pt x="287" y="702" on="0"/>
        <pt x="285" y="677" on="1"/>
        <pt x="280" y="623" on="1"/>
        <pt x="277" y="599" on="0"/>
        <pt x="232" y="599" on="1"/>
      </contour>
    </TTGlyph>
    <TTGlyph name="divide" xMin="20" yMin="-2" xMax="421" yMax="460">
      <contour>
        <pt x="186" y="353" on="0"/>
        <pt x="189" y="378" on="1"/>
        <pt x="194" y="435" on="1"/>
        <pt x="197" y="460" on="0"/>
        <pt x="241" y="460" on="1"/>
        <pt x="248" y="460" on="1"/>
        <pt x="291" y="460" on="0"/>
        <pt x="289" y="435" on="1"/>
        <pt x="283" y="378" on="1"/>
        <pt x="280" y="353" on="0"/>
        <pt x="236" y="353" on="1"/>
        <pt x="229" y="353" on="1"/>
      </contour>
      <contour>
        <pt x="20" y="190" on="0"/>
        <pt x="23" y="226" on="1"/>
        <pt x="24" y="233" on="1"/>
        <pt x="27" y="268" on="0"/>
        <pt x="52" y="268" on="1"/>
        <pt x="398" y="268" on="1"/>
        <pt x="411" y="268" on="0"/>
        <pt x="421" y="251" on="0"/>
        <pt x="419" y="233" on="1"/>
        <pt x="418" y="226" on="1"/>
        <pt x="416" y="207" on="0"/>
        <pt x="403" y="190" on="0"/>
        <pt x="390" y="190" on="1"/>
        <pt x="44" y="190" on="1"/>
      </contour>
      <contour>
        <pt x="148" y="-2" on="0"/>
        <pt x="151" y="23" on="1"/>
        <pt x="157" y="80" on="1"/>
        <pt x="159" y="105" on="0"/>
        <pt x="203" y="105" on="1"/>
        <pt x="210" y="105" on="1"/>
        <pt x="254" y="105" on="0"/>
        <pt x="252" y="80" on="1"/>
        <pt x="246" y="23" on="1"/>
        <pt x="243" y="-2" on="0"/>
        <pt x="199" y="-2" on="1"/>
        <pt x="192" y="-2" on="1"/>
      </contour>
    </TTGlyph>
    <TTGlyph name="dollar" xMin="4" yMin="-70" xMax="416" yMax="758">
      <contour>
        <pt x="170" y="-70" on="0"/>
        <pt x="163" y="-61" on="0"/>
        <pt x="163" y="-50" on="1"/>
        <pt x="167" y="-6" on="1"/>
        <pt x="124" y="-5" on="0"/>
        <pt x="57" y="11" on="0"/>
        <pt x="29" y="30" on="1"/>
        <pt x="17" y="35" on="0"/>
        <pt x="4" y="50" on="0"/>
        <pt x="4" y="62" on="1"/>
        <pt x="4" y="83" on="0"/>
        <pt x="23" y="129" on="0"/>
        <pt x="35" y="129" on="1"/>
        <pt x="41" y="129" on="0"/>
        <pt x="49" y="123" on="1"/>
        <pt x="77" y="104" on="0"/>
        <pt x="137" y="88" on="0"/>
        <pt x="176" y="88" on="1"/>
        <pt x="200" y="312" on="1"/>
        <pt x="156" y="338" on="0"/>
        <pt x="96" y="386" on="0"/>
        <pt x="56" y="460" on="0"/>
        <pt x="56" y="510" on="1"/>
        <pt x="56" y="593" on="0"/>
        <pt x="159" y="702" on="0"/>
        <pt x="243" y="709" on="1"/>
        <pt x="246" y="738" on="1"/>
        <pt x="248" y="749" on="0"/>
        <pt x="257" y="758" on="0"/>
        <pt x="268" y="758" on="1"/>
        <pt x="275" y="758" on="1"/>
        <pt x="291" y="758" on="0"/>
        <pt x="291" y="738" on="1"/>
        <pt x="290" y="732" on="0"/>
        <pt x="290" y="716" on="0"/>
        <pt x="289" y="709" on="1"/>
        <pt x="322" y="707" on="0"/>
        <pt x="386" y="692" on="0"/>
        <pt x="405" y="681" on="1"/>
        <pt x="416" y="674" on="0"/>
        <pt x="416" y="663" on="1"/>
        <pt x="416" y="647" on="0"/>
        <pt x="394" y="592" on="0"/>
        <pt x="382" y="592" on="1"/>
        <pt x="379" y="592" on="0"/>
        <pt x="364" y="597" on="1"/>
        <pt x="317" y="617" on="0"/>
        <pt x="278" y="617" on="1"/>
        <pt x="255" y="399" on="1"/>
        <pt x="325" y="361" on="0"/>
        <pt x="396" y="274" on="0"/>
        <pt x="396" y="206" on="1"/>
        <pt x="396" y="118" on="0"/>
        <pt x="299" y="7" on="0"/>
        <pt x="213" y="-4" on="1"/>
        <pt x="208" y="-50" on="1"/>
        <pt x="207" y="-70" on="0"/>
        <pt x="186" y="-70" on="1"/>
        <pt x="180" y="-70" on="1"/>
      </contour>
      <contour>
        <pt x="233" y="612" on="1"/>
        <pt x="198" y="603" on="0"/>
        <pt x="157" y="555" on="0"/>
        <pt x="157" y="516" on="1"/>
        <pt x="157" y="488" on="0"/>
        <pt x="185" y="444" on="0"/>
        <pt x="212" y="424" on="1"/>
      </contour>
      <contour>
        <pt x="255" y="104" on="0"/>
        <pt x="293" y="155" on="0"/>
        <pt x="293" y="196" on="1"/>
        <pt x="293" y="249" on="0"/>
        <pt x="243" y="286" on="1"/>
        <pt x="223" y="95" on="1"/>
      </contour>
    </TTGlyph>
    <TTGlyph name="dotaccent" xMin="114" yMin="599" xMax="228" yMax="702">
      <contour>
        <pt x="138" y="599" on="0"/>
        <pt x="114" y="611" on="0"/>
        <pt x="116" y="623" on="1"/>
        <pt x="122" y="677" on="1"/>
        <pt x="124" y="702" on="0"/>
        <pt x="176" y="702" on="1"/>
        <pt x="228" y="702" on="0"/>
        <pt x="225" y="677" on="1"/>
        <pt x="220" y="623" on="1"/>
        <pt x="217" y="599" on="0"/>
        <pt x="165" y="599" on="1"/>
      </contour>
    </TTGlyph>
    <TTGlyph name="dotbelowcomb" xMin="-97" yMin="-183" xMax="17" yMax="-80">
      <contour>
        <pt x="-73" y="-183" on="0"/>
        <pt x="-97" y="-171" on="0"/>
        <pt x="-95" y="-159" on="1"/>
        <pt x="-89" y="-105" on="1"/>
        <pt x="-87" y="-80" on="0"/>
        <pt x="-35" y="-80" on="1"/>
        <pt x="17" y="-80" on="0"/>
        <pt x="14" y="-105" on="1"/>
        <pt x="9" y="-159" on="1"/>
        <pt x="6" y="-183" on="0"/>
        <pt x="-46" y="-183" on="1"/>
      </contour>
    </TTGlyph>
    <TTGlyph name="dotlessi" xMin="45" yMin="-4" xMax="210" yMax="525">
      <contour>
        <pt x="45" y="-4" on="0"/>
        <pt x="52" y="107" on="1"/>
        <pt x="54" y="122" on="0"/>
        <pt x="59" y="187" on="1"/>
        <pt x="88" y="476" on="0"/>
        <pt x="92" y="500" on="1"/>
        <pt x="95" y="525" on="0"/>
        <pt x="141" y="525" on="1"/>
        <pt x="151" y="525" on="1"/>
        <pt x="195" y="525" on="0"/>
        <pt x="195" y="500" on="1"/>
        <pt x="177" y="326" on="1"/>
        <pt x="163" y="210" on="0"/>
        <pt x="156" y="128" on="1"/>
        <pt x="155" y="122" on="0"/>
        <pt x="155" y="112" on="1"/>
        <pt x="155" y="81" on="0"/>
        <pt x="175" y="81" on="1"/>
        <pt x="182" y="81" on="0"/>
        <pt x="195" y="85" on="0"/>
        <pt x="200" y="85" on="1"/>
        <pt x="210" y="85" on="0"/>
        <pt x="210" y="63" on="1"/>
        <pt x="210" y="49" on="0"/>
        <pt x="207" y="41" on="1"/>
        <pt x="202" y="20" on="0"/>
        <pt x="164" y="-4" on="0"/>
        <pt x="136" y="-4" on="1"/>
      </contour>
    </TTGlyph>
    <TTGlyph name="e" xMin="43" yMin="-7" xMax="430" yMax="530">
      <contour>
        <pt x="149" y="214" on="1"/>
        <pt x="147" y="139" on="0"/>
        <pt x="198" y="79" on="0"/>
        <pt x="249" y="79" on="1"/>
        <pt x="280" y="79" on="0"/>
        <pt x="327" y="99" on="0"/>
        <pt x="351" y="115" on="1"/>
        <pt x="354" y="117" on="0"/>
        <pt x="369" y="126" on="0"/>
        <pt x="373" y="126" on="1"/>
        <pt x="381" y="126" on="0"/>
        <pt x="389" y="110" on="0"/>
        <pt x="389" y="97" on="1"/>
        <pt x="389" y="64" on="0"/>
        <pt x="373" y="43" on="1"/>
        <pt x="355" y="19" on="0"/>
        <pt x="270" y="-7" on="0"/>
        <pt x="236" y="-7" on="1"/>
        <pt x="150" y="-7" on="0"/>
        <pt x="43" y="87" on="0"/>
        <pt x="43" y="199" on="1"/>
        <pt x="43" y="293" on="0"/>
        <pt x="96" y="443" on="0"/>
        <pt x="203" y="530" on="0"/>
        <pt x="283" y="530" on="1"/>
        <pt x="336" y="530" on="0"/>
        <pt x="402" y="487" on="0"/>
        <pt x="430" y="425" on="0"/>
        <pt x="430" y="395" on="1"/>
        <pt x="430" y="307" on="0"/>
        <pt x="312" y="210" on="0"/>
        <pt x="218" y="210" on="1"/>
        <pt x="176" y="210" on="0"/>
        <pt x="149" y="216" on="1"/>
      </contour>
      <contour>
        <pt x="176" y="444" on="0"/>
        <pt x="154" y="287" on="1"/>
        <pt x="201" y="287" on="1"/>
        <pt x="255" y="287" on="0"/>
        <pt x="330" y="333" on="0"/>
        <pt x="330" y="383" on="1"/>
        <pt x="330" y="410" on="0"/>
        <pt x="300" y="444" on="0"/>
        <pt x="274" y="444" on="1"/>
      </contour>
    </TTGlyph>
    <TTGlyph name="eacute" xMin="43" yMin="-7" xMax="430" yMax="733">
      <component glyphName="e" x="0" y="0" flags="0x0"/>
      <component glyphName="acute" x="183" y="0" flags="0x0"/>
    </TTGlyph>
    <TTGlyph name="ebreve" xMin="43" yMin="-7" xMax="430" yMax="715">
      <component glyphName="e" x="0" y="0" flags="0x0"/>
      <component glyphName="breve" x="120" y="0" flags="0x0"/>
    </TTGlyph>
    <TTGlyph name="ecaron" xMin="43" yMin="-7" xMax="430" yMax="723">
      <component glyphName="e" x="0" y="0" flags="0x0"/>
      <component glyphName="caron" x="121" y="0" flags="0x0"/>
    </TTGlyph>
    <TTGlyph name="ecircumflex" xMin="43" yMin="-7" xMax="430" yMax="718">
      <component glyphName="e" x="0" y="0" flags="0x0"/>
      <component glyphName="circumflex" x="119" y="0" flags="0x0"/>
    </TTGlyph>
    <TTGlyph name="edieresis" xMin="43" yMin="-7" xMax="430" yMax="702">
      <component glyphName="e" x="0" y="0" flags="0x0"/>
      <component glyphName="dieresis" x="117" y="0" flags="0x0"/>
    </TTGlyph>
    <TTGlyph name="edotaccent" xMin="43" yMin="-7" xMax="430" yMax="702">
      <component glyphName="e" x="0" y="0" flags="0x0"/>
      <component glyphName="dotaccent" x="116" y="0" flags="0x0"/>
    </TTGlyph>
    <TTGlyph name="egrave" xMin="43" yMin="-7" xMax="430" yMax="733">
      <component glyphName="e" x="0" y="0" flags="0x0"/>
      <component glyphName="grave" x="112" y="0" flags="0x0"/>
    </TTGlyph>
    <TTGlyph name="eight" xMin="26" yMin="-7" xMax="438" yMax="707">
      <contour>
        <pt x="119" y="-7" on="0"/>
        <pt x="26" y="83" on="0"/>
        <pt x="26" y="164" on="1"/>
        <pt x="26" y="314" on="0"/>
        <pt x="145" y="373" on="1"/>
        <pt x="114" y="396" on="0"/>
        <pt x="81" y="458" on="0"/>
        <pt x="81" y="504" on="1"/>
        <pt x="81" y="567" on="0"/>
        <pt x="133" y="659" on="0"/>
        <pt x="223" y="707" on="0"/>
        <pt x="279" y="707" on="1"/>
        <pt x="349" y="707" on="0"/>
        <pt x="438" y="630" on="0"/>
        <pt x="438" y="558" on="1"/>
        <pt x="438" y="544" on="0"/>
        <pt x="437" y="536" on="1"/>
        <pt x="425" y="425" on="0"/>
        <pt x="330" y="377" on="1"/>
        <pt x="371" y="352" on="0"/>
        <pt x="418" y="282" on="0"/>
        <pt x="418" y="226" on="1"/>
        <pt x="418" y="218" on="0"/>
        <pt x="416" y="196" on="1"/>
        <pt x="407" y="104" on="0"/>
        <pt x="291" y="-7" on="0"/>
        <pt x="200" y="-7" on="1"/>
      </contour>
      <contour>
        <pt x="336" y="466" on="0"/>
        <pt x="336" y="547" on="1"/>
        <pt x="336" y="584" on="0"/>
        <pt x="299" y="621" on="0"/>
        <pt x="269" y="621" on="1"/>
        <pt x="233" y="621" on="0"/>
        <pt x="184" y="569" on="0"/>
        <pt x="184" y="519" on="1"/>
        <pt x="184" y="483" on="0"/>
        <pt x="223" y="439" on="0"/>
        <pt x="260" y="418" on="1"/>
      </contour>
      <contour>
        <pt x="252" y="79" on="0"/>
        <pt x="312" y="155" on="0"/>
        <pt x="312" y="213" on="1"/>
        <pt x="312" y="244" on="0"/>
        <pt x="285" y="287" on="0"/>
        <pt x="247" y="312" on="0"/>
        <pt x="212" y="331" on="1"/>
        <pt x="173" y="306" on="0"/>
        <pt x="131" y="234" on="0"/>
        <pt x="131" y="177" on="1"/>
        <pt x="131" y="128" on="0"/>
        <pt x="174" y="79" on="0"/>
        <pt x="209" y="79" on="1"/>
      </contour>
    </TTGlyph>
    <TTGlyph name="ellipsis" xMin="12" yMin="-2" xMax="499" yMax="121">
      <contour>
        <pt x="12" y="-2" on="0"/>
        <pt x="15" y="23" on="1"/>
        <pt x="23" y="96" on="1"/>
        <pt x="25" y="109" on="0"/>
        <pt x="46" y="121" on="0"/>
        <pt x="69" y="121" on="1"/>
        <pt x="90" y="121" on="1"/>
        <pt x="113" y="121" on="0"/>
        <pt x="133" y="109" on="0"/>
        <pt x="131" y="96" on="1"/>
        <pt x="124" y="23" on="1"/>
        <pt x="119" y="-2" on="0"/>
        <pt x="77" y="-2" on="1"/>
        <pt x="56" y="-2" on="1"/>
      </contour>
      <contour>
        <pt x="195" y="-2" on="0"/>
        <pt x="198" y="23" on="1"/>
        <pt x="206" y="96" on="1"/>
        <pt x="207" y="121" on="0"/>
        <pt x="252" y="121" on="1"/>
        <pt x="273" y="121" on="1"/>
        <pt x="296" y="121" on="0"/>
        <pt x="316" y="109" on="0"/>
        <pt x="314" y="96" on="1"/>
        <pt x="307" y="23" on="1"/>
        <pt x="302" y="-2" on="0"/>
        <pt x="259" y="-2" on="1"/>
        <pt x="239" y="-2" on="1"/>
      </contour>
      <contour>
        <pt x="378" y="-2" on="0"/>
        <pt x="381" y="23" on="1"/>
        <pt x="389" y="96" on="1"/>
        <pt x="390" y="121" on="0"/>
        <pt x="435" y="121" on="1"/>
        <pt x="456" y="121" on="1"/>
        <pt x="479" y="121" on="0"/>
        <pt x="499" y="109" on="0"/>
        <pt x="497" y="96" on="1"/>
        <pt x="489" y="23" on="1"/>
        <pt x="486" y="-2" on="0"/>
        <pt x="443" y="-2" on="1"/>
        <pt x="422" y="-2" on="1"/>
      </contour>
    </TTGlyph>
    <TTGlyph name="emacron" xMin="43" yMin="-7" xMax="430" yMax="685">
      <component glyphName="e" x="0" y="0" flags="0x0"/>
      <component glyphName="macron" x="119" y="0" flags="0x0"/>
    </TTGlyph>
    <TTGlyph name="emdash" xMin="-1" yMin="225" xMax="889" yMax="306">
      <contour>
        <pt x="-1" y="225" on="0"/>
        <pt x="-1" y="250" on="1"/>
        <pt x="-1" y="257" on="0"/>
        <pt x="0" y="261" on="1"/>
        <pt x="1" y="270" on="1"/>
        <pt x="4" y="306" on="0"/>
        <pt x="26" y="306" on="1"/>
        <pt x="869" y="306" on="1"/>
        <pt x="880" y="306" on="0"/>
        <pt x="889" y="289" on="0"/>
        <pt x="887" y="270" on="1"/>
        <pt x="886" y="261" on="1"/>
        <pt x="884" y="242" on="0"/>
        <pt x="872" y="225" on="0"/>
        <pt x="861" y="225" on="1"/>
        <pt x="18" y="225" on="1"/>
      </contour>
    </TTGlyph>
    <TTGlyph name="endash" xMin="-1" yMin="225" xMax="446" yMax="306">
      <contour>
        <pt x="-1" y="225" on="0"/>
        <pt x="-1" y="250" on="1"/>
        <pt x="-1" y="257" on="0"/>
        <pt x="0" y="261" on="1"/>
        <pt x="1" y="270" on="1"/>
        <pt x="4" y="306" on="0"/>
        <pt x="26" y="306" on="1"/>
        <pt x="426" y="306" on="1"/>
        <pt x="437" y="306" on="0"/>
        <pt x="446" y="289" on="0"/>
        <pt x="444" y="270" on="1"/>
        <pt x="443" y="261" on="1"/>
        <pt x="441" y="242" on="0"/>
        <pt x="429" y="225" on="0"/>
        <pt x="418" y="225" on="1"/>
        <pt x="18" y="225" on="1"/>
      </contour>
    </TTGlyph>
    <TTGlyph name="eng" xMin="36" yMin="-212" xMax="424" yMax="530">
      <contour>
        <pt x="164" y="-212" on="0"/>
        <pt x="168" y="-176" on="1"/>
        <pt x="169" y="-163" on="0"/>
        <pt x="186" y="-122" on="0"/>
        <pt x="197" y="-122" on="1"/>
        <pt x="201" y="-122" on="0"/>
        <pt x="219" y="-127" on="0"/>
        <pt x="232" y="-127" on="1"/>
        <pt x="266" y="-127" on="0"/>
        <pt x="272" y="-66" on="1"/>
        <pt x="315" y="363" on="1"/>
        <pt x="316" y="369" on="0"/>
        <pt x="316" y="381" on="1"/>
        <pt x="316" y="442" on="0"/>
        <pt x="264" y="442" on="1"/>
        <pt x="241" y="442" on="0"/>
        <pt x="197" y="409" on="0"/>
        <pt x="181" y="383" on="1"/>
        <pt x="143" y="23" on="1"/>
        <pt x="140" y="-2" on="0"/>
        <pt x="97" y="-2" on="1"/>
        <pt x="79" y="-2" on="1"/>
        <pt x="36" y="-2" on="0"/>
        <pt x="38" y="23" on="1"/>
        <pt x="75" y="366" on="1"/>
        <pt x="80" y="415" on="0"/>
        <pt x="80" y="453" on="1"/>
        <pt x="80" y="470" on="0"/>
        <pt x="78" y="491" on="0"/>
        <pt x="79" y="496" on="1"/>
        <pt x="80" y="509" on="0"/>
        <pt x="137" y="522" on="0"/>
        <pt x="156" y="522" on="1"/>
        <pt x="171" y="522" on="0"/>
        <pt x="179" y="498" on="0"/>
        <pt x="181" y="463" on="0"/>
        <pt x="182" y="454" on="1"/>
        <pt x="208" y="489" on="0"/>
        <pt x="277" y="530" on="0"/>
        <pt x="315" y="530" on="1"/>
        <pt x="368" y="530" on="0"/>
        <pt x="424" y="466" on="0"/>
        <pt x="424" y="408" on="1"/>
        <pt x="424" y="399" on="0"/>
        <pt x="422" y="379" on="1"/>
        <pt x="374" y="-71" on="1"/>
        <pt x="366" y="-146" on="0"/>
        <pt x="289" y="-212" on="0"/>
        <pt x="242" y="-212" on="1"/>
      </contour>
    </TTGlyph>
    <TTGlyph name="eogonek" xMin="43" yMin="-150" xMax="450" yMax="530">
      <contour>
        <pt x="450" y="-79" on="0"/>
        <pt x="450" y="-105" on="1"/>
        <pt x="450" y="-124" on="0"/>
        <pt x="436" y="-133" on="1"/>
        <pt x="409" y="-150" on="0"/>
        <pt x="372" y="-150" on="1"/>
        <pt x="317" y="-150" on="0"/>
        <pt x="279" y="-92" on="0"/>
        <pt x="279" y="-60" on="1"/>
        <pt x="279" y="-32" on="0"/>
        <pt x="290" y="0" on="1"/>
        <pt x="262" y="-7" on="0"/>
        <pt x="236" y="-7" on="1"/>
        <pt x="150" y="-7" on="0"/>
        <pt x="43" y="87" on="0"/>
        <pt x="43" y="199" on="1"/>
        <pt x="43" y="293" on="0"/>
        <pt x="96" y="443" on="0"/>
        <pt x="203" y="530" on="0"/>
        <pt x="283" y="530" on="1"/>
        <pt x="336" y="530" on="0"/>
        <pt x="402" y="487" on="0"/>
        <pt x="430" y="425" on="0"/>
        <pt x="430" y="395" on="1"/>
        <pt x="430" y="307" on="0"/>
        <pt x="312" y="210" on="0"/>
        <pt x="218" y="210" on="1"/>
        <pt x="176" y="210" on="0"/>
        <pt x="149" y="216" on="1"/>
        <pt x="149" y="214" on="1"/>
        <pt x="147" y="139" on="0"/>
        <pt x="198" y="79" on="0"/>
        <pt x="249" y="79" on="1"/>
        <pt x="280" y="79" on="0"/>
        <pt x="327" y="99" on="0"/>
        <pt x="351" y="115" on="1"/>
        <pt x="354" y="117" on="0"/>
        <pt x="369" y="126" on="0"/>
        <pt x="373" y="126" on="1"/>
        <pt x="381" y="126" on="0"/>
        <pt x="389" y="110" on="0"/>
        <pt x="389" y="97" on="1"/>
        <pt x="389" y="64" on="0"/>
        <pt x="373" y="43" on="1"/>
        <pt x="368" y="37" on="0"/>
        <pt x="362" y="32" on="1"/>
        <pt x="342" y="-7" on="0"/>
        <pt x="342" y="-42" on="1"/>
        <pt x="342" y="-67" on="0"/>
        <pt x="370" y="-85" on="0"/>
        <pt x="391" y="-85" on="1"/>
        <pt x="399" y="-85" on="0"/>
        <pt x="424" y="-79" on="0"/>
        <pt x="427" y="-79" on="1"/>
      </contour>
      <contour>
        <pt x="176" y="444" on="0"/>
        <pt x="154" y="287" on="1"/>
        <pt x="201" y="287" on="1"/>
        <pt x="255" y="287" on="0"/>
        <pt x="330" y="333" on="0"/>
        <pt x="330" y="383" on="1"/>
        <pt x="330" y="410" on="0"/>
        <pt x="300" y="444" on="0"/>
        <pt x="274" y="444" on="1"/>
      </contour>
    </TTGlyph>
    <TTGlyph name="equal" xMin="21" yMin="101" xMax="422" yMax="348">
      <contour>
        <pt x="39" y="270" on="0"/>
        <pt x="39" y="295" on="1"/>
        <pt x="40" y="306" on="1"/>
        <pt x="41" y="313" on="1"/>
        <pt x="44" y="348" on="0"/>
        <pt x="68" y="348" on="1"/>
        <pt x="400" y="348" on="1"/>
        <pt x="412" y="348" on="0"/>
        <pt x="422" y="331" on="0"/>
        <pt x="420" y="313" on="1"/>
        <pt x="419" y="306" on="1"/>
        <pt x="415" y="270" on="0"/>
        <pt x="392" y="270" on="1"/>
        <pt x="60" y="270" on="1"/>
      </contour>
      <contour>
        <pt x="21" y="101" on="0"/>
        <pt x="21" y="127" on="1"/>
        <pt x="22" y="137" on="1"/>
        <pt x="23" y="144" on="1"/>
        <pt x="26" y="180" on="0"/>
        <pt x="51" y="180" on="1"/>
        <pt x="383" y="180" on="1"/>
        <pt x="395" y="180" on="0"/>
        <pt x="404" y="163" on="0"/>
        <pt x="402" y="144" on="1"/>
        <pt x="401" y="137" on="1"/>
        <pt x="399" y="118" on="0"/>
        <pt x="386" y="101" on="0"/>
        <pt x="374" y="101" on="1"/>
        <pt x="42" y="101" on="1"/>
      </contour>
    </TTGlyph>
    <TTGlyph name="estimated" xMin="22" yMin="-7" xMax="593" yMax="707">
      <contour>
        <pt x="156" y="115" on="1"/>
        <pt x="220" y="48" on="0"/>
        <pt x="320" y="48" on="1"/>
        <pt x="367" y="48" on="0"/>
        <pt x="464" y="93" on="0"/>
        <pt x="492" y="131" on="1"/>
        <pt x="502" y="146" on="0"/>
        <pt x="513" y="146" on="1"/>
        <pt x="525" y="146" on="0"/>
        <pt x="543" y="128" on="0"/>
        <pt x="543" y="118" on="1"/>
        <pt x="543" y="110" on="0"/>
        <pt x="533" y="97" on="1"/>
        <pt x="491" y="48" on="0"/>
        <pt x="380" y="-7" on="0"/>
        <pt x="320" y="-7" on="1"/>
        <pt x="237" y="-7" on="0"/>
        <pt x="102" y="79" on="0"/>
        <pt x="22" y="243" on="0"/>
        <pt x="22" y="355" on="1"/>
        <pt x="22" y="465" on="0"/>
        <pt x="99" y="624" on="0"/>
        <pt x="231" y="707" on="0"/>
        <pt x="312" y="707" on="1"/>
        <pt x="390" y="707" on="0"/>
        <pt x="518" y="624" on="0"/>
        <pt x="593" y="465" on="0"/>
        <pt x="593" y="355" on="1"/>
        <pt x="156" y="355" on="1"/>
      </contour>
      <contour>
        <pt x="267" y="657" on="0"/>
        <pt x="186" y="624" on="0"/>
        <pt x="156" y="592" on="1"/>
        <pt x="156" y="405" on="1"/>
        <pt x="463" y="405" on="1"/>
        <pt x="463" y="590" on="1"/>
        <pt x="433" y="623" on="0"/>
        <pt x="354" y="657" on="0"/>
        <pt x="312" y="657" on="1"/>
      </contour>
    </TTGlyph>
    <TTGlyph name="eth" xMin="40" yMin="-7" xMax="445" yMax="714">
      <contour>
        <pt x="443" y="624" on="0"/>
        <pt x="426" y="622" on="1"/>
        <pt x="369" y="615" on="1"/>
        <pt x="437" y="471" on="0"/>
        <pt x="437" y="325" on="1"/>
        <pt x="437" y="294" on="0"/>
        <pt x="434" y="261" on="1"/>
        <pt x="420" y="128" on="0"/>
        <pt x="311" y="-7" on="0"/>
        <pt x="211" y="-7" on="1"/>
        <pt x="129" y="-7" on="0"/>
        <pt x="40" y="103" on="0"/>
        <pt x="40" y="206" on="1"/>
        <pt x="40" y="232" on="0"/>
        <pt x="43" y="260" on="1"/>
        <pt x="57" y="389" on="0"/>
        <pt x="166" y="526" on="0"/>
        <pt x="259" y="526" on="1"/>
        <pt x="286" y="526" on="0"/>
        <pt x="309" y="520" on="1"/>
        <pt x="298" y="557" on="0"/>
        <pt x="276" y="602" on="1"/>
        <pt x="197" y="591" on="1"/>
        <pt x="185" y="591" on="0"/>
        <pt x="169" y="613" on="0"/>
        <pt x="170" y="626" on="1"/>
        <pt x="172" y="637" on="0"/>
        <pt x="189" y="640" on="1"/>
        <pt x="253" y="649" on="1"/>
        <pt x="229" y="687" on="0"/>
        <pt x="229" y="696" on="1"/>
        <pt x="229" y="708" on="0"/>
        <pt x="247" y="711" on="1"/>
        <pt x="280" y="714" on="0"/>
        <pt x="285" y="714" on="1"/>
        <pt x="302" y="714" on="0"/>
        <pt x="313" y="703" on="1"/>
        <pt x="325" y="689" on="0"/>
        <pt x="344" y="660" on="1"/>
        <pt x="410" y="671" on="0"/>
        <pt x="420" y="671" on="1"/>
        <pt x="432" y="671" on="0"/>
        <pt x="445" y="646" on="0"/>
        <pt x="445" y="636" on="1"/>
      </contour>
      <contour>
        <pt x="332" y="307" on="0"/>
        <pt x="332" y="323" on="1"/>
        <pt x="332" y="384" on="0"/>
        <pt x="295" y="441" on="0"/>
        <pt x="257" y="441" on="1"/>
        <pt x="211" y="441" on="0"/>
        <pt x="160" y="356" on="0"/>
        <pt x="149" y="261" on="1"/>
        <pt x="145" y="213" on="0"/>
        <pt x="145" y="197" on="1"/>
        <pt x="145" y="136" on="0"/>
        <pt x="181" y="79" on="0"/>
        <pt x="219" y="79" on="1"/>
        <pt x="265" y="79" on="0"/>
        <pt x="318" y="166" on="0"/>
        <pt x="328" y="261" on="1"/>
      </contour>
    </TTGlyph>
</ttFont>
